<svg width="27" height="27" viewBox="0 0 27 27" fill="none" xmlns="http://www.w3.org/2000/svg">
<path d="M24.4688 10.6194V4.33283C24.8842 4.16547 25.2401 3.8777 25.4907 3.50651C25.7413 3.13531 25.8752 2.69765 25.8751 2.24978C25.8753 1.95425 25.8172 1.66159 25.7042 1.38854C25.5912 1.11548 25.4254 0.86738 25.2164 0.658429C25.0075 0.449478 24.7593 0.283775 24.4863 0.170796C24.2132 0.057817 23.9205 -0.000221217 23.625 6.33619e-07C23.3295 -4.36918e-05 23.0369 0.0581156 22.7639 0.171158C22.491 0.2842 22.2429 0.44991 22.034 0.658825C21.825 0.86774 21.6593 1.11577 21.5462 1.38875C21.4331 1.66172 21.3749 1.9543 21.3749 2.24978C21.3749 3.19478 21.9574 3.99904 22.7813 4.33283V8.52086C20.3621 6.03484 17.0991 4.49989 13.5 4.49989C9.9009 4.49989 6.6393 6.03484 4.21875 8.52188V4.33283C4.63404 4.1653 4.98978 3.87748 5.24031 3.50632C5.49085 3.13515 5.62473 2.69758 5.62478 2.24978C5.62495 1.95428 5.56688 1.66165 5.45388 1.38861C5.34088 1.11558 5.17517 0.867495 4.96623 0.658549C4.75728 0.449603 4.5092 0.283892 4.23616 0.170893C3.96313 0.0578941 3.6705 -0.000176841 3.375 6.33619e-07C3.07954 -4.36994e-05 2.78697 0.0581182 2.514 0.171164C2.24102 0.28421 1.99299 0.449926 1.78407 0.658846C1.57515 0.867765 1.40943 1.1158 1.29639 1.38877C1.18334 1.66175 1.12518 1.95432 1.12522 2.24978C1.12522 3.19478 1.70741 3.99904 2.53125 4.33283V10.6205C0.944325 13.0174 0 15.9489 0 19.1248C0 23.4755 6.04463 27 13.5 27C20.9577 27 27 23.4755 27 19.1248C27 15.9476 26.055 13.0174 24.4688 10.6194ZM13.5 21.3746C8.83811 21.3746 5.0625 20.3675 5.0625 19.1248C5.0625 16.4879 5.70645 14.1018 6.75 12.3748C11.2543 13.9303 16.0839 13.8183 20.25 12.3748C21.2939 14.1018 21.9375 16.4882 21.9375 19.1248C21.9375 20.3675 18.1595 21.3746 13.5 21.3746Z" fill="white"/>
</svg>
