<svg width="148" height="148" viewBox="0 0 148 148" fill="none" xmlns="http://www.w3.org/2000/svg">
<g opacity="0.7">
<path d="M148 74C148 33.1309 114.869 0 74 0C33.1309 0 0 33.1309 0 74V148H74C114.869 148 148 114.869 148 74Z" fill="url(#paint0_linear_935_694)" fill-opacity="0.3"/>
<g opacity="0.7" clip-path="url(#clip0_935_694)">
<path d="M37.9459 120.589C38.2906 125.065 45.4254 127.69 53.692 127.69C55.6489 127.69 57.5223 127.486 59.246 127.123C62.0595 129.506 66.1336 131.003 70.6673 131.003C75.201 131.003 79.5467 129.403 82.3637 126.88C84.3625 127.398 86.5945 127.69 88.9554 127.69C97.2219 127.69 103.58 125.424 103.928 120.948H103.946C103.946 120.948 103.939 120.948 103.928 120.948C103.939 120.828 103.946 120.708 103.946 120.589L102.901 119.757C98.9525 118.287 86.6363 110.854 84.1605 81.3047L71.3254 72.9799L56.3245 76.3845C56.3245 76.3845 54.9072 114.784 40.0247 119.285L37.9459 120.589C37.9459 120.708 37.9354 120.469 37.9459 120.589Z" fill="#77686D"/>
<path d="M70.9633 80.9417C70.9633 80.9417 52.5185 121.403 37.9459 120.589C42.0965 125.181 60.2871 118.643 70.9633 88.893C70.9633 88.893 86.0304 128.424 102.093 121.664C102.093 121.664 103.225 121.325 103.942 120.589C100.196 120.902 77.9484 107.002 70.9633 80.9452V80.9417Z" fill="#BD9FA5"/>
<path d="M103.942 120.589C97.2323 124.036 84.9196 113.134 76.4441 96.2344C67.9687 79.338 66.5375 62.8434 73.2475 59.393C94.6103 58.5083 82.2871 100.059 103.942 120.585V120.589Z" fill="#F9F8F4"/>
<path d="M37.9459 120.589C44.6559 124.036 56.9687 113.134 65.4441 96.238C73.9196 79.338 75.3507 62.847 68.6407 59.3965C47.2779 58.5083 59.6011 100.059 37.9459 120.589Z" fill="#F9F8F4"/>
<path d="M65.6287 45.8942V39.0214C65.6287 39.0214 59.8658 37.6434 59.3783 42.0948C58.9047 46.4088 55.0465 59.5445 47.452 59.5445V64.1546C47.452 64.1546 62.0142 62.9774 62.0142 47.1559C62.0142 47.1559 62.9823 44.5232 65.6321 45.8907L65.6287 45.8942Z" fill="#E5D9DB"/>
<path d="M76.1655 45.8942V39.0214C76.1655 39.0214 81.9284 37.6434 82.4159 42.0948C82.8895 46.4088 86.7477 59.5445 94.3422 59.5445V64.1546C94.3422 64.1546 79.78 62.9774 79.78 47.1559C79.78 47.1559 78.8119 44.5232 76.162 45.8907L76.1655 45.8942Z" fill="#E5D9DB"/>
<path d="M68.5641 35.4617C68.5641 35.4617 70.8414 37.3614 73.9231 35.4617" stroke="white" stroke-width="3.08" stroke-miterlimit="10"/>
<path d="M66.4957 96.7666C66.4957 96.7666 60.0782 126.041 56.0494 127.588C56.0494 127.588 58.7376 127.299 59.2425 127.12C59.2425 127.12 66.2485 100.496 67.1852 96.2908L66.4922 96.7666H66.4957Z" fill="#BD9FA5"/>
<path d="M75.107 96.5164C75.107 96.5164 81.6255 126.178 85.4802 127.472C85.4802 127.472 82.9487 127.109 82.3602 126.873C82.3602 126.873 75.3542 100.245 74.4175 96.0441L75.1105 96.5199L75.107 96.5164Z" fill="#BD9FA5"/>
<path d="M80.4416 43.8712C80.372 43.5927 80.0934 43.4447 79.8462 43.3143C79.7939 43.2861 79.7417 43.2579 79.6895 43.2297C79.5954 43.0711 79.4875 42.9195 79.3656 42.775C79.3552 42.7151 79.3447 42.6552 79.3378 42.5918C79.2995 42.3169 79.2577 42.0067 79.0313 41.834C78.8224 41.6754 78.5404 41.7106 78.2688 41.7424C78.2409 41.7424 78.2096 41.7494 78.1817 41.7529C77.9867 41.6578 77.7743 41.5838 77.541 41.5238C77.5062 41.4815 77.4748 41.4357 77.44 41.3899C77.2833 41.1749 77.1057 40.9282 76.8411 40.8789C76.5834 40.8295 76.3432 40.9811 76.1133 41.1291C76.0541 41.1679 75.9915 41.2066 75.9323 41.2384C75.7547 41.2348 75.5771 41.2384 75.3995 41.256C75.3403 41.2278 75.2811 41.1925 75.2219 41.1608C74.9782 41.0269 74.724 40.8859 74.4628 40.9564C74.2086 41.0269 74.0589 41.2736 73.9161 41.5097C73.8778 41.5732 73.8395 41.6331 73.8012 41.6895C73.6445 41.767 73.4913 41.8516 73.3381 41.9503C73.2754 41.9503 73.2093 41.9503 73.1466 41.9503C72.875 41.9503 72.5685 41.9433 72.3666 42.1406C72.182 42.3169 72.1681 42.5988 72.1542 42.8702C72.1507 42.9477 72.1437 43.0217 72.1368 43.0922C72.0358 43.2332 71.9348 43.3812 71.8443 43.5398C71.7885 43.568 71.7328 43.5962 71.6736 43.6244C71.4299 43.7407 71.1931 43.85 71.0852 44.0967C70.9633 44.3787 70.925 44.4492 70.831 44.1919C70.7335 43.924 70.4758 43.8359 70.2599 43.6808C70.2077 43.6421 70.1589 43.6068 70.1102 43.568C70.044 43.3989 69.9709 43.2403 69.8943 43.0852C69.8943 43.0112 69.9012 42.9336 69.9082 42.8561C69.9326 42.5882 69.957 42.3098 69.8037 42.1089C69.6296 41.8833 69.3267 41.841 69.0551 41.8058C68.9924 41.7988 68.9262 41.7882 68.8671 41.7776C68.7347 41.6648 68.5955 41.5626 68.4527 41.471C68.4179 41.4111 68.3865 41.3441 68.3552 41.2807C68.2368 41.0304 68.1114 40.7696 67.8607 40.6744C67.61 40.5793 67.3489 40.6885 67.0947 40.7978C67.032 40.826 66.9658 40.8507 66.9031 40.8718C66.7325 40.8401 66.5584 40.8225 66.3843 40.8119C66.3251 40.7731 66.2659 40.7308 66.2102 40.685C65.9943 40.5194 65.768 40.3502 65.5103 40.3713C65.2491 40.3925 65.0541 40.6004 64.8661 40.8013C64.8174 40.8542 64.7651 40.9071 64.7164 40.9529C64.5458 40.9952 64.3786 41.041 64.2149 41.0974C64.1453 41.0833 64.0722 41.0657 63.9956 41.0445C63.7379 40.974 63.4698 40.9035 63.2434 41.0234C62.9962 41.1538 62.8917 41.4428 62.7977 41.6965C62.7768 41.7565 62.7525 41.8164 62.7316 41.8728C62.5853 41.9855 62.453 42.1089 62.3311 42.2323C62.265 42.2534 62.1988 42.2746 62.1292 42.2922C61.8576 42.3662 61.5755 42.4437 61.4536 42.6799C61.3074 42.9583 61.4432 43.2649 61.5616 43.5363C61.579 43.5786 61.5964 43.6174 61.6138 43.6597C61.6068 43.7337 61.6034 43.8077 61.6068 43.8817C61.485 44.3505 61.4188 44.8686 61.4188 45.4431C61.4188 49.9156 65.6008 53.9124 65.6008 59.7067C65.6008 59.7067 68.874 59.0934 70.8867 62.7554C72.4885 59.2837 76.2248 59.7067 76.2248 59.7067C77.1823 52.5907 80.0098 49.7782 80.0551 45.5241C80.0551 45.3761 80.0516 45.2316 80.0412 45.0871H80.0551C80.069 44.9849 80.076 44.8862 80.0795 44.7875C80.1108 44.7347 80.1456 44.6818 80.1804 44.6289C80.3406 44.3893 80.5078 44.139 80.4381 43.8676L80.4416 43.8712ZM80.0446 44.1919C80.0203 44.0474 79.9854 43.9099 79.9367 43.7725C80.0203 43.8289 80.0864 43.8923 80.1038 43.9557C80.1213 44.0192 80.0899 44.1002 80.0446 44.1884V44.1919Z" fill="#F9F8F4"/>
<path d="M77.9171 58.5894C79.1985 58.251 79.5258 59.3295 78.2792 59.7771C78.6135 61.0742 77.548 61.4055 77.1057 60.1437C75.8243 60.482 75.497 59.4036 76.7436 58.9559C76.4093 57.6625 77.4748 57.3276 77.9171 58.5894Z" fill="#DBC5A0"/>
<path d="M77.8823 59.1216C78.0181 59.3295 77.9589 59.608 77.7534 59.7454C77.548 59.8793 77.2729 59.823 77.1371 59.615C77.0048 59.4071 77.0605 59.1286 77.2659 58.9912C77.4714 58.8572 77.7465 58.9136 77.8788 59.1216H77.8823Z" fill="#DBC5A0"/>
<path d="M77.6524 59.2167C77.736 59.2943 77.7395 59.4247 77.6629 59.5093C77.5863 59.5939 77.4574 59.5974 77.3739 59.5163C77.2903 59.4388 77.2868 59.3084 77.3634 59.2238C77.44 59.1392 77.5689 59.1357 77.6524 59.2167Z" fill="#FF7CAD"/>
<path d="M65.4755 58.5471C66.6524 58.9454 66.3634 59.964 65.1586 59.6679C64.7686 60.8592 63.7588 60.5666 64.0513 59.3472C62.8743 58.9489 63.1633 57.9303 64.3682 58.2264C64.7616 57.0351 65.768 57.3276 65.4755 58.5471Z" fill="#FF7CAD"/>
<path d="M65.1795 58.9454C65.1795 59.178 64.995 59.3683 64.7651 59.3683C64.5353 59.3683 64.3473 59.1815 64.3473 58.9454C64.3473 58.7092 64.5353 58.5224 64.7651 58.5224C64.995 58.5224 65.1795 58.7128 65.1795 58.9454Z" fill="#FF7CAD"/>
<path d="M65.075 58.8432C65.075 58.9806 64.9636 59.0899 64.8313 59.0899C64.699 59.0899 64.5875 58.9806 64.5875 58.8432C64.5875 58.7057 64.699 58.5965 64.8313 58.5965C64.9636 58.5965 65.075 58.7057 65.075 58.8432Z" fill="#F8EDD7"/>
<path d="M66.2938 61.0213C65.9664 62.3959 64.8104 62.1668 65.0193 60.7675C63.6613 60.4362 63.8876 59.2661 65.27 59.4776C65.5973 58.103 66.7569 58.3356 66.5445 59.7313C67.9025 60.0626 67.6762 61.2328 66.2938 61.0213Z" fill="#DBC5A0"/>
<path d="M65.8237 60.7217C65.566 60.7429 65.3397 60.549 65.3153 60.2882C65.2944 60.0274 65.4859 59.7983 65.7436 59.7772C66.0013 59.756 66.2276 59.9499 66.252 60.2107C66.2729 60.4715 66.0813 60.7006 65.8237 60.7252V60.7217Z" fill="#DBC5A0"/>
<path d="M65.8516 60.4539C65.7401 60.4926 65.6182 60.4292 65.5799 60.3164C65.5416 60.2036 65.6043 60.0803 65.7157 60.0415C65.8272 60.0027 65.9491 60.0662 65.9874 60.179C66.0257 60.2917 65.963 60.4151 65.8516 60.4539Z" fill="#FF7CAD"/>
<path d="M77.2241 59.7948C78.4011 60.1931 78.1121 61.2116 76.9073 60.9156C76.5173 62.1069 75.5074 61.8143 75.7999 60.5949C74.623 60.1966 74.912 59.178 76.1168 59.4741C76.5103 58.2828 77.5166 58.5753 77.2241 59.7948Z" fill="#FF7CAD"/>
<path d="M76.9282 60.1966C76.9282 60.4292 76.7436 60.6195 76.5138 60.6195C76.284 60.6195 76.0959 60.4327 76.0959 60.1966C76.0959 59.9604 76.284 59.7737 76.5138 59.7737C76.7436 59.7737 76.9282 59.964 76.9282 60.1966Z" fill="#FF7CAD"/>
<path d="M76.8237 60.0909C76.8237 60.2283 76.7122 60.3376 76.5799 60.3376C76.4476 60.3376 76.3362 60.2248 76.3362 60.0909C76.3362 59.9569 76.4476 59.8441 76.5799 59.8441C76.7122 59.8441 76.8237 59.9534 76.8237 60.0909Z" fill="#F8EDD7"/>
<path d="M74.5325 59.7349C76.3815 59.2273 76.869 60.7887 75.0687 61.4513C75.5667 63.3228 74.0276 63.8162 73.3729 61.994C71.5239 62.498 71.0364 60.9367 72.8367 60.2776C72.3353 58.4061 73.8778 57.9127 74.5325 59.7349Z" fill="#DBC5A0"/>
<path d="M74.4872 60.5067C74.6822 60.8063 74.6021 61.2116 74.3061 61.409C74.0101 61.6063 73.6097 61.5253 73.4147 61.2257C73.2197 60.9261 73.2998 60.5208 73.5958 60.3234C73.8917 60.1261 74.2887 60.2071 74.4872 60.5067Z" fill="#DBC5A0"/>
<path d="M74.1529 60.6477C74.2713 60.7605 74.2783 60.9473 74.1703 61.0706C74.0589 61.1905 73.8743 61.1975 73.7525 61.0847C73.6341 60.972 73.6271 60.7852 73.735 60.6618C73.8465 60.542 74.031 60.5349 74.1529 60.6442V60.6477Z" fill="#FF7CAD"/>
<path d="M68.6163 60.2917C70.3017 60.8592 69.8908 62.3183 68.1602 61.8989C67.5996 63.6048 66.1545 63.1853 66.5723 61.4407C64.887 60.8733 65.3014 59.4106 67.0285 59.8336C67.5891 58.1277 69.0342 58.5471 68.6163 60.2953V60.2917Z" fill="#FF7CAD"/>
<path d="M68.1915 60.8662C68.1915 61.2011 67.9269 61.4689 67.5961 61.4689C67.2653 61.4689 67.0006 61.1975 67.0006 60.8662C67.0006 60.5349 67.2687 60.2635 67.5961 60.2635C67.9234 60.2635 68.1915 60.5349 68.1915 60.8662Z" fill="#FF7CAD"/>
<path d="M68.0418 60.7182C68.0418 60.9156 67.8851 61.0742 67.6901 61.0742C67.4951 61.0742 67.3384 60.9156 67.3384 60.7182C67.3384 60.5208 67.4951 60.3622 67.6901 60.3622C67.8851 60.3622 68.0418 60.5208 68.0418 60.7182Z" fill="#F8EDD7"/>
<path d="M70.0057 60.8803C71.2871 60.542 71.6144 61.6205 70.3678 62.0681C70.7021 63.3651 69.6366 63.6964 69.1944 62.4346C67.9129 62.773 67.5856 61.6945 68.8322 61.2469C68.4979 59.9534 69.5635 59.6186 70.0057 60.8803Z" fill="#DBC5A0"/>
<path d="M69.9709 61.409C70.1067 61.6169 70.0475 61.8954 69.8421 62.0328C69.6366 62.1668 69.3615 62.1104 69.2257 61.9024C69.0934 61.6945 69.1491 61.416 69.3546 61.2786C69.56 61.1447 69.8351 61.201 69.9674 61.409H69.9709Z" fill="#DBC5A0"/>
<path d="M69.7376 61.5077C69.8212 61.5852 69.8246 61.7156 69.748 61.8002C69.6714 61.8813 69.5426 61.8883 69.459 61.8073C69.3754 61.7297 69.372 61.5993 69.4486 61.5147C69.5252 61.4302 69.654 61.4266 69.7376 61.5077Z" fill="#FF7CAD"/>
<path d="M72.8993 64.4541C73.2963 65.5608 72.3909 65.938 71.8999 64.87C70.8066 65.2753 70.434 64.3555 71.4891 63.862C71.0921 62.7553 71.9974 62.3782 72.4884 63.4461C73.5818 63.0443 73.9544 63.9607 72.8993 64.4541Z" fill="#DBC5A0"/>
<path d="M72.4362 64.4682C72.269 64.6057 72.0218 64.574 71.8895 64.4048C71.7537 64.2356 71.785 63.9854 71.9522 63.8515C72.1193 63.714 72.3665 63.7457 72.4989 63.9149C72.6347 64.0841 72.6033 64.3343 72.4362 64.4682Z" fill="#DBC5A0"/>
<path d="M73.8186 67.0975C74.0658 67.9328 73.3763 68.1725 73.063 67.3619C72.2377 67.6086 72.0009 66.9142 72.8018 66.597C72.558 65.7617 73.244 65.5221 73.5574 66.3327C74.3827 66.086 74.6195 66.7803 73.8186 67.101V67.0975Z" fill="#FF7CAD"/>
<path d="M73.4773 67.0834C73.345 67.175 73.164 67.1433 73.0734 67.0129C72.9829 66.879 73.0142 66.6957 73.1465 66.6041C73.2754 66.5124 73.4565 66.5442 73.5505 66.6781C73.6445 66.812 73.6097 66.9918 73.4808 67.0869L73.4773 67.0834Z" fill="#FF7CAD"/>
<path d="M73.7176 71.3903C74.4698 72.4618 73.6341 73.2019 72.7983 72.2045C71.7746 73.0363 71.1026 72.1622 72.0601 71.2423C71.308 70.1709 72.1437 69.4342 72.9794 70.4282C74.0032 69.5964 74.6752 70.4704 73.7176 71.3903Z" fill="#DBC5A0"/>
<path d="M73.2371 71.5666C73.1013 71.7745 72.8332 71.8309 72.6417 71.6934C72.4501 71.5525 72.4049 71.2705 72.5407 71.0626C72.6765 70.8546 72.9411 70.7982 73.1361 70.9392C73.3311 71.0802 73.3764 71.3621 73.2406 71.5701L73.2371 71.5666Z" fill="#DBC5A0"/>
<path d="M70.3086 68.3628C70.5524 69.1981 69.8664 69.4378 69.553 68.6271C68.7277 68.8739 68.491 68.1795 69.2918 67.8623C69.0481 67.027 69.7341 66.7874 70.0475 67.598C70.8727 67.3513 71.1095 68.0456 70.3086 68.3663V68.3628Z" fill="#FF7CAD"/>
<path d="M69.9674 68.3487C69.8351 68.4403 69.654 68.4086 69.5635 68.2782C69.4729 68.1443 69.5043 67.9645 69.6366 67.8694C69.7654 67.7777 69.9465 67.8095 70.0405 67.9399C70.1311 68.0738 70.0997 68.2536 69.9709 68.3487H69.9674Z" fill="#FF7CAD"/>
<path d="M73.1918 71.3903C73.1535 71.563 72.9829 71.6688 72.8123 71.6265C72.6451 71.5842 72.5372 71.415 72.579 71.2423C72.6173 71.0696 72.7879 70.9639 72.9585 71.0062C73.1256 71.0449 73.2336 71.2176 73.1918 71.3903Z" fill="#FF7CAD"/>
<path d="M70.1624 74.936C69.8177 75.7607 69.0934 75.5351 69.3685 74.6857C68.5258 74.3791 68.7869 73.6742 69.654 73.9068C69.9987 73.0821 70.723 73.3112 70.4479 74.1571C71.2906 74.4637 71.0294 75.1686 70.1624 74.936Z" fill="#DBC5A0"/>
<path d="M69.8873 74.7175C69.7202 74.7104 69.5913 74.5765 69.6018 74.4108C69.6122 74.2487 69.7585 74.1218 69.9291 74.1253C70.0963 74.1289 70.2251 74.2663 70.2146 74.4285C70.2042 74.5906 70.0579 74.721 69.8908 74.7139L69.8873 74.7175Z" fill="#DBC5A0"/>
<path d="M69.9744 74.6294C69.8629 74.6681 69.7411 74.6047 69.7027 74.4919C69.6644 74.3791 69.7271 74.2558 69.8386 74.217C69.95 74.1782 70.0719 74.2417 70.1102 74.3544C70.1485 74.4672 70.0858 74.5906 69.9744 74.6294Z" fill="#FF7CAD"/>
<path d="M72.3073 64.2427C72.2621 64.3061 72.175 64.3202 72.1123 64.2744C72.0497 64.2286 72.0357 64.1405 72.0845 64.077C72.1298 64.0136 72.2168 63.9995 72.2795 64.0453C72.3422 64.0911 72.3561 64.1792 72.3073 64.2427Z" fill="#FF7CAD"/>
<path d="M73.5017 66.8896C73.4774 66.9953 73.3729 67.0623 73.265 67.0376C73.1605 67.0129 73.0943 66.9037 73.1187 66.7979C73.1431 66.6922 73.2475 66.6252 73.3555 66.6499C73.46 66.6746 73.5261 66.7838 73.5017 66.8896Z" fill="#F8EDD7"/>
<path d="M69.9012 68.1337C69.8768 68.2394 69.7724 68.3064 69.6644 68.2817C69.56 68.2571 69.4938 68.1478 69.5182 68.0421C69.5426 67.9363 69.647 67.8694 69.755 67.894C69.8594 67.9187 69.9256 68.0244 69.9012 68.1337Z" fill="#F8EDD7"/>
<path d="M72.29 61.8496C73.6341 62.3042 73.3067 63.4673 71.9278 63.1325C71.4786 64.4965 70.326 64.1616 70.6603 62.7659C69.3128 62.3113 69.6436 61.1447 71.0225 61.483C71.4717 60.119 72.6242 60.4539 72.29 61.8496Z" fill="#FF7CAD"/>
<path d="M71.9522 62.3077C71.9522 62.5756 71.7398 62.7906 71.4752 62.7906C71.2105 62.7906 70.9981 62.5756 70.9981 62.3077C70.9981 62.0399 71.2105 61.8249 71.4752 61.8249C71.7398 61.8249 71.9522 62.0399 71.9522 62.3077Z" fill="#FF7CAD"/>
<path d="M71.8303 62.1879C71.8303 62.343 71.705 62.4734 71.5483 62.4734C71.3916 62.4734 71.2662 62.3465 71.2662 62.1879C71.2662 62.0293 71.3916 61.9024 71.5483 61.9024C71.705 61.9024 71.8303 62.0293 71.8303 62.1879Z" fill="#F8EDD7"/>
</g>
</g>
<defs>
<linearGradient id="paint0_linear_935_694" x1="28.8382" y1="-19.0441" x2="17.4118" y2="148" gradientUnits="userSpaceOnUse">
<stop stop-color="white"/>
<stop offset="1" stop-color="white"/>
</linearGradient>
<clipPath id="clip0_935_694">
<rect width="66" height="96" fill="white" transform="translate(37.9424 35)"/>
</clipPath>
</defs>
</svg>
