<svg width="331" height="277" viewBox="0 0 331 277" fill="none" xmlns="http://www.w3.org/2000/svg">
<path opacity="0.5" d="M174.5 1C178.5 62.5 145.268 79.3043 104.398 49.7391C39.5001 2.79244 -38.9998 84.5 26.3243 145.391C100.235 214.286 187.5 64.5 257 68.5C326.5 72.5 305 145.391 305 145.391" stroke="white" stroke-width="2" stroke-dasharray="2 2"/>
<path d="M244.312 113.044V116.688C244.189 116.87 243.993 117.075 243.725 117.303C243.456 117.526 243.084 117.722 242.61 117.891C242.141 118.055 241.535 118.137 240.792 118.137C240.186 118.137 239.628 118.032 239.117 117.822C238.611 117.608 238.172 117.298 237.798 116.893C237.429 116.482 237.142 115.986 236.937 115.402C236.736 114.814 236.636 114.149 236.636 113.406V112.634C236.636 111.891 236.722 111.228 236.896 110.645C237.073 110.061 237.333 109.567 237.675 109.161C238.017 108.751 238.436 108.441 238.933 108.231C239.429 108.017 239.999 107.91 240.642 107.91C241.403 107.91 242.038 108.042 242.549 108.307C243.064 108.566 243.465 108.926 243.752 109.387C244.044 109.847 244.23 110.371 244.312 110.959H242.993C242.934 110.599 242.815 110.271 242.638 109.975C242.465 109.678 242.216 109.441 241.893 109.264C241.569 109.081 241.152 108.99 240.642 108.99C240.181 108.99 239.783 109.075 239.445 109.243C239.108 109.412 238.83 109.653 238.611 109.968C238.393 110.282 238.229 110.663 238.119 111.109C238.014 111.556 237.962 112.06 237.962 112.62V113.406C237.962 113.98 238.028 114.493 238.16 114.944C238.297 115.396 238.491 115.781 238.741 116.1C238.992 116.414 239.29 116.653 239.637 116.817C239.988 116.981 240.375 117.063 240.799 117.063C241.268 117.063 241.649 117.025 241.94 116.947C242.232 116.865 242.46 116.77 242.624 116.66C242.788 116.546 242.913 116.439 243 116.339V114.11H240.696V113.044H244.312ZM247.573 111.766V118H246.309V110.604H247.539L247.573 111.766ZM249.884 110.562L249.877 111.738C249.772 111.715 249.672 111.702 249.576 111.697C249.485 111.688 249.38 111.684 249.262 111.684C248.97 111.684 248.713 111.729 248.489 111.82C248.266 111.911 248.077 112.039 247.922 112.203C247.767 112.367 247.644 112.563 247.553 112.791C247.466 113.014 247.409 113.26 247.382 113.529L247.026 113.734C247.026 113.288 247.07 112.868 247.156 112.477C247.247 112.085 247.386 111.738 247.573 111.438C247.76 111.132 247.997 110.895 248.284 110.727C248.576 110.553 248.922 110.467 249.323 110.467C249.414 110.467 249.519 110.478 249.638 110.501C249.756 110.519 249.838 110.54 249.884 110.562ZM250.581 114.384V114.227C250.581 113.693 250.659 113.199 250.813 112.743C250.968 112.283 251.192 111.884 251.483 111.547C251.775 111.205 252.128 110.941 252.543 110.754C252.958 110.562 253.423 110.467 253.938 110.467C254.457 110.467 254.924 110.562 255.339 110.754C255.758 110.941 256.114 111.205 256.405 111.547C256.701 111.884 256.927 112.283 257.082 112.743C257.237 113.199 257.314 113.693 257.314 114.227V114.384C257.314 114.917 257.237 115.411 257.082 115.867C256.927 116.323 256.701 116.722 256.405 117.063C256.114 117.401 255.76 117.665 255.346 117.856C254.936 118.043 254.471 118.137 253.951 118.137C253.432 118.137 252.965 118.043 252.55 117.856C252.135 117.665 251.78 117.401 251.483 117.063C251.192 116.722 250.968 116.323 250.813 115.867C250.659 115.411 250.581 114.917 250.581 114.384ZM251.846 114.227V114.384C251.846 114.753 251.889 115.102 251.976 115.43C252.062 115.753 252.192 116.04 252.365 116.291C252.543 116.542 252.764 116.74 253.028 116.886C253.293 117.027 253.6 117.098 253.951 117.098C254.298 117.098 254.601 117.027 254.86 116.886C255.125 116.74 255.343 116.542 255.517 116.291C255.69 116.04 255.82 115.753 255.906 115.43C255.997 115.102 256.043 114.753 256.043 114.384V114.227C256.043 113.862 255.997 113.518 255.906 113.194C255.82 112.866 255.688 112.577 255.51 112.326C255.337 112.071 255.118 111.87 254.854 111.725C254.594 111.579 254.288 111.506 253.938 111.506C253.591 111.506 253.286 111.579 253.021 111.725C252.762 111.87 252.543 112.071 252.365 112.326C252.192 112.577 252.062 112.866 251.976 113.194C251.889 113.518 251.846 113.862 251.846 114.227ZM258.565 114.384V114.227C258.565 113.693 258.643 113.199 258.798 112.743C258.953 112.283 259.176 111.884 259.468 111.547C259.759 111.205 260.113 110.941 260.527 110.754C260.942 110.562 261.407 110.467 261.922 110.467C262.441 110.467 262.909 110.562 263.323 110.754C263.743 110.941 264.098 111.205 264.39 111.547C264.686 111.884 264.911 112.283 265.066 112.743C265.221 113.199 265.299 113.693 265.299 114.227V114.384C265.299 114.917 265.221 115.411 265.066 115.867C264.911 116.323 264.686 116.722 264.39 117.063C264.098 117.401 263.745 117.665 263.33 117.856C262.92 118.043 262.455 118.137 261.936 118.137C261.416 118.137 260.949 118.043 260.534 117.856C260.119 117.665 259.764 117.401 259.468 117.063C259.176 116.722 258.953 116.323 258.798 115.867C258.643 115.411 258.565 114.917 258.565 114.384ZM259.83 114.227V114.384C259.83 114.753 259.873 115.102 259.96 115.43C260.047 115.753 260.176 116.04 260.35 116.291C260.527 116.542 260.748 116.74 261.013 116.886C261.277 117.027 261.585 117.098 261.936 117.098C262.282 117.098 262.585 117.027 262.845 116.886C263.109 116.74 263.328 116.542 263.501 116.291C263.674 116.04 263.804 115.753 263.891 115.43C263.982 115.102 264.027 114.753 264.027 114.384V114.227C264.027 113.862 263.982 113.518 263.891 113.194C263.804 112.866 263.672 112.577 263.494 112.326C263.321 112.071 263.102 111.87 262.838 111.725C262.578 111.579 262.273 111.506 261.922 111.506C261.576 111.506 261.27 111.579 261.006 111.725C260.746 111.87 260.527 112.071 260.35 112.326C260.176 112.577 260.047 112.866 259.96 113.194C259.873 113.518 259.83 113.862 259.83 114.227ZM268.143 112.073V118H266.871V110.604H268.074L268.143 112.073ZM267.883 114.021L267.295 114.001C267.299 113.495 267.366 113.028 267.493 112.6C267.621 112.167 267.81 111.791 268.061 111.472C268.311 111.153 268.623 110.907 268.997 110.733C269.371 110.556 269.804 110.467 270.296 110.467C270.642 110.467 270.961 110.517 271.253 110.617C271.545 110.713 271.798 110.866 272.012 111.075C272.226 111.285 272.392 111.554 272.511 111.882C272.629 112.21 272.688 112.606 272.688 113.071V118H271.424V113.133C271.424 112.745 271.358 112.436 271.226 112.203C271.098 111.971 270.916 111.802 270.679 111.697C270.442 111.588 270.164 111.533 269.845 111.533C269.471 111.533 269.159 111.599 268.908 111.731C268.658 111.864 268.457 112.046 268.307 112.278C268.156 112.511 268.047 112.777 267.979 113.078C267.915 113.374 267.883 113.689 267.883 114.021ZM272.675 113.324L271.827 113.584C271.832 113.178 271.898 112.789 272.025 112.415C272.158 112.041 272.347 111.709 272.593 111.417C272.843 111.125 273.151 110.895 273.516 110.727C273.88 110.553 274.297 110.467 274.767 110.467C275.163 110.467 275.514 110.519 275.819 110.624C276.129 110.729 276.389 110.891 276.599 111.109C276.813 111.324 276.975 111.599 277.084 111.937C277.193 112.274 277.248 112.675 277.248 113.14V118H275.977V113.126C275.977 112.711 275.91 112.39 275.778 112.162C275.651 111.93 275.468 111.768 275.231 111.677C274.999 111.581 274.721 111.533 274.397 111.533C274.119 111.533 273.873 111.581 273.659 111.677C273.445 111.772 273.265 111.905 273.119 112.073C272.973 112.237 272.862 112.426 272.784 112.641C272.711 112.855 272.675 113.083 272.675 113.324Z" fill="white"/>
<g opacity="0.7">
<path d="M331 203C331 162.131 297.869 129 257 129C216.131 129 183 162.131 183 203V277H257C297.869 277 331 243.869 331 203Z" fill="url(#paint0_linear_143_4071)" fill-opacity="0.3"/>
<g opacity="0.7" clip-path="url(#clip0_143_4071)">
<path d="M220.946 249.589C221.291 254.065 228.425 256.69 236.692 256.69C238.649 256.69 240.522 256.486 242.246 256.123C245.06 258.506 249.134 260.003 253.667 260.003C258.201 260.003 262.547 258.403 265.364 255.88C267.362 256.398 269.594 256.69 271.955 256.69C280.222 256.69 286.58 254.424 286.928 249.948H286.946C286.946 249.948 286.939 249.948 286.928 249.948C286.939 249.828 286.946 249.708 286.946 249.589L285.901 248.757C281.953 247.287 269.636 239.854 267.16 210.305L254.325 201.98L239.324 205.385C239.324 205.385 237.907 243.784 223.025 248.285L220.946 249.589C220.946 249.708 220.935 249.469 220.946 249.589Z" fill="#77686D"/>
<path d="M253.963 209.942C253.963 209.942 235.519 250.403 220.946 249.589C225.097 254.181 243.287 247.643 253.963 217.893C253.963 217.893 269.03 257.424 285.093 250.664C285.093 250.664 286.225 250.325 286.942 249.589C283.196 249.902 260.948 236.002 253.963 209.945V209.942Z" fill="#BD9FA5"/>
<path d="M286.942 249.589C280.232 253.036 267.92 242.134 259.444 225.234C250.969 208.338 249.538 191.843 256.248 188.393C277.61 187.508 265.287 229.059 286.942 249.585V249.589Z" fill="#F9F8F4"/>
<path d="M220.946 249.589C227.656 253.036 239.969 242.134 248.444 225.238C256.92 208.338 258.351 191.847 251.641 188.396C230.278 187.508 242.601 229.059 220.946 249.589Z" fill="#F9F8F4"/>
<path d="M248.629 174.894V168.021C248.629 168.021 242.866 166.643 242.378 171.095C241.905 175.409 238.047 188.545 230.452 188.545V193.155C230.452 193.155 245.014 191.977 245.014 176.156C245.014 176.156 245.982 173.523 248.632 174.891L248.629 174.894Z" fill="#E5D9DB"/>
<path d="M259.166 174.894V168.021C259.166 168.021 264.928 166.643 265.416 171.095C265.889 175.409 269.748 188.545 277.342 188.545V193.155C277.342 193.155 262.78 191.977 262.78 176.156C262.78 176.156 261.812 173.523 259.162 174.891L259.166 174.894Z" fill="#E5D9DB"/>
<path d="M251.564 164.462C251.564 164.462 253.841 166.361 256.923 164.462" stroke="white" stroke-width="3.08" stroke-miterlimit="10"/>
<path d="M249.496 225.767C249.496 225.767 243.078 255.041 239.049 256.588C239.049 256.588 241.738 256.299 242.242 256.12C242.242 256.12 249.248 229.496 250.185 225.291L249.492 225.767H249.496Z" fill="#BD9FA5"/>
<path d="M258.107 225.516C258.107 225.516 264.626 255.178 268.48 256.472C268.48 256.472 265.949 256.109 265.36 255.873C265.36 255.873 258.354 229.245 257.418 225.044L258.11 225.52L258.107 225.516Z" fill="#BD9FA5"/>
<path d="M263.442 172.871C263.372 172.593 263.093 172.445 262.846 172.314C262.794 172.286 262.742 172.258 262.689 172.23C262.595 172.071 262.488 171.92 262.366 171.775C262.355 171.715 262.345 171.655 262.338 171.592C262.299 171.317 262.258 171.007 262.031 170.834C261.822 170.675 261.54 170.711 261.269 170.742C261.241 170.742 261.21 170.749 261.182 170.753C260.987 170.658 260.774 170.584 260.541 170.524C260.506 170.482 260.475 170.436 260.44 170.39C260.283 170.175 260.106 169.928 259.841 169.879C259.583 169.83 259.343 169.981 259.113 170.129C259.054 170.168 258.991 170.207 258.932 170.238C258.755 170.235 258.577 170.238 258.4 170.256C258.34 170.228 258.281 170.193 258.222 170.161C257.978 170.027 257.724 169.886 257.463 169.956C257.209 170.027 257.059 170.274 256.916 170.51C256.878 170.573 256.84 170.633 256.801 170.689C256.645 170.767 256.491 170.852 256.338 170.95C256.275 170.95 256.209 170.95 256.147 170.95C255.875 170.95 255.569 170.943 255.367 171.141C255.182 171.317 255.168 171.599 255.154 171.87C255.151 171.948 255.144 172.022 255.137 172.092C255.036 172.233 254.935 172.381 254.844 172.54C254.789 172.568 254.733 172.596 254.674 172.624C254.43 172.741 254.193 172.85 254.085 173.097C253.963 173.379 253.925 173.449 253.831 173.192C253.733 172.924 253.476 172.836 253.26 172.681C253.208 172.642 253.159 172.607 253.11 172.568C253.044 172.399 252.971 172.24 252.894 172.085C252.894 172.011 252.901 171.934 252.908 171.856C252.933 171.588 252.957 171.31 252.804 171.109C252.63 170.883 252.327 170.841 252.055 170.806C251.992 170.799 251.926 170.788 251.867 170.778C251.735 170.665 251.595 170.563 251.453 170.471C251.418 170.411 251.387 170.344 251.355 170.281C251.237 170.03 251.111 169.77 250.861 169.674C250.61 169.579 250.349 169.689 250.095 169.798C250.032 169.826 249.966 169.851 249.903 169.872C249.733 169.84 249.558 169.822 249.384 169.812C249.325 169.773 249.266 169.731 249.21 169.685C248.994 169.519 248.768 169.35 248.51 169.371C248.249 169.392 248.054 169.6 247.866 169.801C247.817 169.854 247.765 169.907 247.716 169.953C247.546 169.995 247.379 170.041 247.215 170.097C247.145 170.083 247.072 170.066 246.996 170.045C246.738 169.974 246.47 169.904 246.243 170.023C245.996 170.154 245.892 170.443 245.798 170.697C245.777 170.756 245.752 170.816 245.732 170.873C245.585 170.986 245.453 171.109 245.331 171.232C245.265 171.253 245.199 171.275 245.129 171.292C244.858 171.366 244.576 171.444 244.454 171.68C244.307 171.958 244.443 172.265 244.562 172.536C244.579 172.579 244.596 172.617 244.614 172.66C244.607 172.734 244.603 172.808 244.607 172.882C244.485 173.35 244.419 173.869 244.419 174.443C244.419 178.916 248.601 182.912 248.601 188.707C248.601 188.707 251.874 188.093 253.887 191.755C255.488 188.284 259.225 188.707 259.225 188.707C260.182 181.591 263.01 178.778 263.055 174.524C263.055 174.376 263.052 174.232 263.041 174.087H263.055C263.069 173.985 263.076 173.886 263.079 173.788C263.111 173.735 263.146 173.682 263.18 173.629C263.341 173.389 263.508 173.139 263.438 172.868L263.442 172.871ZM263.045 173.192C263.02 173.047 262.985 172.91 262.937 172.772C263.02 172.829 263.086 172.892 263.104 172.956C263.121 173.019 263.09 173.1 263.045 173.188V173.192Z" fill="#F9F8F4"/>
<path d="M260.917 187.589C262.198 187.251 262.526 188.33 261.279 188.777C261.613 190.074 260.548 190.405 260.106 189.144C258.824 189.482 258.497 188.404 259.744 187.956C259.409 186.662 260.475 186.328 260.917 187.589Z" fill="#DBC5A0"/>
<path d="M260.882 188.122C261.018 188.33 260.959 188.608 260.753 188.745C260.548 188.879 260.273 188.823 260.137 188.615C260.005 188.407 260.06 188.129 260.266 187.991C260.471 187.857 260.746 187.914 260.879 188.122H260.882Z" fill="#DBC5A0"/>
<path d="M260.652 188.217C260.736 188.294 260.739 188.425 260.663 188.509C260.586 188.594 260.457 188.597 260.374 188.516C260.29 188.439 260.287 188.308 260.363 188.224C260.44 188.139 260.569 188.136 260.652 188.217Z" fill="#FF7CAD"/>
<path d="M248.475 187.547C249.652 187.945 249.363 188.964 248.159 188.668C247.769 189.859 246.759 189.567 247.051 188.347C245.874 187.949 246.163 186.93 247.368 187.226C247.762 186.035 248.768 186.328 248.475 187.547Z" fill="#FF7CAD"/>
<path d="M248.18 187.945C248.18 188.178 247.995 188.368 247.765 188.368C247.535 188.368 247.347 188.182 247.347 187.945C247.347 187.709 247.535 187.522 247.765 187.522C247.995 187.522 248.18 187.713 248.18 187.945Z" fill="#FF7CAD"/>
<path d="M248.075 187.843C248.075 187.981 247.964 188.09 247.831 188.09C247.699 188.09 247.588 187.981 247.588 187.843C247.588 187.706 247.699 187.596 247.831 187.596C247.964 187.596 248.075 187.706 248.075 187.843Z" fill="#F8EDD7"/>
<path d="M249.294 190.021C248.966 191.396 247.81 191.167 248.019 189.768C246.661 189.436 246.888 188.266 248.27 188.478C248.597 187.103 249.757 187.336 249.544 188.731C250.902 189.063 250.676 190.233 249.294 190.021Z" fill="#DBC5A0"/>
<path d="M248.824 189.722C248.566 189.743 248.34 189.549 248.315 189.288C248.294 189.027 248.486 188.798 248.744 188.777C249.001 188.756 249.228 188.95 249.252 189.211C249.273 189.471 249.081 189.701 248.824 189.725V189.722Z" fill="#DBC5A0"/>
<path d="M248.852 189.454C248.74 189.493 248.618 189.429 248.58 189.316C248.542 189.204 248.604 189.08 248.716 189.042C248.827 189.003 248.949 189.066 248.987 189.179C249.026 189.292 248.963 189.415 248.852 189.454Z" fill="#FF7CAD"/>
<path d="M260.224 188.795C261.401 189.193 261.112 190.212 259.907 189.916C259.517 191.107 258.507 190.814 258.8 189.595C257.623 189.197 257.912 188.178 259.117 188.474C259.51 187.283 260.517 187.575 260.224 188.795Z" fill="#FF7CAD"/>
<path d="M259.928 189.197C259.928 189.429 259.744 189.62 259.514 189.62C259.284 189.62 259.096 189.433 259.096 189.197C259.096 188.96 259.284 188.774 259.514 188.774C259.744 188.774 259.928 188.964 259.928 189.197Z" fill="#FF7CAD"/>
<path d="M259.824 189.091C259.824 189.228 259.712 189.338 259.58 189.338C259.448 189.338 259.336 189.225 259.336 189.091C259.336 188.957 259.448 188.844 259.58 188.844C259.712 188.844 259.824 188.953 259.824 189.091Z" fill="#F8EDD7"/>
<path d="M257.532 188.735C259.381 188.227 259.869 189.789 258.069 190.451C258.567 192.323 257.028 192.816 256.373 190.994C254.524 191.498 254.036 189.937 255.837 189.278C255.335 187.406 256.878 186.913 257.532 188.735Z" fill="#DBC5A0"/>
<path d="M257.487 189.507C257.682 189.806 257.602 190.212 257.306 190.409C257.01 190.606 256.61 190.525 256.415 190.226C256.22 189.926 256.3 189.521 256.596 189.323C256.892 189.126 257.289 189.207 257.487 189.507Z" fill="#DBC5A0"/>
<path d="M257.153 189.648C257.271 189.76 257.278 189.947 257.17 190.071C257.059 190.19 256.874 190.198 256.752 190.085C256.634 189.972 256.627 189.785 256.735 189.662C256.846 189.542 257.031 189.535 257.153 189.644V189.648Z" fill="#FF7CAD"/>
<path d="M251.616 189.292C253.302 189.859 252.891 191.318 251.16 190.899C250.6 192.605 249.154 192.185 249.572 190.441C247.887 189.873 248.301 188.411 250.028 188.834C250.589 187.128 252.034 187.547 251.616 189.295V189.292Z" fill="#FF7CAD"/>
<path d="M251.191 189.866C251.191 190.201 250.927 190.469 250.596 190.469C250.265 190.469 250.001 190.198 250.001 189.866C250.001 189.535 250.269 189.264 250.596 189.264C250.923 189.264 251.191 189.535 251.191 189.866Z" fill="#FF7CAD"/>
<path d="M251.042 189.718C251.042 189.916 250.885 190.074 250.69 190.074C250.495 190.074 250.338 189.916 250.338 189.718C250.338 189.521 250.495 189.362 250.69 189.362C250.885 189.362 251.042 189.521 251.042 189.718Z" fill="#F8EDD7"/>
<path d="M253.006 189.88C254.287 189.542 254.614 190.62 253.368 191.068C253.702 192.365 252.637 192.696 252.194 191.435C250.913 191.773 250.586 190.694 251.832 190.247C251.498 188.953 252.563 188.619 253.006 189.88Z" fill="#DBC5A0"/>
<path d="M252.971 190.409C253.107 190.617 253.047 190.895 252.842 191.033C252.637 191.167 252.362 191.11 252.226 190.902C252.093 190.694 252.149 190.416 252.355 190.279C252.56 190.145 252.835 190.201 252.967 190.409H252.971Z" fill="#DBC5A0"/>
<path d="M252.738 190.508C252.821 190.585 252.825 190.716 252.748 190.8C252.671 190.881 252.543 190.888 252.459 190.807C252.375 190.73 252.372 190.599 252.449 190.515C252.525 190.43 252.654 190.427 252.738 190.508Z" fill="#FF7CAD"/>
<path d="M255.899 193.454C256.296 194.561 255.391 194.938 254.9 193.87C253.807 194.275 253.434 193.355 254.489 192.862C254.092 191.755 254.997 191.378 255.488 192.446C256.582 192.044 256.954 192.961 255.899 193.454Z" fill="#DBC5A0"/>
<path d="M255.436 193.468C255.269 193.606 255.022 193.574 254.889 193.405C254.754 193.236 254.785 192.985 254.952 192.851C255.119 192.714 255.367 192.746 255.499 192.915C255.635 193.084 255.603 193.334 255.436 193.468Z" fill="#DBC5A0"/>
<path d="M256.819 196.098C257.066 196.933 256.376 197.172 256.063 196.362C255.238 196.609 255.001 195.914 255.802 195.597C255.558 194.762 256.244 194.522 256.557 195.333C257.383 195.086 257.619 195.78 256.819 196.101V196.098Z" fill="#FF7CAD"/>
<path d="M256.477 196.083C256.345 196.175 256.164 196.143 256.073 196.013C255.983 195.879 256.014 195.696 256.147 195.604C256.275 195.512 256.456 195.544 256.55 195.678C256.644 195.812 256.61 195.992 256.481 196.087L256.477 196.083Z" fill="#FF7CAD"/>
<path d="M256.718 200.39C257.47 201.462 256.634 202.202 255.798 201.204C254.775 202.036 254.103 201.162 255.06 200.242C254.308 199.171 255.144 198.434 255.979 199.428C257.003 198.596 257.675 199.47 256.718 200.39Z" fill="#DBC5A0"/>
<path d="M256.237 200.567C256.101 200.775 255.833 200.831 255.642 200.693C255.45 200.552 255.405 200.271 255.541 200.063C255.676 199.855 255.941 199.798 256.136 199.939C256.331 200.08 256.376 200.362 256.241 200.57L256.237 200.567Z" fill="#DBC5A0"/>
<path d="M253.309 197.363C253.552 198.198 252.866 198.438 252.553 197.627C251.728 197.874 251.491 197.18 252.292 196.862C252.048 196.027 252.734 195.787 253.047 196.598C253.873 196.351 254.11 197.046 253.309 197.366V197.363Z" fill="#FF7CAD"/>
<path d="M252.967 197.349C252.835 197.44 252.654 197.409 252.563 197.278C252.473 197.144 252.504 196.965 252.637 196.869C252.765 196.778 252.947 196.809 253.041 196.94C253.131 197.074 253.1 197.254 252.971 197.349H252.967Z" fill="#FF7CAD"/>
<path d="M256.192 200.39C256.154 200.563 255.983 200.669 255.812 200.626C255.645 200.584 255.537 200.415 255.579 200.242C255.617 200.07 255.788 199.964 255.959 200.006C256.126 200.045 256.234 200.218 256.192 200.39Z" fill="#FF7CAD"/>
<path d="M253.162 203.936C252.818 204.761 252.093 204.535 252.368 203.686C251.526 203.379 251.787 202.674 252.654 202.907C252.999 202.082 253.723 202.311 253.448 203.157C254.291 203.464 254.029 204.169 253.162 203.936Z" fill="#DBC5A0"/>
<path d="M252.887 203.717C252.72 203.71 252.591 203.576 252.602 203.411C252.612 203.249 252.758 203.122 252.929 203.125C253.096 203.129 253.225 203.266 253.215 203.428C253.204 203.591 253.058 203.721 252.891 203.714L252.887 203.717Z" fill="#DBC5A0"/>
<path d="M252.974 203.629C252.863 203.668 252.741 203.605 252.703 203.492C252.664 203.379 252.727 203.256 252.839 203.217C252.95 203.178 253.072 203.242 253.11 203.354C253.148 203.467 253.086 203.591 252.974 203.629Z" fill="#FF7CAD"/>
<path d="M255.307 193.243C255.262 193.306 255.175 193.32 255.112 193.274C255.05 193.229 255.036 193.14 255.084 193.077C255.13 193.014 255.217 192.999 255.279 193.045C255.342 193.091 255.356 193.179 255.307 193.243Z" fill="#FF7CAD"/>
<path d="M256.502 195.89C256.477 195.995 256.373 196.062 256.265 196.038C256.16 196.013 256.094 195.904 256.119 195.798C256.143 195.692 256.248 195.625 256.355 195.65C256.46 195.675 256.526 195.784 256.502 195.89Z" fill="#F8EDD7"/>
<path d="M252.901 197.134C252.877 197.239 252.772 197.306 252.664 197.282C252.56 197.257 252.494 197.148 252.518 197.042C252.543 196.936 252.647 196.869 252.755 196.894C252.859 196.919 252.926 197.024 252.901 197.134Z" fill="#F8EDD7"/>
<path d="M255.29 190.85C256.634 191.304 256.307 192.467 254.928 192.132C254.479 193.496 253.326 193.162 253.66 191.766C252.313 191.311 252.644 190.145 254.022 190.483C254.472 189.119 255.624 189.454 255.29 190.85Z" fill="#FF7CAD"/>
<path d="M254.952 191.308C254.952 191.576 254.74 191.791 254.475 191.791C254.211 191.791 253.998 191.576 253.998 191.308C253.998 191.04 254.211 190.825 254.475 190.825C254.74 190.825 254.952 191.04 254.952 191.308Z" fill="#FF7CAD"/>
<path d="M254.83 191.188C254.83 191.343 254.705 191.473 254.548 191.473C254.392 191.473 254.266 191.347 254.266 191.188C254.266 191.029 254.392 190.902 254.548 190.902C254.705 190.902 254.83 191.029 254.83 191.188Z" fill="#F8EDD7"/>
</g>
</g>
<path d="M135.104 236.345H132.582L132.568 235.285H134.858C135.237 235.285 135.567 235.221 135.85 235.094C136.132 234.966 136.351 234.784 136.506 234.547C136.665 234.305 136.745 234.018 136.745 233.686C136.745 233.321 136.674 233.025 136.533 232.797C136.396 232.564 136.185 232.396 135.897 232.291C135.615 232.182 135.255 232.127 134.817 232.127H132.876V241H131.557V231.047H134.817C135.328 231.047 135.784 231.099 136.185 231.204C136.586 231.304 136.925 231.464 137.203 231.683C137.486 231.897 137.7 232.17 137.846 232.503C137.992 232.836 138.064 233.234 138.064 233.699C138.064 234.109 137.96 234.481 137.75 234.813C137.54 235.142 137.249 235.41 136.875 235.62C136.506 235.83 136.073 235.964 135.576 236.023L135.104 236.345ZM135.043 241H132.062L132.808 239.927H135.043C135.462 239.927 135.818 239.854 136.109 239.708C136.406 239.562 136.631 239.357 136.786 239.093C136.941 238.824 137.019 238.507 137.019 238.143C137.019 237.773 136.952 237.454 136.82 237.186C136.688 236.917 136.481 236.709 136.198 236.563C135.916 236.418 135.551 236.345 135.104 236.345H133.225L133.238 235.285H135.809L136.089 235.668C136.567 235.709 136.973 235.846 137.306 236.078C137.638 236.306 137.891 236.598 138.064 236.953C138.242 237.309 138.331 237.701 138.331 238.129C138.331 238.749 138.194 239.273 137.921 239.701C137.652 240.125 137.271 240.449 136.779 240.672C136.287 240.891 135.708 241 135.043 241ZM141.353 234.766V241H140.088V233.604H141.318L141.353 234.766ZM143.663 233.562L143.656 234.738C143.551 234.715 143.451 234.702 143.355 234.697C143.264 234.688 143.16 234.684 143.041 234.684C142.749 234.684 142.492 234.729 142.269 234.82C142.045 234.911 141.856 235.039 141.701 235.203C141.546 235.367 141.423 235.563 141.332 235.791C141.245 236.014 141.188 236.26 141.161 236.529L140.806 236.734C140.806 236.288 140.849 235.868 140.936 235.477C141.027 235.085 141.166 234.738 141.353 234.438C141.539 234.132 141.776 233.895 142.063 233.727C142.355 233.553 142.701 233.467 143.103 233.467C143.194 233.467 143.299 233.478 143.417 233.501C143.535 233.519 143.618 233.54 143.663 233.562ZM146.206 233.604V241H144.935V233.604H146.206ZM144.839 231.642C144.839 231.437 144.9 231.263 145.023 231.122C145.151 230.981 145.338 230.91 145.584 230.91C145.826 230.91 146.01 230.981 146.138 231.122C146.27 231.263 146.336 231.437 146.336 231.642C146.336 231.838 146.27 232.006 146.138 232.147C146.01 232.284 145.826 232.353 145.584 232.353C145.338 232.353 145.151 232.284 145.023 232.147C144.9 232.006 144.839 231.838 144.839 231.642ZM152.898 239.564V230.5H154.17V241H153.008L152.898 239.564ZM147.922 237.384V237.24C147.922 236.675 147.99 236.162 148.127 235.702C148.268 235.237 148.466 234.839 148.722 234.506C148.981 234.173 149.289 233.918 149.645 233.74C150.005 233.558 150.406 233.467 150.848 233.467C151.312 233.467 151.718 233.549 152.064 233.713C152.415 233.872 152.712 234.107 152.953 234.417C153.199 234.722 153.393 235.091 153.534 235.524C153.675 235.957 153.773 236.447 153.828 236.994V237.623C153.778 238.165 153.68 238.653 153.534 239.086C153.393 239.519 153.199 239.888 152.953 240.193C152.712 240.499 152.415 240.733 152.064 240.897C151.714 241.057 151.303 241.137 150.834 241.137C150.401 241.137 150.005 241.043 149.645 240.856C149.289 240.67 148.981 240.408 148.722 240.07C148.466 239.733 148.268 239.337 148.127 238.881C147.99 238.421 147.922 237.922 147.922 237.384ZM149.193 237.24V237.384C149.193 237.753 149.23 238.099 149.303 238.423C149.38 238.746 149.499 239.031 149.658 239.277C149.818 239.523 150.021 239.717 150.267 239.858C150.513 239.995 150.807 240.063 151.148 240.063C151.568 240.063 151.912 239.975 152.181 239.797C152.454 239.619 152.673 239.384 152.837 239.093C153.001 238.801 153.129 238.484 153.22 238.143V236.495C153.165 236.244 153.085 236.003 152.98 235.771C152.88 235.534 152.748 235.324 152.584 235.142C152.424 234.955 152.226 234.807 151.989 234.697C151.757 234.588 151.481 234.533 151.162 234.533C150.816 234.533 150.517 234.606 150.267 234.752C150.021 234.893 149.818 235.089 149.658 235.34C149.499 235.586 149.38 235.873 149.303 236.201C149.23 236.525 149.193 236.871 149.193 237.24ZM159.208 241.137C158.693 241.137 158.226 241.05 157.807 240.877C157.392 240.699 157.034 240.451 156.733 240.132C156.437 239.813 156.209 239.435 156.05 238.997C155.89 238.56 155.811 238.081 155.811 237.562V237.274C155.811 236.673 155.899 236.137 156.077 235.668C156.255 235.194 156.496 234.793 156.802 234.465C157.107 234.137 157.453 233.888 157.841 233.72C158.228 233.551 158.629 233.467 159.044 233.467C159.573 233.467 160.028 233.558 160.411 233.74C160.799 233.923 161.115 234.178 161.361 234.506C161.607 234.829 161.79 235.212 161.908 235.654C162.027 236.092 162.086 236.57 162.086 237.09V237.657H156.562V236.625H160.821V236.529C160.803 236.201 160.735 235.882 160.616 235.572C160.502 235.262 160.32 235.007 160.069 234.807C159.819 234.606 159.477 234.506 159.044 234.506C158.757 234.506 158.493 234.567 158.251 234.69C158.009 234.809 157.802 234.987 157.629 235.224C157.456 235.461 157.321 235.75 157.226 236.092C157.13 236.434 157.082 236.828 157.082 237.274V237.562C157.082 237.912 157.13 238.243 157.226 238.553C157.326 238.858 157.469 239.127 157.656 239.359C157.848 239.592 158.078 239.774 158.347 239.906C158.62 240.038 158.93 240.104 159.276 240.104C159.723 240.104 160.101 240.013 160.411 239.831C160.721 239.649 160.992 239.405 161.225 239.1L161.99 239.708C161.831 239.95 161.628 240.18 161.382 240.398C161.136 240.617 160.833 240.795 160.473 240.932C160.117 241.068 159.696 241.137 159.208 241.137Z" fill="white"/>
<rect x="110" y="232" width="11" height="10" rx="5" fill="#F15B6A"/>
<g filter="url(#filter0_d_143_4071)">
<path d="M21 149C21 108.131 54.1309 75 95 75C135.869 75 169 108.131 169 149V223H95C54.1309 223 21 189.869 21 149Z" fill="#F15B6A"/>
<g clip-path="url(#clip1_143_4071)">
<path d="M134.852 172.141L125.816 176.942C125.816 176.942 115.366 148.982 112.197 136.725C113.108 126.139 113.73 116.988 113.73 116.988C113.606 116.979 113.478 116.965 113.341 116.946C113.616 116.913 117.539 116.513 118.378 118.396C119.241 120.34 129.374 167.434 134.852 172.146V172.141ZM132.789 171.237C132.789 170.602 132.272 170.089 131.631 170.089C130.991 170.089 130.479 170.602 130.479 171.237C130.479 171.873 130.996 172.386 131.631 172.386C132.267 172.386 132.789 171.873 132.789 171.237Z" fill="white"/>
<path d="M131.631 170.089C132.272 170.089 132.789 170.602 132.789 171.237C132.789 171.873 132.272 172.386 131.631 172.386C130.991 172.386 130.479 171.873 130.479 171.237C130.479 170.602 130.996 170.089 131.631 170.089Z" fill="#4E2045"/>
<path d="M109.418 162.299L114.835 181.861L96.098 165.984L96.0885 165.885L96.4632 164.233L96.8712 158.359C97.0087 158.839 97.4546 159.187 97.9859 159.187C98.6215 159.187 99.1386 158.674 99.1386 158.039C99.1386 157.403 98.6215 156.895 97.9859 156.895C97.5163 156.895 97.1084 157.173 96.9281 157.577L97.2317 153.266C97.4309 153.44 97.6965 153.543 97.9859 153.543C98.6215 153.543 99.1386 153.03 99.1386 152.395C99.1386 151.759 98.6215 151.246 97.9859 151.246C97.7535 151.246 97.5353 151.312 97.3598 151.43L97.6159 147.754C97.7345 147.791 97.8578 147.815 97.9906 147.815C98.6263 147.815 99.1433 147.302 99.1433 146.666C99.1433 146.031 98.6263 145.518 97.9906 145.518C97.9195 145.518 97.8436 145.527 97.7772 145.541L97.9906 142.435L97.9337 140.947L107.814 132.832C107.814 132.832 106.776 130.728 105.76 127.735L108.635 125.951C108.635 125.951 109.56 120.246 107.791 115.115C109.422 115.812 111.761 116.715 113.345 116.941H113.331C113.331 116.941 111.799 126.431 111.31 131.627C111.23 132.484 111.571 134.296 112.202 136.72C111.419 145.824 110.419 155.986 109.422 162.299H109.418ZM99.1386 164.172C99.1386 163.537 98.6215 163.023 97.9859 163.023C97.3503 163.023 96.8285 163.537 96.8285 164.172C96.8285 164.807 97.3455 165.321 97.9859 165.321C98.6263 165.321 99.1386 164.807 99.1386 164.172Z" fill="white"/>
<path d="M114.835 181.861L109.176 191.657C109.176 191.657 106.007 189.077 100.823 187.853L95.932 166.634L96.0933 165.984L114.83 181.861H114.835Z" fill="white"/>
<path d="M113.341 116.946C113.473 116.97 113.601 116.984 113.73 116.988C113.73 116.988 113.103 126.139 112.197 136.725C111.571 134.301 111.225 132.489 111.306 131.632C111.794 126.435 113.326 116.946 113.326 116.946H113.341Z" fill="white"/>
<path d="M109.176 191.656L103.83 200.911L100.827 187.853C106.012 189.077 109.181 191.656 109.181 191.656H109.176Z" fill="white"/>
<path d="M107.786 115.12C109.551 120.25 108.63 125.955 108.63 125.955L105.756 127.739C105.523 127.047 105.286 126.304 105.068 125.532C105.068 125.532 104.271 125.941 103.27 126.69C105.082 120.834 105.993 114.767 103.929 110.973C103.873 110.822 103.778 110.629 103.635 110.403C106.401 112.926 105.893 114.268 105.893 114.268C105.893 114.268 106.676 114.644 107.786 115.115V115.12Z" fill="#714D6A"/>
<path d="M107.805 132.837L97.9243 140.952L97.8864 139.888C98.4319 138.787 99.0627 137.464 99.7173 135.996C100.528 134.169 101.382 132.122 102.165 129.975L105.756 127.739C106.766 130.733 107.81 132.837 107.81 132.837H107.805Z" fill="#714D6A"/>
<path d="M105.893 114.272C105.893 114.272 106.401 112.931 103.635 110.408C103.517 110.22 103.351 110.012 103.137 109.801C103.128 109.791 103.123 109.777 103.114 109.772C101.909 108.356 100.097 107.424 97.4974 107.184C97.4737 107.184 97.4452 107.174 97.4215 107.169C103.512 107.617 106.429 111.203 107.781 115.12C106.671 114.649 105.889 114.272 105.889 114.272H105.893Z" fill="#714D6A"/>
<path d="M105.756 127.739L102.165 129.975C102.554 128.897 102.933 127.796 103.27 126.69C104.271 125.941 105.068 125.532 105.068 125.532C105.286 126.308 105.519 127.047 105.756 127.739Z" fill="#714D6A"/>
<path d="M103.934 110.973C105.998 114.767 105.082 120.829 103.275 126.69C101.904 127.716 100.163 129.387 99.594 131.51L99.5751 131.585L99.5039 131.627C101.847 124.138 102.587 118.928 102.431 115.303L104.02 111.279V111.269C104.02 111.269 104.005 111.156 103.934 110.968V110.973Z" fill="#4E2045"/>
<path d="M104.02 111.274V111.283C104.02 111.283 104.001 111.307 103.986 111.335C103.839 111.571 103.232 112.517 102.25 113.397C101.814 110.521 100.718 108.944 99.5656 108.087C100.078 108.191 100.528 108.323 100.932 108.469C101.534 108.775 102.146 109.165 102.763 109.655C103.038 109.876 103.284 110.088 103.517 110.29C103.669 110.507 103.811 110.737 103.939 110.973C104.01 111.161 104.024 111.274 104.024 111.274H104.02Z" fill="#CECBC1"/>
<path d="M104.02 111.283L102.431 115.308C102.407 114.705 102.359 114.15 102.293 113.637C102.891 113.077 103.469 112.328 103.991 111.335C104.005 111.312 104.015 111.293 104.02 111.283Z" fill="#F9F8F4"/>
<path d="M103.635 110.408C103.782 110.634 103.873 110.827 103.929 110.977C103.806 110.737 103.664 110.511 103.507 110.295C103.55 110.333 103.593 110.37 103.631 110.413L103.635 110.408Z" fill="#CECBC1"/>
<path d="M103.635 110.408C103.597 110.37 103.555 110.333 103.512 110.29C103.393 110.121 103.27 109.956 103.137 109.801C103.351 110.013 103.512 110.22 103.635 110.408Z" fill="#CECBC1"/>
<path d="M103.142 109.801C103.275 109.956 103.398 110.121 103.517 110.29C103.289 110.088 103.038 109.871 102.763 109.655C102.151 109.161 101.534 108.775 100.932 108.469C101.966 108.84 102.654 109.321 103.114 109.777C103.123 109.787 103.133 109.796 103.137 109.805L103.142 109.801Z" fill="#CECBC1"/>
<path d="M102.255 113.397C103.237 112.517 103.844 111.571 103.991 111.335C103.469 112.333 102.891 113.082 102.293 113.637C102.284 113.552 102.269 113.472 102.255 113.392V113.397Z" fill="#F9F8F4"/>
<path d="M103.114 109.772C102.653 109.316 101.966 108.836 100.932 108.464C100.258 108.125 99.6034 107.88 98.9915 107.715C98.465 107.428 97.948 107.268 97.5021 107.184C100.097 107.424 101.914 108.356 103.118 109.772H103.114Z" fill="#4E2045"/>
<path d="M99.5939 131.51C100.158 129.382 101.904 127.711 103.275 126.69C102.933 127.801 102.559 128.897 102.17 129.975L99.5797 131.585L99.5987 131.51H99.5939Z" fill="#4E2045"/>
<path d="M102.431 115.308C102.582 118.932 101.847 124.143 99.5039 131.632L99.575 131.59L99.3094 132.588L97.6871 119.21C97.6871 119.21 98.4366 117.073 98.707 115.929L101.601 117.431L102.435 115.308H102.431Z" fill="#F4F4F4"/>
<path d="M102.431 115.308L101.596 117.431L98.7022 115.929C98.7829 115.576 98.8208 115.322 98.7781 115.247C98.503 115.43 97.6492 115.176 96.9803 114.927V114.894C98.1615 115.223 100.334 115.454 102.293 113.637C102.364 114.15 102.412 114.705 102.431 115.308Z" fill="#F9F8F4"/>
<path d="M102.255 113.397C102.269 113.477 102.279 113.557 102.293 113.642C100.334 115.459 98.1615 115.228 96.9756 114.898V114.861C97.8342 115.068 99.2003 115.214 100.543 114.569C101.202 114.258 101.771 113.839 102.255 113.397Z" fill="#F9F8F4"/>
<path d="M99.5751 131.59L102.165 129.98C101.382 132.126 100.529 134.174 99.7174 135.995L99.3047 132.592L99.5703 131.594L99.5751 131.59Z" fill="#4E2045"/>
<path d="M102.255 113.397C101.771 113.835 101.202 114.254 100.543 114.569C99.205 115.209 97.8342 115.063 96.9756 114.861L96.7147 107.791C97.8247 107.814 98.7686 107.923 99.5656 108.087C100.718 108.944 101.819 110.521 102.25 113.397H102.255Z" fill="#CECBC1"/>
<path d="M95.9367 166.634L100.827 187.853C98.1093 187.213 94.8315 186.945 91.1696 187.613L95.6948 167.622L95.9367 166.629V166.634Z" fill="#554D51"/>
<path d="M99.3094 132.588L99.7221 135.991V135.995L97.8864 139.719L97.8247 138.17L99.3094 132.588Z" fill="#FC7CAD"/>
<path d="M97.8864 139.719L99.7221 136C99.0627 137.469 98.4366 138.791 97.8911 139.893V139.723L97.8864 139.719Z" fill="#4E2045"/>
<path d="M100.932 108.464C100.528 108.318 100.078 108.191 99.5655 108.083C99.371 107.941 99.1766 107.819 98.9868 107.711C99.5987 107.876 100.258 108.12 100.927 108.459L100.932 108.464Z" fill="#4E2045"/>
<path d="M97.6823 119.21L99.3093 132.588L97.8246 138.17L97.1321 119.21H97.6823Z" fill="#FC7CAD"/>
<path d="M98.9916 107.715C99.1813 107.819 99.3758 107.941 99.5703 108.087C98.7687 107.923 97.8294 107.814 96.7195 107.791L96.71 107.485C96.71 107.485 96.4301 107.419 95.9463 107.391C96.6436 107.353 97.7298 107.377 98.9963 107.715H98.9916Z" fill="#4E2045"/>
<path d="M97.9812 145.523C98.6168 145.523 99.1338 146.036 99.1338 146.671C99.1338 147.307 98.6168 147.82 97.9812 147.82C97.8484 147.82 97.725 147.796 97.6064 147.758L97.763 145.546C97.8341 145.532 97.9053 145.523 97.9764 145.523H97.9812Z" fill="#4E2045"/>
<path d="M97.9813 151.251C98.6169 151.251 99.1339 151.764 99.1339 152.4C99.1339 153.035 98.6169 153.548 97.9813 153.548C97.6872 153.548 97.4263 153.445 97.2271 153.27L97.3551 151.439C97.5354 151.322 97.7488 151.256 97.9813 151.256V151.251Z" fill="#4E2045"/>
<path d="M97.9812 156.9C98.6168 156.9 99.1338 157.413 99.1338 158.043C99.1338 158.674 98.6168 159.192 97.9812 159.192C97.4499 159.192 97.0088 158.839 96.8665 158.363L96.9234 157.582C97.1036 157.182 97.5116 156.9 97.9812 156.9Z" fill="#4E2045"/>
<path d="M97.9813 163.023C98.6169 163.023 99.1339 163.537 99.1339 164.172C99.1339 164.807 98.6169 165.32 97.9813 165.32C97.3456 165.32 96.8239 164.807 96.8239 164.172C96.8239 163.537 97.3409 163.023 97.9813 163.023Z" fill="#4E2045"/>
<path d="M98.7781 115.247C98.8161 115.322 98.7781 115.576 98.7022 115.929L96.9851 115.03V114.927C97.6539 115.176 98.5078 115.43 98.7829 115.247H98.7781Z" fill="#F9F8F4"/>
<path d="M96.9803 115.03L98.6975 115.929C98.4271 117.073 97.6776 119.21 97.6776 119.21H97.1274L96.9756 115.03H96.9803Z" fill="#FC7CAD"/>
<path d="M97.929 140.952L97.9859 142.439L97.7725 145.546C97.2365 145.645 96.8285 146.111 96.8285 146.671L96.691 146.662L96.857 143.339H96.098L96.1217 143.291C96.2071 143.136 96.506 142.6 96.9376 141.757L97.929 140.947V140.952Z" fill="#E2DDD9"/>
<path d="M97.8863 139.888L97.9243 140.952L96.9329 141.762C97.2032 141.244 97.5258 140.613 97.8816 139.884L97.8863 139.888Z" fill="#714D6A"/>
<path d="M97.8864 139.719V139.888C97.5306 140.618 97.2128 141.249 96.9424 141.766L96.8571 141.837L96.876 141.776L97.8864 139.723V139.719Z" fill="#4E2045"/>
<path d="M97.8247 138.17L97.8863 139.719L96.8712 141.771L97.8247 138.17Z" fill="#FC7CAD"/>
<path d="M97.1321 119.21L97.8247 138.17L96.8712 141.771L96.1218 143.296L96.0933 143.343L95.4387 119.21H97.1321Z" fill="#FC7CAD"/>
<path d="M97.7677 145.546L97.6112 147.758C97.1558 147.608 96.8285 147.179 96.8285 146.671C96.8285 146.111 97.2317 145.64 97.7724 145.546H97.7677Z" fill="#4E2045"/>
<path d="M97.6113 147.758L97.3551 151.435C97.0373 151.637 96.8238 151.995 96.8238 152.4C96.8238 152.748 96.9804 153.059 97.227 153.27L96.9234 157.582C96.8618 157.723 96.8238 157.879 96.8238 158.048C96.8238 158.161 96.8381 158.265 96.8665 158.368L96.4586 164.243L96.0839 165.895L95.8467 163.216L96.6815 146.671L96.8191 146.681C96.8191 147.189 97.1464 147.617 97.6018 147.768L97.6113 147.758Z" fill="#E2DDD9"/>
<path d="M97.5021 107.184C97.948 107.268 98.465 107.428 98.9915 107.715C97.7298 107.377 96.6388 107.348 95.9415 107.391C95.2869 107.353 94.267 107.377 93.0812 107.725C93.6883 107.419 94.2765 107.259 94.7746 107.179C94.7841 107.179 94.7888 107.179 94.7983 107.179C95.007 107.16 95.2157 107.146 95.4339 107.141C95.6474 107.132 95.8703 107.127 96.098 107.127C96.3257 107.127 96.5487 107.127 96.7621 107.141C97.0183 107.151 97.2602 107.165 97.5021 107.193V107.184Z" fill="#4E2045"/>
<path d="M97.3551 151.435L97.227 153.266C96.9804 153.054 96.8239 152.743 96.8239 152.395C96.8239 151.995 97.0373 151.632 97.3551 151.43V151.435Z" fill="#4E2045"/>
<path d="M96.9803 115.03L97.1321 119.21H95.4387L95.3248 114.964L96.0316 114.593L96.0458 114.583L96.0743 114.569C96.0743 114.569 96.0743 114.569 96.0838 114.569C96.0933 114.569 96.1028 114.578 96.1122 114.583L96.1265 114.593L96.9661 115.026L96.9803 115.03Z" fill="#FC7CAD"/>
<path d="M97.4072 107.165C97.1938 107.151 96.9803 107.137 96.7621 107.132C96.5487 107.122 96.3257 107.118 96.098 107.118C96.098 107.118 96.6435 107.033 97.4072 107.165Z" fill="#714D6A"/>
<path d="M96.9804 114.927V115.03L96.1455 114.597C96.1597 114.597 96.1787 114.611 96.2024 114.621C96.2688 114.654 96.3685 114.696 96.4965 114.743C96.5202 114.753 96.5487 114.762 96.5724 114.771C96.691 114.823 96.8333 114.875 96.9804 114.931V114.927Z" fill="#F9F8F4"/>
<path d="M96.9756 114.894V114.927C96.8333 114.87 96.691 114.818 96.5724 114.767C96.691 114.804 96.8238 114.851 96.9756 114.894Z" fill="#F9F8F4"/>
<path d="M96.9756 114.856V114.894C96.8238 114.851 96.6862 114.809 96.5724 114.767C96.5487 114.757 96.5202 114.743 96.4965 114.738C96.3731 114.687 96.2735 114.644 96.2024 114.616C96.1929 114.607 96.1787 114.602 96.1644 114.597C96.2925 114.649 96.5819 114.757 96.9803 114.856H96.9756Z" fill="#F9F8F4"/>
<path d="M96.7147 107.786L96.9756 114.856C96.5771 114.757 96.2878 114.649 96.1597 114.597C96.136 114.588 96.117 114.578 96.1028 114.574C96.1028 114.574 96.0996 114.574 96.0933 114.574H96.0838H96.0743C95.97 114.611 95.8609 114.658 95.7613 114.691C95.7043 114.71 95.6427 114.729 95.5715 114.753C95.4956 114.776 95.415 114.8 95.3249 114.823L95.1304 107.81C95.4861 107.791 95.8561 107.781 96.2498 107.781C96.4111 107.781 96.5676 107.781 96.7194 107.791L96.7147 107.786Z" fill="#CECBC1"/>
<path d="M96.857 141.832L96.9423 141.762C96.5059 142.604 96.2118 143.136 96.1265 143.296L96.8807 141.771L96.8617 141.832H96.857Z" fill="#4E2045"/>
<path d="M96.9235 157.582L96.8665 158.363C96.8381 158.26 96.8239 158.156 96.8239 158.043C96.8239 157.879 96.8618 157.723 96.9235 157.577V157.582Z" fill="#4E2045"/>
<path d="M96.8571 143.343L96.6863 146.666L95.8514 163.212L96.0886 165.885L96.0554 166.022L95.842 166.215L95.3818 164.233L96.0934 143.343H96.8571Z" fill="#EAE7E3"/>
<path d="M96.7052 107.485L96.7146 107.791C96.5628 107.781 96.4063 107.781 96.245 107.781C95.8561 107.781 95.4813 107.791 95.1256 107.81L95.1161 107.485C95.1161 107.485 95.4197 107.419 95.9367 107.391C96.4205 107.419 96.7004 107.485 96.7004 107.485H96.7052Z" fill="#4E2045"/>
<path d="M96.4917 114.738C96.3637 114.691 96.264 114.649 96.1976 114.616C96.2688 114.644 96.3684 114.687 96.4917 114.738Z" fill="#F9F8F4"/>
<path d="M96.1977 114.616C96.1977 114.616 96.1597 114.597 96.1407 114.593L96.1265 114.583L96.1028 114.569C96.1028 114.569 96.1312 114.583 96.1597 114.593C96.1692 114.593 96.1834 114.602 96.1977 114.611V114.616Z" fill="#F9F8F4"/>
<path d="M96.1265 114.588C96.1265 114.588 96.1028 114.578 96.098 114.574H96.1075L96.1312 114.588H96.1265Z" fill="#FC7CAD"/>
<path d="M95.4387 119.21L96.0933 143.343L96.0886 143.334L96.0696 143.296L96.0649 143.287L95.3202 141.776L93.0291 133.148L94.4948 119.21H95.4387Z" fill="#FC7CAD"/>
<path d="M96.0886 143.334L96.098 143.343L95.3865 164.233L95.8419 166.21L94.8126 167.128L94.0916 164.831L95.7138 142.637C95.8941 142.971 96.0127 143.193 96.0696 143.287V143.296C96.0696 143.296 96.0886 143.324 96.0933 143.334H96.0886Z" fill="#A4907C"/>
<path d="M96.0885 165.885L96.0932 165.984L96.0553 166.022L96.0885 165.885Z" fill="#DAC0A5"/>
<path d="M96.0933 165.984L95.9367 166.634L95.9272 166.591L96.0553 166.022L96.0933 165.984Z" fill="#DAC0A5"/>
<path d="M96.0933 107.118C95.8656 107.118 95.6427 107.118 95.4292 107.132C95.249 107.132 95.0735 107.141 94.9027 107.155C95.6095 107.052 96.0933 107.118 96.0933 107.118Z" fill="#714D6A"/>
<path d="M96.0744 114.574L96.0459 114.588C96.0459 114.588 96.0696 114.578 96.0744 114.574Z" fill="#F9F8F4"/>
<path d="M96.0743 114.574C96.0743 114.574 96.0553 114.583 96.0458 114.588C95.9937 114.607 95.894 114.644 95.7612 114.691C95.8656 114.654 95.9699 114.611 96.0743 114.574Z" fill="#4E2045"/>
<path d="M95.3201 141.776L96.0696 143.291C96.0126 143.197 95.894 142.976 95.7138 142.642C95.5905 142.407 95.4339 142.115 95.2584 141.771L95.3343 141.837L95.3201 141.78V141.776Z" fill="#4E2045"/>
<path d="M96.0554 166.022L95.9273 166.591L95.8419 166.215L96.0554 166.022Z" fill="#DAC0A5"/>
<path d="M96.0458 114.588L96.0316 114.597C95.9178 114.654 95.6616 114.771 95.3248 114.894V114.833C95.4055 114.814 95.4909 114.785 95.5715 114.757C95.6426 114.734 95.7043 114.715 95.7612 114.696C95.894 114.649 95.9937 114.611 96.0458 114.592V114.588Z" fill="#F9F8F4"/>
<path d="M96.0316 114.592L95.3248 114.964V114.894C95.6616 114.771 95.9178 114.649 96.0316 114.597V114.592Z" fill="#F9F8F4"/>
<path d="M95.9273 166.591L95.9367 166.634L95.6948 167.627L95.9273 166.591Z" fill="#A4907C"/>
<path d="M95.8418 166.215L95.9272 166.591L95.6948 167.627L95.3722 168.931L94.8125 167.133L95.8418 166.215Z" fill="#A4907C"/>
<path d="M93.0812 107.72C94.2671 107.372 95.2917 107.348 95.9415 107.386C95.4245 107.414 95.1209 107.48 95.1209 107.48L95.1304 107.805C93.9967 107.866 93.048 108.021 92.2511 108.233C92.5262 108.026 92.8061 107.857 93.0812 107.72Z" fill="#4E2045"/>
<path d="M95.7138 142.642L94.0916 164.836L94.8126 167.133L78.329 181.861L83.3808 162.299C82.5364 156.565 81.6921 147.65 80.9948 139.243C82.0479 135.558 82.6835 132.762 82.5744 131.627C82.0906 126.431 80.5537 116.941 80.5537 116.941C80.5537 116.941 80.326 116.913 79.9702 116.899C81.2462 116.654 82.9444 115.981 84.3152 115.379C82.6693 120.439 83.561 125.955 83.561 125.955L86.4356 127.739C85.4252 130.733 84.3817 132.837 84.3817 132.837L95.2537 141.766C95.4292 142.11 95.5858 142.402 95.7091 142.637L95.7138 142.642Z" fill="white"/>
<path d="M95.3723 168.931L95.6949 167.627L91.1696 187.618C88.5796 188.089 85.7905 189.035 82.8637 190.649L78.329 181.866L94.8126 167.137L95.377 168.936L95.3723 168.931Z" fill="white"/>
<path d="M95.3249 114.964L95.4387 119.21H94.4948C94.4948 119.21 93.6931 117.346 93.4655 115.929L95.3296 114.964H95.3249Z" fill="#FC7CAD"/>
<path d="M95.3201 114.823C95.4102 114.8 95.4908 114.776 95.5667 114.753C95.4813 114.781 95.4007 114.809 95.3201 114.828V114.818V114.823Z" fill="#F9F8F4"/>
<path d="M95.3201 141.776L95.3343 141.832L95.2584 141.766C94.6228 140.547 93.6931 138.693 92.6827 136.461L95.3201 141.771V141.776Z" fill="#4E2045"/>
<path d="M95.3201 114.889V114.96L93.4607 115.925C93.418 115.68 93.3895 115.444 93.3895 115.242C94.0584 115.28 94.7889 115.077 95.3154 114.889H95.3201Z" fill="#F9F8F4"/>
<path d="M95.3201 114.828V114.889C94.7888 115.082 94.0583 115.28 93.3942 115.242C93.3942 115.449 93.4179 115.68 93.4654 115.925L90.5813 117.426L89.4144 114.456C89.4476 114.037 89.4998 113.642 89.5662 113.27C90.7284 114.47 92.621 115.619 95.3248 114.828H95.3201Z" fill="#F9F8F4"/>
<path d="M95.3201 114.823V114.833C92.6163 115.628 90.7189 114.475 89.5615 113.275C89.571 113.213 89.5805 113.152 89.5947 113.091C90.1402 113.632 90.8233 114.183 91.6344 114.569C93.0385 115.237 94.4758 115.049 95.3201 114.828V114.823Z" fill="#F9F8F4"/>
<path d="M95.1256 107.81L95.3201 114.823C94.471 115.049 93.0385 115.237 91.6344 114.564C90.8233 114.178 90.1355 113.628 89.5947 113.086C90.0596 110.549 91.1221 109.081 92.2511 108.233C93.048 108.021 94.0014 107.866 95.1304 107.805L95.1256 107.81Z" fill="#CECBC1"/>
<path d="M95.3201 141.776L92.6827 136.466L93.029 133.148L95.3201 141.776Z" fill="#FC7CAD"/>
<path d="M95.2538 141.766L84.3817 132.837C84.3817 132.837 85.4205 130.733 86.4356 127.739L90.0265 129.97C90.8755 132.305 91.81 134.522 92.6828 136.462C93.6884 138.693 94.6229 140.547 95.2585 141.766H95.2538Z" fill="#714D6A"/>
<path d="M94.9026 107.155C94.8647 107.155 94.8315 107.165 94.7983 107.169C94.7888 107.169 94.784 107.169 94.7746 107.169C91.5016 107.452 89.4571 108.822 88.3045 110.874C86.2458 113.096 86.6632 114.263 86.6632 114.263C86.6632 114.263 85.6434 114.785 84.3152 115.374C85.6339 111.335 88.5796 107.574 94.9026 107.155Z" fill="#714D6A"/>
<path d="M94.4947 119.21L93.029 133.148L92.6163 131.59L92.6874 131.632C89.8414 123.536 89.0872 118.099 89.4097 114.461L90.5766 117.431L93.4606 115.929C93.6883 117.341 94.49 119.21 94.49 119.21H94.4947Z" fill="#F4F4F4"/>
<path d="M94.7746 107.174C94.2765 107.254 93.6883 107.414 93.0811 107.72C92.3839 107.923 91.6296 108.238 90.8565 108.718C90.8565 108.718 90.847 108.718 90.847 108.727C89.3006 109.415 88.6223 110.318 88.3377 110.846C88.3282 110.855 88.3139 110.869 88.3092 110.879C89.4571 108.826 91.5016 107.457 94.7793 107.174H94.7746Z" fill="#4E2045"/>
<path d="M92.6163 131.59L93.029 133.148L92.6827 136.466C91.8052 134.527 90.8707 132.305 90.0264 129.975L92.6163 131.59Z" fill="#4E2045"/>
<path d="M92.6875 131.632L92.6164 131.59L92.5974 131.514C92.0329 129.387 90.2873 127.716 88.9117 126.694C87.0902 120.792 86.1795 114.673 88.2998 110.883C88.3093 110.874 88.3188 110.86 88.3283 110.85C88.1907 111.109 88.148 111.279 88.148 111.279C88.148 111.279 88.148 111.279 88.1575 111.293L89.405 114.461C89.0825 118.099 89.8367 123.536 92.6828 131.632H92.6875Z" fill="#4E2045"/>
<path d="M92.6163 131.59L90.0264 129.975C89.6326 128.897 89.2579 127.8 88.9164 126.694C90.2872 127.72 92.0328 129.391 92.6021 131.514L92.621 131.59H92.6163Z" fill="#4E2045"/>
<path d="M93.0812 107.72C92.806 107.857 92.5262 108.026 92.251 108.233C91.7198 108.37 91.2597 108.539 90.8612 108.713C91.6296 108.233 92.3886 107.918 93.0859 107.715L93.0812 107.72Z" fill="#4E2045"/>
<path d="M91.1648 187.618L88.1527 200.911L82.859 190.649C85.781 189.035 88.5702 188.089 91.1648 187.618Z" fill="white"/>
<path d="M90.8565 108.718C91.2597 108.539 91.7198 108.374 92.2463 108.238C91.1174 109.081 90.0548 110.554 89.59 113.091C88.7836 112.291 88.2903 111.509 88.1717 111.321C88.1717 111.312 88.1622 111.298 88.1574 111.293C88.1574 111.283 88.1479 111.279 88.1479 111.279C88.1479 111.279 88.1859 111.114 88.3282 110.85C88.6697 110.479 89.0824 110.083 89.5757 109.66C89.9979 109.297 90.4153 108.991 90.8375 108.732L90.847 108.723L90.8565 108.718Z" fill="#CECBC1"/>
<path d="M90.0264 129.97L86.4355 127.739C86.668 127.047 86.9004 126.304 87.1186 125.532C87.1186 125.532 87.9155 125.941 88.9164 126.69C89.2579 127.8 89.6327 128.897 90.0264 129.97Z" fill="#714D6A"/>
<path d="M90.8471 108.727C90.4249 108.986 90.0075 109.292 89.5853 109.655C89.092 110.078 88.6793 110.479 88.3378 110.846C88.6176 110.318 89.296 109.415 90.8471 108.727Z" fill="#CECBC1"/>
<path d="M89.5947 113.086C89.5805 113.147 89.571 113.209 89.5615 113.27C88.7266 112.408 88.2713 111.519 88.1764 111.316C88.295 111.505 88.7883 112.281 89.5947 113.086Z" fill="#F9F8F4"/>
<path d="M89.5616 113.27C89.4952 113.642 89.443 114.037 89.4098 114.456L88.1622 111.288L88.1765 111.316C88.2713 111.519 88.722 112.408 89.5616 113.27Z" fill="#F9F8F4"/>
<path d="M88.1765 111.321L88.1622 111.293C88.1622 111.293 88.1717 111.312 88.1765 111.321Z" fill="#F9F8F4"/>
<path d="M88.9164 126.69C87.9155 125.941 87.1186 125.532 87.1186 125.532C86.9004 126.308 86.668 127.047 86.4356 127.739L83.561 125.955C83.561 125.955 82.6692 120.443 84.3152 115.379C85.6434 114.79 86.6632 114.268 86.6632 114.268C86.6632 114.268 86.2411 113.096 88.3045 110.879C86.1794 114.668 87.0902 120.782 88.9164 126.69Z" fill="#714D6A"/>
<path d="M82.5791 131.632C82.6835 132.766 82.0526 135.562 80.9996 139.248C80.0414 127.64 79.3678 116.988 79.3678 116.988C79.5528 116.974 79.7568 116.946 79.975 116.904C80.3307 116.918 80.5584 116.946 80.5584 116.946C80.5584 116.946 82.0906 126.435 82.5791 131.632Z" fill="white"/>
<path d="M79.363 116.988C79.363 116.988 80.0366 127.64 80.9948 139.248C77.2332 152.433 68.0688 176.947 68.0688 176.947L59.0325 172.141C64.5112 167.434 74.6385 120.34 75.5066 118.396C76.1754 116.899 78.7891 116.847 79.9702 116.904C79.7567 116.946 79.548 116.974 79.363 116.988ZM63.5435 171.237C63.5435 170.602 63.0265 170.089 62.3909 170.089C61.7552 170.089 61.2334 170.602 61.2334 171.237C61.2334 171.873 61.7505 172.386 62.3909 172.386C63.0312 172.386 63.5435 171.873 63.5435 171.237Z" fill="white"/>
<path d="M62.3909 170.089C63.0266 170.089 63.5436 170.602 63.5436 171.237C63.5436 171.873 63.0266 172.386 62.3909 172.386C61.7553 172.386 61.2335 171.873 61.2335 171.237C61.2335 170.602 61.7506 170.089 62.3909 170.089Z" fill="#4E2045"/>
</g>
</g>
<defs>
<filter id="filter0_d_143_4071" x="11" y="69" width="168" height="168" filterUnits="userSpaceOnUse" color-interpolation-filters="sRGB">
<feFlood flood-opacity="0" result="BackgroundImageFix"/>
<feColorMatrix in="SourceAlpha" type="matrix" values="0 0 0 0 0 0 0 0 0 0 0 0 0 0 0 0 0 0 127 0" result="hardAlpha"/>
<feOffset dy="4"/>
<feGaussianBlur stdDeviation="5"/>
<feComposite in2="hardAlpha" operator="out"/>
<feColorMatrix type="matrix" values="0 0 0 0 0 0 0 0 0 0 0 0 0 0 0 0 0 0 0.25 0"/>
<feBlend mode="normal" in2="BackgroundImageFix" result="effect1_dropShadow_143_4071"/>
<feBlend mode="normal" in="SourceGraphic" in2="effect1_dropShadow_143_4071" result="shape"/>
</filter>
<linearGradient id="paint0_linear_143_4071" x1="211.838" y1="109.956" x2="200.412" y2="277" gradientUnits="userSpaceOnUse">
<stop stop-color="white"/>
<stop offset="1" stop-color="white"/>
</linearGradient>
<clipPath id="clip0_143_4071">
<rect width="66" height="96" fill="white" transform="translate(220.942 164)"/>
</clipPath>
<clipPath id="clip1_143_4071">
<rect width="76" height="94" fill="white" transform="translate(58.9424 107)"/>
</clipPath>
</defs>
</svg>
