<svg width="22" height="20" viewBox="0 0 22 20" fill="none" xmlns="http://www.w3.org/2000/svg">
<path d="M2 16V7C2 6.46957 2.21071 5.96086 2.58579 5.58579C2.96086 5.21071 3.46957 5 4 5H4.93C5.25918 5.00005 5.58329 4.91884 5.87357 4.76359C6.16384 4.60834 6.4113 4.38383 6.594 4.11L7.406 2.89C7.5887 2.61617 7.83616 2.39166 8.12643 2.23641C8.41671 2.08116 8.74082 1.99995 9.07 2H12.93C13.2592 1.99995 13.5833 2.08116 13.8736 2.23641C14.1638 2.39166 14.4113 2.61617 14.594 2.89L15.406 4.11C15.5887 4.38383 15.8362 4.60834 16.1264 4.76359C16.4167 4.91884 16.7408 5.00005 17.07 5H18C18.5304 5 19.0391 5.21071 19.4142 5.58579C19.7893 5.96086 20 6.46957 20 7V16C20 16.5304 19.7893 17.0391 19.4142 17.4142C19.0391 17.7893 18.5304 18 18 18H4C3.46957 18 2.96086 17.7893 2.58579 17.4142C2.21071 17.0391 2 16.5304 2 16Z" stroke="#F85F5F" stroke-width="3" stroke-linecap="round" stroke-linejoin="round"/>
<path d="M11 14C12.6569 14 14 12.6569 14 11C14 9.34315 12.6569 8 11 8C9.34315 8 8 9.34315 8 11C8 12.6569 9.34315 14 11 14Z" stroke="#F85F5F" stroke-width="3" stroke-linecap="round" stroke-linejoin="round"/>
</svg>
