<svg width="13" height="12" viewBox="0 0 13 12" fill="none" xmlns="http://www.w3.org/2000/svg">
<path d="M6.5 4.5C5.416 4.5 4.5 5.416 4.5 6.5C4.5 7.584 5.416 8.5 6.5 8.5C7.584 8.5 8.5 7.584 8.5 6.5C8.5 5.416 7.584 4.5 6.5 4.5Z" fill="#F85F5F"/>
<path d="M11.3 2.33333H9.7484L8.1242 0.679056C8.0117 0.564442 7.85912 0.500035 7.7 0.5H5.3C5.14088 0.500035 4.9883 0.564442 4.8758 0.679056L3.2516 2.33333H1.7C1.0382 2.33333 0.5 2.8815 0.5 3.55556V10.2778C0.5 10.9518 1.0382 11.5 1.7 11.5H11.3C11.9618 11.5 12.5 10.9518 12.5 10.2778V3.55556C12.5 2.8815 11.9618 2.33333 11.3 2.33333ZM6.5 9.66667C4.874 9.66667 3.5 8.26722 3.5 6.61111C3.5 4.955 4.874 3.55556 6.5 3.55556C8.126 3.55556 9.5 4.955 9.5 6.61111C9.5 8.26722 8.126 9.66667 6.5 9.66667Z" fill="#F85F5F"/>
</svg>
