<svg width="8" height="14" viewBox="0 0 8 14" fill="none" xmlns="http://www.w3.org/2000/svg">
<path d="M6.35333 6.81715L0.699896 12.4692C0.571905 12.5972 0.5 12.7708 0.5 12.9518C0.5 13.1328 0.571905 13.3064 0.699896 13.4344C0.827888 13.5624 1.00148 13.6343 1.18249 13.6343C1.3635 13.6343 1.53709 13.5624 1.66508 13.4344L7.79975 7.29975C7.86322 7.23643 7.91359 7.16121 7.94795 7.0784C7.98231 6.99559 8 6.90681 8 6.81715C8 6.72749 7.98231 6.63872 7.94795 6.55591C7.91359 6.4731 7.86322 6.39788 7.79975 6.33456L1.66508 0.199897C1.53709 0.0719048 1.3635 0 1.18249 0C1.00148 0 0.827888 0.0719048 0.699896 0.199897C0.571905 0.327888 0.5 0.501483 0.5 0.68249C0.5 0.863498 0.571905 1.03709 0.699896 1.16508L6.35333 6.81715Z" fill="white"/>
</svg>
