<svg width="24" height="24" viewBox="0 0 24 24" fill="none" xmlns="http://www.w3.org/2000/svg">
<path d="M22.7434 1.2565C21.9379 0.451926 20.8459 0 19.7073 0C18.5688 0 17.4768 0.451926 16.6713 1.2565L2.32849 15.5984C1.84072 16.0857 1.49796 16.6989 1.33846 17.3696L0.0244273 22.8918C-0.0111517 23.0414 -0.00781588 23.1975 0.0341167 23.3455C0.0760493 23.4934 0.155181 23.6281 0.263963 23.7368C0.372746 23.8454 0.507553 23.9244 0.655528 23.9662C0.803503 24.0079 0.959712 24.0111 1.10926 23.9753L6.6306 22.6602C7.30178 22.5009 7.91545 22.1581 8.40305 21.6702L22.7434 7.3307C23.548 6.52521 24 5.43328 24 4.2948C24 3.15631 23.548 2.06439 22.7434 1.2589M17.9433 2.53086C18.175 2.29921 18.45 2.11546 18.7527 1.9901C19.0553 1.86473 19.3797 1.80021 19.7073 1.80021C20.035 1.80021 20.3594 1.86473 20.662 1.9901C20.9647 2.11546 21.2397 2.29921 21.4714 2.53086C21.7031 2.7625 21.8868 3.0375 22.0122 3.34016C22.1376 3.64282 22.2021 3.9672 22.2021 4.2948C22.2021 4.62239 22.1376 4.94678 22.0122 5.24944C21.8868 5.55209 21.7031 5.82709 21.4714 6.05874L20.401 7.1255L16.8729 3.59882L17.9433 2.53086ZM15.6008 4.87318L19.1289 8.39866L7.12862 20.3983C6.87661 20.6503 6.5598 20.8266 6.21299 20.9094L2.11368 21.8862L3.08931 17.7871C3.17211 17.4392 3.34972 17.1224 3.60172 16.8704L15.6008 4.87318Z" fill="white"/>
</svg>
