<svg width="69" height="68" viewBox="0 0 69 68" fill="none" xmlns="http://www.w3.org/2000/svg">
<rect x="19.8669" y="13.5167" width="29.2862" height="39.4238" fill="white"/>
<path d="M34.5103 0C15.8474 0 0.718506 15.1289 0.718506 33.7918C0.718506 52.4548 15.8474 67.5836 34.5103 67.5836C53.1733 67.5836 68.3021 52.4548 68.3021 33.7918C68.3021 15.1289 53.1733 0 34.5103 0ZM42.5148 23.3516H37.4354C36.8335 23.3516 36.1647 24.1436 36.1647 25.196V28.8638H42.5183L41.5573 34.0945H36.1647V49.7972H30.1702V34.0945H24.7318V28.8638H30.1702V25.7874C30.1702 21.3733 33.2326 17.7865 37.4354 17.7865H42.5148V23.3516Z" fill="#1877F2"/>
</svg>
