<svg width="68" height="68" viewBox="0 0 68 68" fill="none" xmlns="http://www.w3.org/2000/svg">
<rect x="16.1863" y="13.5166" width="38.2974" height="39.4238" fill="white"/>
<path d="M34.2082 0.281494C15.7028 0.281494 0.697998 15.2863 0.697998 33.7917C0.697998 52.2971 15.7028 67.3019 34.2082 67.3019C52.7136 67.3019 67.7184 52.2971 67.7184 33.7917C67.7184 15.2863 52.7136 0.281494 34.2082 0.281494ZM46.6998 47.6745C43.6629 50.472 39.519 52.1176 34.5747 52.1176C27.4164 52.1176 21.223 48.0111 18.2086 42.0272C16.9669 39.5513 16.2563 36.7538 16.2563 33.7917C16.2563 30.8297 16.9669 28.0321 18.2086 25.5563C21.223 19.5648 27.4164 15.4583 34.5747 15.4583C39.5115 15.4583 43.6554 17.276 46.8344 20.2305L41.5835 25.489C39.6836 23.6713 37.2675 22.7513 34.5822 22.7513C29.81 22.7513 25.7708 25.9752 24.3272 30.3061C23.9607 31.4056 23.7512 32.58 23.7512 33.7917C23.7512 35.0035 23.9607 36.1778 24.3272 37.2774C25.7708 41.6083 29.81 44.8321 34.5747 44.8321C37.0431 44.8321 39.1375 44.1814 40.7756 43.0818C42.7204 41.7803 44.007 39.843 44.4333 37.5467H34.5747V30.4557H51.831C52.0479 31.6599 52.1601 32.9091 52.1601 34.2031C52.1601 39.7906 50.163 44.4806 46.6998 47.6745Z" fill="#EA4335"/>
</svg>
