<svg width="168" height="174" viewBox="0 0 168 174" fill="none" xmlns="http://www.w3.org/2000/svg">
<path d="M124.104 167.345H121.582L121.568 166.285H123.858C124.237 166.285 124.567 166.221 124.85 166.094C125.132 165.966 125.351 165.784 125.506 165.547C125.665 165.305 125.745 165.018 125.745 164.686C125.745 164.321 125.674 164.025 125.533 163.797C125.396 163.564 125.185 163.396 124.897 163.291C124.615 163.182 124.255 163.127 123.817 163.127H121.876V172H120.557V162.047H123.817C124.328 162.047 124.784 162.099 125.185 162.204C125.586 162.304 125.925 162.464 126.203 162.683C126.486 162.897 126.7 163.17 126.846 163.503C126.992 163.836 127.064 164.234 127.064 164.699C127.064 165.109 126.96 165.481 126.75 165.813C126.54 166.142 126.249 166.41 125.875 166.62C125.506 166.83 125.073 166.964 124.576 167.023L124.104 167.345ZM124.043 172H121.062L121.808 170.927H124.043C124.462 170.927 124.818 170.854 125.109 170.708C125.406 170.562 125.631 170.357 125.786 170.093C125.941 169.824 126.019 169.507 126.019 169.143C126.019 168.773 125.952 168.454 125.82 168.186C125.688 167.917 125.481 167.709 125.198 167.563C124.916 167.418 124.551 167.345 124.104 167.345H122.225L122.238 166.285H124.809L125.089 166.668C125.567 166.709 125.973 166.846 126.306 167.078C126.638 167.306 126.891 167.598 127.064 167.953C127.242 168.309 127.331 168.701 127.331 169.129C127.331 169.749 127.194 170.273 126.921 170.701C126.652 171.125 126.271 171.449 125.779 171.672C125.287 171.891 124.708 172 124.043 172ZM130.353 165.766V172H129.088V164.604H130.318L130.353 165.766ZM132.663 164.562L132.656 165.738C132.551 165.715 132.451 165.702 132.355 165.697C132.264 165.688 132.16 165.684 132.041 165.684C131.749 165.684 131.492 165.729 131.269 165.82C131.045 165.911 130.856 166.039 130.701 166.203C130.546 166.367 130.423 166.563 130.332 166.791C130.245 167.014 130.188 167.26 130.161 167.529L129.806 167.734C129.806 167.288 129.849 166.868 129.936 166.477C130.027 166.085 130.166 165.738 130.353 165.438C130.539 165.132 130.776 164.895 131.063 164.727C131.355 164.553 131.701 164.467 132.103 164.467C132.194 164.467 132.299 164.478 132.417 164.501C132.535 164.519 132.618 164.54 132.663 164.562ZM135.206 164.604V172H133.935V164.604H135.206ZM133.839 162.642C133.839 162.437 133.9 162.263 134.023 162.122C134.151 161.981 134.338 161.91 134.584 161.91C134.826 161.91 135.01 161.981 135.138 162.122C135.27 162.263 135.336 162.437 135.336 162.642C135.336 162.838 135.27 163.006 135.138 163.147C135.01 163.284 134.826 163.353 134.584 163.353C134.338 163.353 134.151 163.284 134.023 163.147C133.9 163.006 133.839 162.838 133.839 162.642ZM141.898 170.564V161.5H143.17V172H142.008L141.898 170.564ZM136.922 168.384V168.24C136.922 167.675 136.99 167.162 137.127 166.702C137.268 166.237 137.466 165.839 137.722 165.506C137.981 165.173 138.289 164.918 138.645 164.74C139.005 164.558 139.406 164.467 139.848 164.467C140.312 164.467 140.718 164.549 141.064 164.713C141.415 164.872 141.712 165.107 141.953 165.417C142.199 165.722 142.393 166.091 142.534 166.524C142.675 166.957 142.773 167.447 142.828 167.994V168.623C142.778 169.165 142.68 169.653 142.534 170.086C142.393 170.519 142.199 170.888 141.953 171.193C141.712 171.499 141.415 171.733 141.064 171.897C140.714 172.057 140.303 172.137 139.834 172.137C139.401 172.137 139.005 172.043 138.645 171.856C138.289 171.67 137.981 171.408 137.722 171.07C137.466 170.733 137.268 170.337 137.127 169.881C136.99 169.421 136.922 168.922 136.922 168.384ZM138.193 168.24V168.384C138.193 168.753 138.23 169.099 138.303 169.423C138.38 169.746 138.499 170.031 138.658 170.277C138.818 170.523 139.021 170.717 139.267 170.858C139.513 170.995 139.807 171.063 140.148 171.063C140.568 171.063 140.912 170.975 141.181 170.797C141.454 170.619 141.673 170.384 141.837 170.093C142.001 169.801 142.129 169.484 142.22 169.143V167.495C142.165 167.244 142.085 167.003 141.98 166.771C141.88 166.534 141.748 166.324 141.584 166.142C141.424 165.955 141.226 165.807 140.989 165.697C140.757 165.588 140.481 165.533 140.162 165.533C139.816 165.533 139.517 165.606 139.267 165.752C139.021 165.893 138.818 166.089 138.658 166.34C138.499 166.586 138.38 166.873 138.303 167.201C138.23 167.525 138.193 167.871 138.193 168.24ZM148.208 172.137C147.693 172.137 147.226 172.05 146.807 171.877C146.392 171.699 146.034 171.451 145.733 171.132C145.437 170.813 145.209 170.435 145.05 169.997C144.89 169.56 144.811 169.081 144.811 168.562V168.274C144.811 167.673 144.899 167.137 145.077 166.668C145.255 166.194 145.496 165.793 145.802 165.465C146.107 165.137 146.453 164.888 146.841 164.72C147.228 164.551 147.629 164.467 148.044 164.467C148.573 164.467 149.028 164.558 149.411 164.74C149.799 164.923 150.115 165.178 150.361 165.506C150.607 165.829 150.79 166.212 150.908 166.654C151.027 167.092 151.086 167.57 151.086 168.09V168.657H145.562V167.625H149.821V167.529C149.803 167.201 149.735 166.882 149.616 166.572C149.502 166.262 149.32 166.007 149.069 165.807C148.819 165.606 148.477 165.506 148.044 165.506C147.757 165.506 147.493 165.567 147.251 165.69C147.009 165.809 146.802 165.987 146.629 166.224C146.456 166.461 146.321 166.75 146.226 167.092C146.13 167.434 146.082 167.828 146.082 168.274V168.562C146.082 168.912 146.13 169.243 146.226 169.553C146.326 169.858 146.469 170.127 146.656 170.359C146.848 170.592 147.078 170.774 147.347 170.906C147.62 171.038 147.93 171.104 148.276 171.104C148.723 171.104 149.101 171.013 149.411 170.831C149.721 170.649 149.992 170.405 150.225 170.1L150.99 170.708C150.831 170.95 150.628 171.18 150.382 171.398C150.136 171.617 149.833 171.795 149.473 171.932C149.117 172.068 148.696 172.137 148.208 172.137Z" fill="white"/>
<rect x="99" y="163" width="11" height="10" rx="5" fill="#F85F5F"/>
<g filter="url(#filter0_d_143_3416)">
<path d="M10 80C10 39.1309 43.1309 6 84 6C124.869 6 158 39.1309 158 80V154H84C43.1309 154 10 120.869 10 80Z" fill="#F85F5F"/>
<g clip-path="url(#clip0_143_3416)">
<path d="M123.852 103.141L114.816 107.942C114.816 107.942 104.366 79.9823 101.197 67.7251C102.108 57.1389 102.73 47.9884 102.73 47.9884C102.606 47.979 102.478 47.9649 102.341 47.946C102.616 47.9131 106.539 47.513 107.378 49.3958C108.241 51.3398 118.374 98.434 123.852 103.146V103.141ZM121.789 102.237C121.789 101.602 121.272 101.089 120.631 101.089C119.991 101.089 119.479 101.602 119.479 102.237C119.479 102.873 119.996 103.386 120.631 103.386C121.267 103.386 121.789 102.873 121.789 102.237Z" fill="white"/>
<path d="M120.631 101.089C121.272 101.089 121.789 101.602 121.789 102.237C121.789 102.873 121.272 103.386 120.631 103.386C119.991 103.386 119.479 102.873 119.479 102.237C119.479 101.602 119.996 101.089 120.631 101.089Z" fill="#4E2045"/>
<path d="M98.4177 93.2986L103.835 112.861L85.098 96.9842L85.0885 96.8853L85.4632 95.2332L85.8712 89.3588C86.0087 89.8389 86.4546 90.1872 86.9859 90.1872C87.6215 90.1872 88.1386 89.6741 88.1386 89.0387C88.1386 88.4032 87.6215 87.8949 86.9859 87.8949C86.5163 87.8949 86.1084 88.1726 85.9281 88.5774L86.2317 84.2657C86.4309 84.4399 86.6965 84.5434 86.9859 84.5434C87.6215 84.5434 88.1386 84.0304 88.1386 83.3949C88.1386 82.7595 87.6215 82.2464 86.9859 82.2464C86.7535 82.2464 86.5353 82.3123 86.3598 82.43L86.6159 78.7537C86.7345 78.7914 86.8578 78.8149 86.9906 78.8149C87.6263 78.8149 88.1433 78.3019 88.1433 77.6664C88.1433 77.031 87.6263 76.5179 86.9906 76.5179C86.9195 76.5179 86.8436 76.5273 86.7772 76.5414L86.9906 73.4348L86.9337 71.9473L96.8144 63.8324C96.8144 63.8324 95.7756 61.7283 94.7605 58.7346L97.635 56.9506C97.635 56.9506 98.56 51.2457 96.7907 46.115C98.4224 46.8116 100.761 47.7154 102.345 47.9413H102.331C102.331 47.9413 100.799 57.4308 100.31 62.6274C100.23 63.484 100.571 65.2963 101.202 67.7204C100.419 76.8239 99.4185 86.9864 98.4224 93.2986H98.4177ZM88.1386 95.172C88.1386 94.5365 87.6215 94.0235 86.9859 94.0235C86.3503 94.0235 85.8285 94.5365 85.8285 95.172C85.8285 95.8074 86.3455 96.3205 86.9859 96.3205C87.6263 96.3205 88.1386 95.8074 88.1386 95.172Z" fill="white"/>
<path d="M103.835 112.861L98.1758 122.657C98.1758 122.657 95.0072 120.077 89.8225 118.853L84.932 97.6338L85.0933 96.9842L103.83 112.861H103.835Z" fill="white"/>
<path d="M102.341 47.946C102.473 47.9696 102.601 47.9837 102.73 47.9884C102.73 47.9884 102.103 57.1389 101.197 67.7251C100.571 65.301 100.225 63.4888 100.306 62.6321C100.794 57.4355 102.326 47.946 102.326 47.946H102.341Z" fill="white"/>
<path d="M98.1758 122.656L92.8299 131.911L89.8273 118.853C95.0119 120.077 98.1805 122.656 98.1805 122.656H98.1758Z" fill="white"/>
<path d="M96.7859 46.1197C98.5505 51.2504 97.6303 56.9553 97.6303 56.9553L94.7557 58.7393C94.5233 58.0474 94.2861 57.3036 94.0679 56.5317C94.0679 56.5317 93.271 56.9412 92.2701 57.6896C94.0821 51.834 94.9929 45.7666 92.9295 41.9728C92.8726 41.8221 92.7777 41.6291 92.6354 41.4032C95.4008 43.9262 94.8933 45.2677 94.8933 45.2677C94.8933 45.2677 95.676 45.6443 96.7859 46.115V46.1197Z" fill="#714D6A"/>
<path d="M96.805 63.8371L86.9243 71.952L86.8864 70.8882C87.4319 69.7868 88.0627 68.4641 88.7173 66.9955C89.5285 65.1692 90.3823 63.1216 91.165 60.9752L94.7558 58.7393C95.7661 61.733 96.8097 63.8371 96.8097 63.8371H96.805Z" fill="#714D6A"/>
<path d="M94.8934 45.2724C94.8934 45.2724 95.4009 43.9309 92.6355 41.4079C92.5169 41.2196 92.3509 41.0125 92.1374 40.8007C92.1279 40.7913 92.1232 40.7771 92.1137 40.7724C90.9088 39.3556 89.0968 38.4236 86.4974 38.1836C86.4737 38.1836 86.4452 38.1741 86.4215 38.1694C92.5121 38.6166 95.4294 42.2034 96.7813 46.1197C95.6713 45.649 94.8886 45.2724 94.8886 45.2724H94.8934Z" fill="#714D6A"/>
<path d="M94.7557 58.7393L91.1649 60.9751C91.5539 59.8972 91.9334 58.7958 92.2701 57.6896C93.271 56.9412 94.0679 56.5317 94.0679 56.5317C94.2861 57.3083 94.5186 58.0474 94.7557 58.7393Z" fill="#714D6A"/>
<path d="M92.9343 41.9728C94.9977 45.7667 94.0822 51.8294 92.275 57.6897C90.9041 58.7158 89.1632 60.3868 88.594 62.5097L88.5751 62.585L88.5039 62.6274C90.8472 55.1384 91.5872 49.9277 91.4306 46.3033L93.0197 42.2787V42.2693C93.0197 42.2693 93.0055 42.1564 92.9343 41.9681V41.9728Z" fill="#4E2045"/>
<path d="M93.0197 42.274V42.2834C93.0197 42.2834 93.0007 42.307 92.9865 42.3352C92.8394 42.5706 92.2323 43.5167 91.2504 44.3969C90.814 41.5209 89.7182 39.944 88.5656 39.0873C89.0778 39.1909 89.5285 39.3227 89.9317 39.4686C90.5341 39.7746 91.146 40.1653 91.7627 40.6548C92.0378 40.876 92.2844 41.0878 92.5169 41.2902C92.6687 41.5068 92.811 41.7374 92.939 41.9728C93.0102 42.1611 93.0244 42.274 93.0244 42.274H93.0197Z" fill="#CECBC1"/>
<path d="M93.0196 42.2834L91.4305 46.308C91.4068 45.7055 91.3594 45.15 91.293 44.637C91.8906 44.0768 92.4694 43.3284 92.9911 42.3352C93.0054 42.3117 93.0149 42.2929 93.0196 42.2834Z" fill="#F9F8F4"/>
<path d="M92.6354 41.4079C92.7824 41.6338 92.8726 41.8268 92.9295 41.9774C92.8062 41.7374 92.6639 41.5114 92.5073 41.2949C92.55 41.3326 92.5927 41.3702 92.6307 41.4126L92.6354 41.4079Z" fill="#CECBC1"/>
<path d="M92.6354 41.4079C92.5974 41.3703 92.5548 41.3326 92.5121 41.2903C92.3935 41.1208 92.2701 40.9561 92.1373 40.8007C92.3508 41.0125 92.5121 41.2196 92.6354 41.4079Z" fill="#CECBC1"/>
<path d="M92.1421 40.8007C92.2749 40.9561 92.3983 41.1208 92.5168 41.2903C92.2892 41.0879 92.0377 40.8713 91.7626 40.6548C91.1507 40.1606 90.5341 39.7746 89.9316 39.4686C90.9657 39.8405 91.6535 40.3206 92.1136 40.7772C92.1231 40.7866 92.1326 40.796 92.1374 40.8054L92.1421 40.8007Z" fill="#CECBC1"/>
<path d="M91.2551 44.3969C92.237 43.5167 92.8442 42.5706 92.9912 42.3352C92.4695 43.3331 91.8908 44.0815 91.2931 44.637C91.2836 44.5522 91.2694 44.4722 91.2551 44.3922V44.3969Z" fill="#F9F8F4"/>
<path d="M92.1136 40.7725C91.6535 40.3159 90.9657 39.8358 89.9316 39.4639C89.258 39.125 88.6034 38.8802 87.9915 38.7155C87.465 38.4284 86.948 38.2683 86.5021 38.1836C89.0968 38.4237 90.9135 39.3557 92.1184 40.7725H92.1136Z" fill="#4E2045"/>
<path d="M88.5939 62.5097C89.1584 60.3821 90.904 58.7111 92.2749 57.6896C91.9334 58.8005 91.5586 59.8972 91.1697 60.9752L88.5797 62.585L88.5987 62.5097H88.5939Z" fill="#4E2045"/>
<path d="M91.4306 46.308C91.5824 49.9324 90.8472 55.1431 88.5039 62.6321L88.575 62.5897L88.3094 63.5876L86.6871 50.2101C86.6871 50.2101 87.4366 48.0731 87.707 46.9293L90.6005 48.4309L91.4354 46.308H91.4306Z" fill="#F4F4F4"/>
<path d="M91.4306 46.308L90.5957 48.4309L87.7022 46.9293C87.7829 46.5763 87.8208 46.3221 87.7781 46.2468C87.503 46.4304 86.6492 46.1762 85.9803 45.9267V45.8937C87.1615 46.2232 89.334 46.4539 91.293 44.637C91.3642 45.15 91.4116 45.7055 91.4306 46.308Z" fill="#F9F8F4"/>
<path d="M91.2551 44.3969C91.2693 44.4769 91.2788 44.557 91.293 44.6417C89.334 46.4586 87.1615 46.228 85.9756 45.8985V45.8608C86.8342 46.0679 88.2003 46.2138 89.5427 45.569C90.202 45.2583 90.7712 44.8394 91.2551 44.3969Z" fill="#F9F8F4"/>
<path d="M88.5751 62.5897L91.165 60.9799C90.3823 63.1263 89.5285 65.1738 88.7174 66.9955L88.3047 63.5923L88.5703 62.5944L88.5751 62.5897Z" fill="#4E2045"/>
<path d="M91.2551 44.3969C90.7713 44.8346 90.2021 45.2536 89.5427 45.5689C88.205 46.2091 86.8342 46.0632 85.9756 45.8608L85.7147 38.7908C86.8247 38.8143 87.7686 38.9226 88.5656 39.0873C89.7182 39.944 90.8187 41.5209 91.2504 44.3969H91.2551Z" fill="#CECBC1"/>
<path d="M84.9367 97.6337L89.8273 118.853C87.1093 118.213 83.8315 117.945 80.1696 118.613L84.6948 98.6222L84.9367 97.629V97.6337Z" fill="#554D51"/>
<path d="M88.3094 63.5876L88.7221 66.9908V66.9955L86.8864 70.7188L86.8247 69.1702L88.3094 63.5876Z" fill="#FC7CAD"/>
<path d="M86.8864 70.7188L88.7221 67.0002C88.0627 68.4688 87.4366 69.7915 86.8911 70.893V70.7235L86.8864 70.7188Z" fill="#4E2045"/>
<path d="M89.9316 39.4639C89.5284 39.318 89.0778 39.1909 88.5655 39.0826C88.371 38.9414 88.1766 38.819 87.9868 38.7108C88.5987 38.8755 89.2581 39.1203 89.9269 39.4592L89.9316 39.4639Z" fill="#4E2045"/>
<path d="M86.6823 50.2101L88.3093 63.5876L86.8246 69.1702L86.1321 50.2101H86.6823Z" fill="#FC7CAD"/>
<path d="M87.9916 38.7154C88.1813 38.819 88.3758 38.9414 88.5703 39.0873C87.7687 38.9226 86.8294 38.8143 85.7195 38.7908L85.71 38.4848C85.71 38.4848 85.4301 38.4189 84.9463 38.3907C85.6436 38.353 86.7298 38.3765 87.9963 38.7154H87.9916Z" fill="#4E2045"/>
<path d="M86.9812 76.5226C87.6168 76.5226 88.1338 77.0357 88.1338 77.6711C88.1338 78.3066 87.6168 78.8196 86.9812 78.8196C86.8484 78.8196 86.725 78.7961 86.6064 78.7584L86.763 76.5461C86.8341 76.532 86.9053 76.5226 86.9764 76.5226H86.9812Z" fill="#4E2045"/>
<path d="M86.9813 82.2511C87.6169 82.2511 88.1339 82.7641 88.1339 83.3996C88.1339 84.035 87.6169 84.5481 86.9813 84.5481C86.6872 84.5481 86.4263 84.4446 86.2271 84.2704L86.3551 82.4394C86.5354 82.3217 86.7488 82.2558 86.9813 82.2558V82.2511Z" fill="#4E2045"/>
<path d="M86.9812 87.8995C87.6168 87.8995 88.1338 88.4126 88.1338 89.0434C88.1338 89.6741 87.6168 90.1919 86.9812 90.1919C86.4499 90.1919 86.0088 89.8388 85.8665 89.3634L85.9234 88.5821C86.1036 88.182 86.5116 87.8995 86.9812 87.8995Z" fill="#4E2045"/>
<path d="M86.9813 94.0234C87.6169 94.0234 88.1339 94.5365 88.1339 95.172C88.1339 95.8074 87.6169 96.3205 86.9813 96.3205C86.3456 96.3205 85.8239 95.8074 85.8239 95.172C85.8239 94.5365 86.3409 94.0234 86.9813 94.0234Z" fill="#4E2045"/>
<path d="M87.7781 46.2468C87.8161 46.3221 87.7781 46.5763 87.7022 46.9293L85.9851 46.0303V45.9267C86.6539 46.1762 87.5078 46.4304 87.7829 46.2468H87.7781Z" fill="#F9F8F4"/>
<path d="M85.9803 46.0303L87.6975 46.9293C87.4271 48.0731 86.6776 50.2101 86.6776 50.2101H86.1274L85.9756 46.0303H85.9803Z" fill="#FC7CAD"/>
<path d="M86.929 71.952L86.9859 73.4395L86.7725 76.5461C86.2365 76.645 85.8285 77.111 85.8285 77.6711L85.691 77.6617L85.857 74.3385H85.098L85.1217 74.2914C85.2071 74.1361 85.506 73.5995 85.9376 72.7569L86.929 71.9473V71.952Z" fill="#E2DDD9"/>
<path d="M86.8863 70.8882L86.9243 71.952L85.9329 72.7616C86.2032 72.2439 86.5258 71.6131 86.8816 70.8835L86.8863 70.8882Z" fill="#714D6A"/>
<path d="M86.8864 70.7188V70.8882C86.5306 71.6178 86.2128 72.2486 85.9424 72.7664L85.8571 72.837L85.876 72.7758L86.8864 70.7235V70.7188Z" fill="#4E2045"/>
<path d="M86.8247 69.1702L86.8863 70.7188L85.8712 72.7711L86.8247 69.1702Z" fill="#FC7CAD"/>
<path d="M86.1321 50.2101L86.8247 69.1702L85.8712 72.7711L85.1218 74.2962L85.0933 74.3432L84.4387 50.2101H86.1321Z" fill="#FC7CAD"/>
<path d="M86.7677 76.5461L86.6112 78.7584C86.1558 78.6078 85.8285 78.1795 85.8285 77.6711C85.8285 77.111 86.2317 76.6403 86.7724 76.5461H86.7677Z" fill="#4E2045"/>
<path d="M86.6113 78.7584L86.3551 82.4347C86.0373 82.6371 85.8238 82.9948 85.8238 83.3996C85.8238 83.7479 85.9804 84.0586 86.227 84.2704L85.9234 88.5821C85.8618 88.7233 85.8238 88.8786 85.8238 89.0481C85.8238 89.161 85.8381 89.2646 85.8665 89.3682L85.4586 95.2426L85.0839 96.8948L84.8467 94.2164L85.6815 77.6711L85.8191 77.6805C85.8191 78.1889 86.1464 78.6172 86.6018 78.7679L86.6113 78.7584Z" fill="#E2DDD9"/>
<path d="M86.5021 38.1836C86.948 38.2683 87.465 38.4283 87.9915 38.7155C86.7298 38.3765 85.6388 38.3483 84.9415 38.3907C84.2869 38.353 83.267 38.3765 82.0812 38.7249C82.6883 38.4189 83.2765 38.2589 83.7746 38.1789C83.7841 38.1789 83.7888 38.1789 83.7983 38.1789C84.007 38.16 84.2157 38.1459 84.4339 38.1412C84.6474 38.1318 84.8703 38.1271 85.098 38.1271C85.3257 38.1271 85.5487 38.1271 85.7621 38.1412C86.0183 38.1506 86.2602 38.1647 86.5021 38.193V38.1836Z" fill="#4E2045"/>
<path d="M86.3551 82.4346L86.227 84.2657C85.9804 84.0539 85.8239 83.7432 85.8239 83.3949C85.8239 82.9948 86.0373 82.6323 86.3551 82.4299V82.4346Z" fill="#4E2045"/>
<path d="M85.9803 46.0303L86.1321 50.2101H84.4387L84.3248 45.9644L85.0316 45.5925L85.0458 45.5831L85.0743 45.569C85.0743 45.569 85.0743 45.569 85.0838 45.569C85.0933 45.569 85.1028 45.5784 85.1122 45.5831L85.1265 45.5925L85.9661 46.0256L85.9803 46.0303Z" fill="#FC7CAD"/>
<path d="M86.4072 38.1648C86.1938 38.1506 85.9803 38.1365 85.7621 38.1318C85.5487 38.1224 85.3257 38.1177 85.098 38.1177C85.098 38.1177 85.6435 38.033 86.4072 38.1648Z" fill="#714D6A"/>
<path d="M85.9804 45.9267V46.0302L85.1455 45.5972C85.1597 45.5972 85.1787 45.6113 85.2024 45.6207C85.2688 45.6537 85.3685 45.696 85.4965 45.7431C85.5202 45.7525 85.5487 45.7619 85.5724 45.7713C85.691 45.8231 85.8333 45.8749 85.9804 45.9314V45.9267Z" fill="#F9F8F4"/>
<path d="M85.9756 45.8938V45.9267C85.8333 45.8702 85.691 45.8184 85.5724 45.7667C85.691 45.8043 85.8238 45.8514 85.9756 45.8938Z" fill="#F9F8F4"/>
<path d="M85.9756 45.8561V45.8937C85.8238 45.8513 85.6862 45.809 85.5724 45.7666C85.5487 45.7572 85.5202 45.7431 85.4965 45.7384C85.3731 45.6866 85.2735 45.6442 85.2024 45.616C85.1929 45.6066 85.1787 45.6019 85.1644 45.5972C85.2925 45.6489 85.5819 45.7572 85.9803 45.8561H85.9756Z" fill="#F9F8F4"/>
<path d="M85.7147 38.7861L85.9756 45.8561C85.5771 45.7572 85.2878 45.649 85.1597 45.5972C85.136 45.5878 85.117 45.5784 85.1028 45.5737C85.1028 45.5737 85.0996 45.5737 85.0933 45.5737H85.0838H85.0743C84.97 45.6113 84.8609 45.6584 84.7613 45.6913C84.7043 45.7102 84.6427 45.729 84.5715 45.7525C84.4956 45.7761 84.415 45.7996 84.3249 45.8231L84.1304 38.8096C84.4861 38.7908 84.8561 38.7814 85.2498 38.7814C85.4111 38.7814 85.5676 38.7814 85.7194 38.7908L85.7147 38.7861Z" fill="#CECBC1"/>
<path d="M85.857 72.8323L85.9423 72.7617C85.5059 73.6042 85.2118 74.1361 85.1265 74.2962L85.8807 72.7711L85.8617 72.8323H85.857Z" fill="#4E2045"/>
<path d="M85.9235 88.5821L85.8665 89.3634C85.8381 89.2599 85.8239 89.1563 85.8239 89.0434C85.8239 88.8786 85.8618 88.7233 85.9235 88.5774V88.5821Z" fill="#4E2045"/>
<path d="M85.8571 74.3432L85.6863 77.6664L84.8514 94.2117L85.0886 96.8853L85.0554 97.0218L84.842 97.2148L84.3818 95.2331L85.0934 74.3432H85.8571Z" fill="#EAE7E3"/>
<path d="M85.7052 38.4848L85.7146 38.7908C85.5628 38.7814 85.4063 38.7814 85.245 38.7814C84.8561 38.7814 84.4813 38.7908 84.1256 38.8096L84.1161 38.4848C84.1161 38.4848 84.4197 38.4189 84.9367 38.3907C85.4205 38.4189 85.7004 38.4848 85.7004 38.4848H85.7052Z" fill="#4E2045"/>
<path d="M85.4917 45.7384C85.3637 45.6913 85.264 45.649 85.1976 45.616C85.2688 45.6443 85.3684 45.6866 85.4917 45.7384Z" fill="#F9F8F4"/>
<path d="M85.1977 45.616C85.1977 45.616 85.1597 45.5972 85.1407 45.5925L85.1265 45.5831L85.1028 45.569C85.1028 45.569 85.1312 45.5831 85.1597 45.5925C85.1692 45.5925 85.1834 45.6019 85.1977 45.6113V45.616Z" fill="#F9F8F4"/>
<path d="M85.1265 45.5878C85.1265 45.5878 85.1028 45.5784 85.098 45.5737H85.1075L85.1312 45.5878H85.1265Z" fill="#FC7CAD"/>
<path d="M84.4387 50.2101L85.0933 74.3432L85.0886 74.3338L85.0696 74.2962L85.0649 74.2868L84.3202 72.7758L82.0291 64.1477L83.4948 50.2101H84.4387Z" fill="#FC7CAD"/>
<path d="M85.0886 74.3338L85.098 74.3432L84.3865 95.2331L84.8419 97.2101L83.8126 98.128L83.0916 95.8309L84.7138 73.6371C84.8941 73.9713 85.0127 74.1926 85.0696 74.2867V74.2961C85.0696 74.2961 85.0886 74.3244 85.0933 74.3338H85.0886Z" fill="#A4907C"/>
<path d="M85.0885 96.8853L85.0932 96.9842L85.0553 97.0218L85.0885 96.8853Z" fill="#DAC0A5"/>
<path d="M85.0933 96.9842L84.9367 97.6338L84.9272 97.5914L85.0553 97.0218L85.0933 96.9842Z" fill="#DAC0A5"/>
<path d="M85.0933 38.1177C84.8656 38.1177 84.6427 38.1177 84.4292 38.1318C84.249 38.1318 84.0735 38.1412 83.9027 38.1553C84.6095 38.0518 85.0933 38.1177 85.0933 38.1177Z" fill="#714D6A"/>
<path d="M85.0744 45.5737L85.0459 45.5878C85.0459 45.5878 85.0696 45.5784 85.0744 45.5737Z" fill="#F9F8F4"/>
<path d="M85.0743 45.5737C85.0743 45.5737 85.0553 45.5831 85.0458 45.5878C84.9937 45.6066 84.894 45.6443 84.7612 45.6913C84.8656 45.6537 84.9699 45.6113 85.0743 45.5737Z" fill="#4E2045"/>
<path d="M84.3201 72.7758L85.0696 74.2914C85.0126 74.1973 84.894 73.9761 84.7138 73.6419C84.5905 73.4065 84.4339 73.1147 84.2584 72.7711L84.3343 72.837L84.3201 72.7805V72.7758Z" fill="#4E2045"/>
<path d="M85.0554 97.0218L84.9273 97.5914L84.8419 97.2148L85.0554 97.0218Z" fill="#DAC0A5"/>
<path d="M85.0458 45.5878L85.0316 45.5972C84.9178 45.6537 84.6616 45.7713 84.3248 45.8937V45.8325C84.4055 45.8137 84.4909 45.7855 84.5715 45.7572C84.6426 45.7337 84.7043 45.7149 84.7612 45.696C84.894 45.649 84.9937 45.6113 85.0458 45.5925V45.5878Z" fill="#F9F8F4"/>
<path d="M85.0316 45.5925L84.3248 45.9643V45.8937C84.6616 45.7713 84.9178 45.649 85.0316 45.5972V45.5925Z" fill="#F9F8F4"/>
<path d="M84.9273 97.5914L84.9367 97.6338L84.6948 98.627L84.9273 97.5914Z" fill="#A4907C"/>
<path d="M84.8418 97.2148L84.9272 97.5914L84.6948 98.6269L84.3722 99.9308L83.8125 98.1327L84.8418 97.2148Z" fill="#A4907C"/>
<path d="M82.0812 38.7202C83.2671 38.3719 84.2917 38.3483 84.9415 38.386C84.4245 38.4142 84.1209 38.4801 84.1209 38.4801L84.1304 38.8049C82.9967 38.8661 82.048 39.0214 81.2511 39.2333C81.5262 39.0262 81.8061 38.8567 82.0812 38.7202Z" fill="#4E2045"/>
<path d="M84.7138 73.6418L83.0916 95.8356L83.8126 98.1327L67.329 112.861L72.3808 93.2985C71.5364 87.5653 70.6921 78.6502 69.9948 70.2433C71.0479 66.5577 71.6835 63.7617 71.5744 62.6273C71.0906 57.4307 69.5537 47.9413 69.5537 47.9413C69.5537 47.9413 69.326 47.913 68.9702 47.8989C70.2462 47.6542 71.9444 46.981 73.3152 46.3785C71.6693 51.4386 72.561 56.9553 72.561 56.9553L75.4356 58.7393C74.4252 61.733 73.3817 63.837 73.3817 63.837L84.2537 72.7663C84.4292 73.1099 84.5858 73.4018 84.7091 73.6371L84.7138 73.6418Z" fill="white"/>
<path d="M84.3723 99.9308L84.6949 98.627L80.1696 118.618C77.5796 119.089 74.7905 120.035 71.8637 121.649L67.329 112.866L83.8126 98.1374L84.377 99.9355L84.3723 99.9308Z" fill="white"/>
<path d="M84.3249 45.9644L84.4387 50.2101H83.4948C83.4948 50.2101 82.6931 48.3461 82.4655 46.9293L84.3296 45.9644H84.3249Z" fill="#FC7CAD"/>
<path d="M84.3201 45.8231C84.4102 45.7996 84.4908 45.776 84.5667 45.7525C84.4813 45.7807 84.4007 45.809 84.3201 45.8278V45.8184V45.8231Z" fill="#F9F8F4"/>
<path d="M84.3201 72.7758L84.3343 72.8322L84.2584 72.7663C83.6228 71.5472 82.6931 69.6926 81.6827 67.4615L84.3201 72.7711V72.7758Z" fill="#4E2045"/>
<path d="M84.3201 45.889V45.9596L82.4607 46.9246C82.418 46.6798 82.3895 46.4445 82.3895 46.2421C83.0584 46.2797 83.7889 46.0773 84.3154 45.889H84.3201Z" fill="#F9F8F4"/>
<path d="M84.3201 45.8278V45.889C83.7888 46.082 83.0583 46.2797 82.3942 46.242C82.3942 46.4491 82.4179 46.6798 82.4654 46.9246L79.5813 48.4261L78.4144 45.456C78.4476 45.037 78.4998 44.6416 78.5662 44.2698C79.7284 45.4701 81.621 46.6186 84.3248 45.8278H84.3201Z" fill="#F9F8F4"/>
<path d="M84.3201 45.8231V45.8326C81.6163 46.628 79.7189 45.4748 78.5615 44.2745C78.571 44.2133 78.5805 44.1521 78.5947 44.0909C79.1402 44.6323 79.8233 45.183 80.6344 45.569C82.0385 46.2374 83.4758 46.0491 84.3201 45.8278V45.8231Z" fill="#F9F8F4"/>
<path d="M84.1256 38.8096L84.3201 45.8232C83.471 46.0491 82.0385 46.2374 80.6344 45.5643C79.8233 45.1783 79.1355 44.6276 78.5947 44.0863C79.0596 41.5491 80.1221 40.0805 81.2511 39.2333C82.048 39.0215 83.0014 38.8661 84.1304 38.8049L84.1256 38.8096Z" fill="#CECBC1"/>
<path d="M84.3201 72.7758L81.6827 67.4662L82.029 64.1477L84.3201 72.7758Z" fill="#FC7CAD"/>
<path d="M84.2538 72.7664L73.3817 63.8371C73.3817 63.8371 74.4205 61.733 75.4356 58.7393L79.0265 60.9705C79.8755 63.3052 80.81 65.5222 81.6828 67.4615C82.6884 69.6926 83.6229 71.5472 84.2585 72.7664H84.2538Z" fill="#714D6A"/>
<path d="M83.9026 38.1553C83.8647 38.1553 83.8315 38.1647 83.7983 38.1695C83.7888 38.1695 83.784 38.1695 83.7746 38.1695C80.5016 38.4519 78.4571 39.8216 77.3045 41.8739C75.2458 44.0956 75.6632 45.263 75.6632 45.263C75.6632 45.263 74.6434 45.7855 73.3152 46.3739C74.6339 42.3352 77.5796 38.5743 83.9026 38.1553Z" fill="#714D6A"/>
<path d="M83.4947 50.2101L82.029 64.1477L81.6163 62.5897L81.6874 62.6321C78.8414 54.5359 78.0872 49.0993 78.4097 45.4607L79.5766 48.4308L82.4606 46.9293C82.6883 48.3414 83.49 50.2101 83.49 50.2101H83.4947Z" fill="#F4F4F4"/>
<path d="M83.7746 38.1741C83.2765 38.2542 82.6883 38.4142 82.0811 38.7202C81.3839 38.9226 80.6296 39.2379 79.8565 39.718C79.8565 39.718 79.847 39.718 79.847 39.7275C78.3006 40.4147 77.6223 41.3184 77.3377 41.8456C77.3282 41.8551 77.3139 41.8692 77.3092 41.8786C78.4571 39.8263 80.5016 38.4566 83.7793 38.1741H83.7746Z" fill="#4E2045"/>
<path d="M81.6163 62.5897L82.029 64.1477L81.6827 67.4662C80.8052 65.5269 79.8707 63.3052 79.0264 60.9752L81.6163 62.5897Z" fill="#4E2045"/>
<path d="M81.6875 62.6321L81.6164 62.5897L81.5974 62.5144C81.0329 60.3868 79.2873 58.7158 77.9117 57.6944C76.0902 51.7917 75.1795 45.6725 77.2998 41.8834C77.3093 41.8739 77.3188 41.8598 77.3283 41.8504C77.1907 42.1093 77.148 42.2787 77.148 42.2787C77.148 42.2787 77.148 42.2787 77.1575 42.2929L78.405 45.4607C78.0825 49.0993 78.8367 54.5359 81.6828 62.6321H81.6875Z" fill="#4E2045"/>
<path d="M81.6163 62.5897L79.0264 60.9752C78.6326 59.8972 78.2579 58.8005 77.9164 57.6943C79.2872 58.7205 81.0328 60.3915 81.6021 62.5144L81.621 62.5897H81.6163Z" fill="#4E2045"/>
<path d="M82.0812 38.7202C81.806 38.8567 81.5262 39.0261 81.251 39.2332C80.7198 39.3697 80.2597 39.5392 79.8612 39.7134C80.6296 39.2332 81.3886 38.9179 82.0859 38.7155L82.0812 38.7202Z" fill="#4E2045"/>
<path d="M80.1648 118.618L77.1527 131.911L71.859 121.649C74.781 120.035 77.5702 119.089 80.1648 118.618Z" fill="white"/>
<path d="M79.8565 39.7181C80.2597 39.5392 80.7198 39.3745 81.2463 39.238C80.1174 40.0805 79.0548 41.5538 78.59 44.091C77.7836 43.2908 77.2903 42.5094 77.1717 42.3211C77.1717 42.3117 77.1622 42.2976 77.1574 42.2929C77.1574 42.2834 77.1479 42.2787 77.1479 42.2787C77.1479 42.2787 77.1859 42.114 77.3282 41.8504C77.6697 41.4785 78.0824 41.0831 78.5757 40.6595C78.9979 40.2971 79.4153 39.9911 79.8375 39.7322L79.847 39.7228L79.8565 39.7181Z" fill="#CECBC1"/>
<path d="M79.0264 60.9704L75.4355 58.7393C75.668 58.0474 75.9004 57.3036 76.1186 56.5317C76.1186 56.5317 76.9155 56.9412 77.9164 57.6896C78.2579 58.8005 78.6327 59.8972 79.0264 60.9704Z" fill="#714D6A"/>
<path d="M79.8471 39.7275C79.4249 39.9864 79.0075 40.2923 78.5853 40.6548C78.092 41.0784 77.6793 41.4785 77.3378 41.8457C77.6176 41.3185 78.296 40.4147 79.8471 39.7275Z" fill="#CECBC1"/>
<path d="M78.5947 44.0862C78.5805 44.1474 78.571 44.2086 78.5615 44.2698C77.7266 43.4084 77.2713 42.5187 77.1764 42.3163C77.295 42.5046 77.7883 43.2813 78.5947 44.0862Z" fill="#F9F8F4"/>
<path d="M78.5616 44.2698C78.4952 44.6417 78.443 45.0371 78.4098 45.456L77.1622 42.2881L77.1765 42.3164C77.2713 42.5188 77.722 43.4084 78.5616 44.2698Z" fill="#F9F8F4"/>
<path d="M77.1765 42.3211L77.1622 42.2928C77.1622 42.2928 77.1717 42.3117 77.1765 42.3211Z" fill="#F9F8F4"/>
<path d="M77.9164 57.6896C76.9155 56.9412 76.1186 56.5317 76.1186 56.5317C75.9004 57.3083 75.668 58.0474 75.4356 58.7393L72.561 56.9553C72.561 56.9553 71.6692 51.4433 73.3152 46.3786C74.6434 45.7902 75.6632 45.2677 75.6632 45.2677C75.6632 45.2677 75.2411 44.0956 77.3045 41.8786C75.1794 45.6678 76.0902 51.7823 77.9164 57.6896Z" fill="#714D6A"/>
<path d="M71.5791 62.6321C71.6835 63.7665 71.0526 66.5625 69.9996 70.2481C69.0414 58.6405 68.3678 47.9884 68.3678 47.9884C68.5528 47.9743 68.7568 47.9461 68.975 47.9037C69.3307 47.9178 69.5584 47.946 69.5584 47.946C69.5584 47.946 71.0906 57.4355 71.5791 62.6321Z" fill="white"/>
<path d="M68.363 47.9884C68.363 47.9884 69.0366 58.6404 69.9948 70.2481C66.2332 83.4325 57.0688 107.947 57.0688 107.947L48.0325 103.141C53.5112 98.4339 63.6385 51.3398 64.5066 49.3958C65.1754 47.8989 67.7891 47.8472 68.9702 47.9036C68.7567 47.946 68.548 47.9742 68.363 47.9884ZM52.5435 102.237C52.5435 101.602 52.0265 101.089 51.3909 101.089C50.7552 101.089 50.2334 101.602 50.2334 102.237C50.2334 102.873 50.7505 103.386 51.3909 103.386C52.0312 103.386 52.5435 102.873 52.5435 102.237Z" fill="white"/>
<path d="M51.3909 101.089C52.0266 101.089 52.5436 101.602 52.5436 102.237C52.5436 102.873 52.0266 103.386 51.3909 103.386C50.7553 103.386 50.2335 102.873 50.2335 102.237C50.2335 101.602 50.7506 101.089 51.3909 101.089Z" fill="#4E2045"/>
</g>
</g>
<defs>
<filter id="filter0_d_143_3416" x="0" y="0" width="168" height="168" filterUnits="userSpaceOnUse" color-interpolation-filters="sRGB">
<feFlood flood-opacity="0" result="BackgroundImageFix"/>
<feColorMatrix in="SourceAlpha" type="matrix" values="0 0 0 0 0 0 0 0 0 0 0 0 0 0 0 0 0 0 127 0" result="hardAlpha"/>
<feOffset dy="4"/>
<feGaussianBlur stdDeviation="5"/>
<feComposite in2="hardAlpha" operator="out"/>
<feColorMatrix type="matrix" values="0 0 0 0 0 0 0 0 0 0 0 0 0 0 0 0 0 0 0.25 0"/>
<feBlend mode="normal" in2="BackgroundImageFix" result="effect1_dropShadow_143_3416"/>
<feBlend mode="normal" in="SourceGraphic" in2="effect1_dropShadow_143_3416" result="shape"/>
</filter>
<clipPath id="clip0_143_3416">
<rect width="76" height="94" fill="white" transform="translate(47.9424 38)"/>
</clipPath>
</defs>
</svg>
