<svg width="16" height="17" viewBox="0 0 16 17" fill="none" xmlns="http://www.w3.org/2000/svg">
<path fill-rule="evenodd" clip-rule="evenodd" d="M4.84272 0.855285C4.33637 1.09802 3.79298 1.78226 3.78327 2.18941C3.7792 2.36097 3.52996 2.62163 3.06851 2.93718C1.71872 3.86014 0.559721 5.58438 0.167086 7.25386C-0.1159 8.45653 -0.0315949 10.2796 0.360646 11.4388C0.650986 12.297 1.83178 14.1342 2.17346 14.2592C2.62178 14.4234 2.6072 14.0679 2.14405 13.5388C0.168662 11.2824 -0.0976467 7.91178 1.49443 5.31909L1.85148 4.73774L2.16782 5.12372C2.55756 5.5988 3.86665 6.37263 4.46375 6.48091C5.51138 6.67064 5.68157 7.10336 4.84955 7.46151C4.32429 7.68746 4.19035 7.88847 3.9285 8.84401C3.71984 9.60494 3.7553 10.0082 4.04353 10.1555C4.44076 10.3583 4.68711 10.3109 4.99597 9.97187C5.15289 9.79956 5.32938 9.65858 5.38795 9.65858C5.44651 9.65858 5.67514 9.9641 5.89601 10.3377C6.38175 11.159 6.42981 11.1976 7.3116 11.4722C8.11407 11.7221 8.25037 11.9253 7.94572 12.4176C7.63424 12.9207 7.67613 13.2265 8.123 13.7122C8.59061 14.2205 8.62226 14.6109 8.22844 15.0109C8.03291 15.2094 7.94414 15.4501 7.95321 15.7565L7.96673 16.209L7.15848 16.1346C6.06843 16.034 4.88369 15.6313 3.90802 15.0294C3.44775 14.7456 3.01402 14.5627 2.8999 14.6045C2.29033 14.8278 4.74463 16.1678 6.35023 16.4885C9.02803 17.0231 11.7379 16.239 13.7052 14.36C15.2286 12.905 16.0038 11.107 16 9.037C15.9975 7.65413 15.7299 6.59958 15.0783 5.40418C14.2623 3.90739 12.2944 2.11548 11.8931 2.50383C11.7683 2.62451 11.8189 2.71587 12.1281 2.92841C12.3448 3.07729 12.777 3.4263 13.0883 3.70387C13.7701 4.31166 13.7315 4.56292 12.9045 4.90128C12.5297 5.05454 12.2651 5.27147 12.1172 5.54691C11.836 6.07087 11.7134 6.14543 11.1299 6.14781C10.3462 6.15094 9.8066 6.59469 9.50181 7.48645C9.35737 7.90902 9.04707 8.50942 8.81241 8.82058C8.57774 9.13174 8.38563 9.4998 8.38563 9.63865C8.38563 9.9458 9.26032 10.6611 9.63576 10.6611C9.84836 10.6611 9.9429 10.7897 10.0734 11.2564C10.2625 11.933 10.9098 12.9597 11.32 13.2339C11.9908 13.6821 12.7282 13.2505 13.3825 12.0268L13.6535 11.5197L14.1383 11.8638C14.405 12.0531 14.6451 12.2239 14.6719 12.2435C14.782 12.3236 13.9999 13.4269 13.4509 13.966C12.3354 15.0614 10.654 15.8927 9.08856 16.1229C8.60663 16.1937 8.53349 16.1716 8.45312 15.9298C8.38944 15.7387 8.46416 15.5164 8.70223 15.1886C9.14477 14.5792 9.13137 14.1863 8.64826 13.6061C8.19666 13.0637 8.18091 12.9705 8.45365 12.4488C8.59429 12.1797 8.61753 11.979 8.53297 11.7664C8.37276 11.3643 8.18117 11.2341 7.38645 10.9868C6.80196 10.8049 6.66985 10.6981 6.36192 10.1581C5.73935 9.06645 5.34264 8.8974 4.77496 9.482C4.30196 9.96899 4.19008 9.76522 4.44418 8.87935C4.64759 8.16993 4.72533 8.06279 5.24718 7.77243C5.66752 7.53846 5.83626 7.3595 5.86633 7.11589C5.92109 6.67189 5.4146 6.19343 4.76709 6.07738C3.98379 5.93715 2.74679 5.17109 2.49729 4.6717L2.2818 4.24061L2.98053 3.62755C3.36489 3.29033 3.72706 3.04257 3.7855 3.07704C3.84393 3.1115 3.93165 3.29108 3.98024 3.47617C4.10092 3.93496 4.94187 5.12322 5.26136 5.28638C5.88091 5.60281 6.5996 5.05855 7.23373 3.79272C7.56202 3.13731 7.61874 2.89332 7.56556 2.36561L7.50148 1.729L8.52404 1.80431C9.08646 1.84567 9.91415 1.99768 10.3635 2.14217C10.9381 2.32689 11.2217 2.36548 11.3195 2.27212C11.4069 2.18866 11.4122 2.09768 11.3337 2.0265C10.9715 1.69829 8.62961 1.21733 7.70436 1.28099C7.39774 1.30217 7.13169 1.23888 6.98147 1.10918C6.40578 0.612044 5.55958 0.51154 4.84272 0.855285ZM6.32607 1.27698C7.35559 1.77937 7.31002 3.26551 6.22758 4.48924C5.77888 4.9964 5.61013 4.99878 5.17377 4.50377C4.07242 3.25474 4.01149 1.82073 5.03707 1.28249C5.37876 1.10316 5.96469 1.10066 6.32607 1.27698ZM5.10273 1.8889C4.55829 2.40847 4.9265 3.26739 5.69365 3.26739C6.50807 3.26739 6.83833 2.37626 6.20119 1.89805C5.76614 1.57135 5.43824 1.56872 5.10273 1.8889ZM6.00054 2.4393C6.05398 2.70397 5.80606 2.90071 5.54146 2.80372C5.35512 2.73555 5.3022 2.36686 5.45741 2.21874C5.62038 2.06334 5.95182 2.19793 6.00054 2.4393ZM14.7715 5.80582C15.5213 7.2179 15.7356 9.35594 15.2805 10.8838C15.1516 11.3165 15.0042 11.6952 14.9529 11.7254C14.9017 11.7556 14.6145 11.6083 14.3147 11.3979C13.8313 11.0587 13.7696 10.958 13.7696 10.5085C13.7696 9.50005 12.9365 8.7415 11.8277 8.74025C11.1719 8.7395 10.7022 9.02234 10.2348 9.69968C9.88237 10.2106 9.71034 10.255 9.23459 9.95746C8.8107 9.69241 8.82396 9.58652 9.37326 8.84915C9.62762 8.50779 9.87134 8.01516 9.91507 7.75425C10.0256 7.09446 10.4869 6.65096 11.0628 6.65096C11.7766 6.65096 12.1431 6.45785 12.4643 5.91247C12.668 5.56671 12.8785 5.38425 13.136 5.33037C13.3423 5.28701 13.6136 5.11708 13.7389 4.95253L13.9666 4.6534L14.2101 4.93048C14.3441 5.08274 14.5967 5.47674 14.7715 5.80582ZM12.8579 9.60281C13.0561 9.78402 13.2464 10.0725 13.2807 10.2438C13.3831 10.7552 13.1299 11.5591 12.646 12.2589C11.9678 13.2398 11.5645 13.1305 10.8118 11.7618C10.2402 10.7226 10.4672 9.62324 11.3255 9.27435C11.7666 9.0949 12.4665 9.24503 12.8579 9.60281ZM11.2164 10.0625C11.104 10.2156 11.0119 10.4652 11.0119 10.6173C11.0119 10.896 11.5665 11.413 11.8655 11.413C12.2082 11.413 12.7191 10.8942 12.7191 10.5461C12.7191 9.83151 11.6406 9.48439 11.2164 10.0625ZM12.1281 10.5462C12.1281 10.7649 12.0555 10.8491 11.8673 10.8491C11.5591 10.8491 11.4289 10.4278 11.6885 10.2709C11.9601 10.1068 12.1281 10.212 12.1281 10.5462Z" fill="black"/>
</svg>
