<svg width="17" height="19" viewBox="0 0 17 19" fill="none" xmlns="http://www.w3.org/2000/svg">
<path d="M8.55664 0.956665C9.325 1.45581 9.80557 2.37482 9.80566 3.35608V3.35706C9.8084 4.01529 9.58896 4.65664 9.17969 5.1842L9.05469 5.34534H10.5254V8.86292H14.7988C15.3569 8.86353 15.8915 9.07771 16.2852 9.45764C16.6787 9.83759 16.8998 10.3525 16.9004 10.8883V17.4801C16.9001 17.7633 16.7828 18.0356 16.5742 18.2369C16.3655 18.4384 16.0817 18.553 15.7852 18.5533H1.21484C0.918282 18.553 0.634452 18.4384 0.425781 18.2369C0.217234 18.0356 0.0999388 17.7633 0.0996094 17.4801V10.8883C0.10024 10.3525 0.321332 9.83759 0.714844 9.45764C1.10845 9.0777 1.64313 8.86353 2.20117 8.86292H5.86816V5.34534H7.48926L7.36426 5.1842C6.95494 4.65668 6.73463 4.01528 6.7373 3.35706V3.35608C6.7374 2.37483 7.21878 1.45588 7.9873 0.956665L8.27148 0.771118L8.55664 0.956665ZM12.4834 12.9762L11.5469 13.3746C11.2445 13.5031 10.9174 13.5699 10.5869 13.5699C10.2564 13.5699 9.92926 13.5031 9.62695 13.3746L8.69141 12.9762L8.65137 12.9596L8.6123 12.9762L7.67578 13.3746C7.37362 13.503 7.04712 13.5699 6.7168 13.5699C6.46905 13.5699 6.22311 13.5324 5.98828 13.4596L5.75684 13.3746L4.82031 12.9762L4.78125 12.9596L4.74219 12.9762L3.80566 13.3746C3.50332 13.5031 3.17625 13.5699 2.8457 13.5699C2.51538 13.5699 2.18888 13.5029 1.88672 13.3746L1.25391 13.1051L1.11426 13.0455V17.5807H15.8867V17.4801L15.8857 13.3268V13.1754L15.7471 13.234L15.417 13.3746C15.1148 13.503 14.7883 13.5699 14.458 13.5699C14.1275 13.5699 13.8003 13.5031 13.498 13.3746L12.5615 12.9762L12.5225 12.9596L12.4834 12.9762ZM2.20117 9.83557C1.91425 9.83589 1.6385 9.94631 1.43457 10.1432C1.23052 10.3402 1.11459 10.6081 1.11426 10.8883V11.9821L1.1748 12.0074L2.29785 12.486C2.47049 12.5593 2.65732 12.5972 2.8457 12.5973C3.03414 12.5973 3.22086 12.5593 3.39355 12.486L4.78125 11.8951L6.16895 12.486C6.34161 12.5593 6.52839 12.5973 6.7168 12.5973C6.90503 12.5972 7.09116 12.5592 7.26367 12.486H7.26465L8.65137 11.8951L10.0391 12.486C10.2118 12.5594 10.3984 12.5973 10.5869 12.5973C10.7754 12.5973 10.962 12.5594 11.1348 12.486L12.5215 11.8951L13.9092 12.486C14.0818 12.5593 14.2687 12.5972 14.457 12.5973C14.6455 12.5973 14.8322 12.5593 15.0049 12.486L15.8252 12.1373L15.8857 12.111V10.8883C15.8854 10.6081 15.7695 10.3402 15.5654 10.1432C15.3615 9.94632 15.0858 9.83589 14.7988 9.83557H2.20117ZM6.88184 8.86292H9.51074V6.31799H6.88184V8.86292ZM8.19531 2.08459C7.91425 2.42178 7.75202 2.87651 7.75195 3.35608C7.75195 3.83567 7.91427 4.29036 8.19531 4.62756L8.27148 4.72034L8.34863 4.62756C8.62968 4.29036 8.79199 3.8356 8.79199 3.35608C8.79192 2.87656 8.62973 2.42178 8.34863 2.08459L8.27148 1.9928L8.19531 2.08459Z" fill="black" stroke="white" stroke-width="0.2"/>
</svg>
