<svg width="14" height="16" viewBox="0 0 14 16" fill="none" xmlns="http://www.w3.org/2000/svg">
<path d="M1 16V15.3478C1 13.9641 1.5619 12.637 2.5621 11.6586C3.56229 10.6801 4.91885 10.1304 6.33333 10.1304H7.66667C9.08115 10.1304 10.4377 10.6801 11.4379 11.6586C12.4381 12.637 13 13.9641 13 15.3478V16M10.3333 4.26087C10.3333 5.12571 9.98214 5.95512 9.35702 6.56665C8.7319 7.17818 7.88406 7.52174 7 7.52174C6.11595 7.52174 5.2681 7.17818 4.64298 6.56665C4.01786 5.95512 3.66667 5.12571 3.66667 4.26087C3.66667 3.39603 4.01786 2.56662 4.64298 1.95509C5.2681 1.34355 6.11595 1 7 1C7.88406 1 8.7319 1.34355 9.35702 1.95509C9.98214 2.56662 10.3333 3.39603 10.3333 4.26087Z" stroke="black"/>
</svg>
