<svg width="20" height="21" viewBox="0 0 20 21" fill="none" xmlns="http://www.w3.org/2000/svg">
<path d="M18.75 17.2155H17.8125V7.52795C17.8125 7.44507 17.7796 7.36559 17.721 7.30698C17.6624 7.24838 17.5829 7.21545 17.5 7.21545H12.5C12.4171 7.21545 12.3376 7.24838 12.279 7.30698C12.2204 7.36559 12.1875 7.44507 12.1875 7.52795V10.9655H7.8125V3.77795C7.8125 3.69507 7.77958 3.61559 7.72097 3.55698C7.66237 3.49838 7.58288 3.46545 7.5 3.46545H2.5C2.41712 3.46545 2.33763 3.49838 2.27903 3.55698C2.22042 3.61559 2.1875 3.69507 2.1875 3.77795V17.2155H1.25C1.16712 17.2155 1.08763 17.2484 1.02903 17.307C0.970424 17.3656 0.9375 17.4451 0.9375 17.528C0.9375 17.6108 0.970424 17.6903 1.02903 17.7489C1.08763 17.8075 1.16712 17.8405 1.25 17.8405H18.75C18.8329 17.8405 18.9124 17.8075 18.971 17.7489C19.0296 17.6903 19.0625 17.6108 19.0625 17.528C19.0625 17.4451 19.0296 17.3656 18.971 17.307C18.9124 17.2484 18.8329 17.2155 18.75 17.2155ZM12.8125 7.84045H17.1875V17.2155H12.8125V7.84045ZM12.1875 11.5905V17.2155H7.8125V11.5905H12.1875ZM2.8125 4.09045H7.1875V17.2155H2.8125V4.09045ZM5.3125 6.27795V7.52795C5.3125 7.61083 5.27958 7.69032 5.22097 7.74893C5.16237 7.80753 5.08288 7.84045 5 7.84045C4.91712 7.84045 4.83763 7.80753 4.77903 7.74893C4.72042 7.69032 4.6875 7.61083 4.6875 7.52795V6.27795C4.6875 6.19507 4.72042 6.11559 4.77903 6.05698C4.83763 5.99838 4.91712 5.96545 5 5.96545C5.08288 5.96545 5.16237 5.99838 5.22097 6.05698C5.27958 6.11559 5.3125 6.19507 5.3125 6.27795ZM5.3125 10.028V11.278C5.3125 11.3608 5.27958 11.4403 5.22097 11.4989C5.16237 11.5575 5.08288 11.5905 5 11.5905C4.91712 11.5905 4.83763 11.5575 4.77903 11.4989C4.72042 11.4403 4.6875 11.3608 4.6875 11.278V10.028C4.6875 9.94507 4.72042 9.86559 4.77903 9.80698C4.83763 9.74838 4.91712 9.71545 5 9.71545C5.08288 9.71545 5.16237 9.74838 5.22097 9.80698C5.27958 9.86559 5.3125 9.94507 5.3125 10.028ZM5.3125 13.778V15.028C5.3125 15.1108 5.27958 15.1903 5.22097 15.2489C5.16237 15.3075 5.08288 15.3405 5 15.3405C4.91712 15.3405 4.83763 15.3075 4.77903 15.2489C4.72042 15.1903 4.6875 15.1108 4.6875 15.028V13.778C4.6875 13.6951 4.72042 13.6156 4.77903 13.557C4.83763 13.4984 4.91712 13.4655 5 13.4655C5.08288 13.4655 5.16237 13.4984 5.22097 13.557C5.27958 13.6156 5.3125 13.6951 5.3125 13.778ZM9.6875 15.028V13.778C9.6875 13.6951 9.72042 13.6156 9.77903 13.557C9.83763 13.4984 9.91712 13.4655 10 13.4655C10.0829 13.4655 10.1624 13.4984 10.221 13.557C10.2796 13.6156 10.3125 13.6951 10.3125 13.778V15.028C10.3125 15.1108 10.2796 15.1903 10.221 15.2489C10.1624 15.3075 10.0829 15.3405 10 15.3405C9.91712 15.3405 9.83763 15.3075 9.77903 15.2489C9.72042 15.1903 9.6875 15.1108 9.6875 15.028ZM14.6875 15.028V13.778C14.6875 13.6951 14.7204 13.6156 14.779 13.557C14.8376 13.4984 14.9171 13.4655 15 13.4655C15.0829 13.4655 15.1624 13.4984 15.221 13.557C15.2796 13.6156 15.3125 13.6951 15.3125 13.778V15.028C15.3125 15.1108 15.2796 15.1903 15.221 15.2489C15.1624 15.3075 15.0829 15.3405 15 15.3405C14.9171 15.3405 14.8376 15.3075 14.779 15.2489C14.7204 15.1903 14.6875 15.1108 14.6875 15.028ZM14.6875 11.278V10.028C14.6875 9.94507 14.7204 9.86559 14.779 9.80698C14.8376 9.74838 14.9171 9.71545 15 9.71545C15.0829 9.71545 15.1624 9.74838 15.221 9.80698C15.2796 9.86559 15.3125 9.94507 15.3125 10.028V11.278C15.3125 11.3608 15.2796 11.4403 15.221 11.4989C15.1624 11.5575 15.0829 11.5905 15 11.5905C14.9171 11.5905 14.8376 11.5575 14.779 11.4989C14.7204 11.4403 14.6875 11.3608 14.6875 11.278Z" fill="black"/>
</svg>
