<svg width="11" height="20" viewBox="0 0 11 20" fill="none" xmlns="http://www.w3.org/2000/svg">
<path d="M2.30567 9.99999L10.2216 17.914C10.4008 18.0932 10.5015 18.3363 10.5015 18.5898C10.5015 18.8432 10.4008 19.0863 10.2216 19.2655C10.0424 19.4447 9.79935 19.5454 9.5459 19.5454C9.29245 19.5454 9.04939 19.4447 8.87017 19.2655L0.280396 10.6757C0.191515 10.5871 0.120997 10.4817 0.072882 10.3658C0.0247669 10.2498 0 10.1255 0 9.99999C0 9.87445 0.0247669 9.75014 0.072882 9.63419C0.120997 9.51824 0.191515 9.41292 0.280396 9.32426L8.87017 0.734486C9.04939 0.555271 9.29245 0.45459 9.5459 0.45459C9.79935 0.45459 10.0424 0.555271 10.2216 0.734486C10.4008 0.9137 10.5015 1.15677 10.5015 1.41021C10.5015 1.66366 10.4008 1.90673 10.2216 2.08594L2.30567 9.99999Z" fill="white"/>
</svg>
