<svg width="24" height="25" viewBox="0 0 24 25" fill="none" xmlns="http://www.w3.org/2000/svg">
<path d="M12 22.586C11.7314 22.5869 11.4663 22.5248 11.226 22.4049C10.9856 22.2849 10.7767 22.1102 10.616 21.895L5.55503 15.153C4.71765 13.9721 4.22111 12.5837 4.11973 11.1396C4.01834 9.69549 4.31602 8.25132 4.9802 6.96502C5.64437 5.67872 6.64947 4.59982 7.88558 3.84633C9.12168 3.09284 10.5412 2.69376 11.9888 2.69275C13.4365 2.69174 14.8565 3.08883 16.0937 3.8406C17.3308 4.59236 18.3375 5.66985 19.0034 6.95522C19.6694 8.24059 19.9691 9.68434 19.8697 11.1286C19.7704 12.5728 19.2758 13.9619 18.44 15.144L13.385 21.893C13.2244 22.1087 13.0155 22.2838 12.7749 22.4042C12.5344 22.5245 12.269 22.5868 12 22.586ZM11.992 3.71898C10.3017 3.71271 8.66961 4.33624 7.41403 5.46798C6.15424 6.59256 5.35132 8.14063 5.15775 9.81822C4.96418 11.4958 5.39345 13.1861 6.36403 14.568L11.415 21.295C11.483 21.3856 11.5712 21.4592 11.6726 21.5099C11.7739 21.5606 11.8857 21.587 11.999 21.587C12.1127 21.5873 12.2249 21.5611 12.3266 21.5104C12.4283 21.4597 12.5168 21.3859 12.585 21.295L17.629 14.561C18.3172 13.5871 18.7403 12.451 18.8565 11.2642C18.9728 10.0774 18.7784 8.88071 18.2922 7.79179C17.8061 6.70287 17.0451 5.75914 16.084 5.05332C15.1228 4.34749 13.9945 3.90385 12.81 3.76598C12.5385 3.73436 12.2654 3.71866 11.992 3.71898Z" fill="black"/>
<path d="M12 13.153C11.5055 13.153 11.0222 13.0063 10.6111 12.7316C10.2 12.4569 9.87952 12.0665 9.6903 11.6097C9.50108 11.1528 9.45157 10.6502 9.54804 10.1652C9.6445 9.68028 9.8826 9.23482 10.2322 8.88519C10.5819 8.53556 11.0273 8.29746 11.5123 8.20099C11.9972 8.10453 12.4999 8.15404 12.9567 8.34326C13.4135 8.53248 13.804 8.85291 14.0787 9.26403C14.3534 9.67515 14.5 10.1585 14.5 10.653C14.5 11.316 14.2366 11.9519 13.7678 12.4207C13.2989 12.8896 12.663 13.153 12 13.153ZM12 9.15296C11.7033 9.15296 11.4133 9.24093 11.1666 9.40575C10.92 9.57057 10.7277 9.80484 10.6142 10.0789C10.5007 10.353 10.4709 10.6546 10.5288 10.9456C10.5867 11.2366 10.7296 11.5038 10.9393 11.7136C11.1491 11.9234 11.4164 12.0663 11.7074 12.1241C11.9983 12.182 12.2999 12.1523 12.574 12.0388C12.8481 11.9252 13.0824 11.733 13.2472 11.4863C13.412 11.2396 13.5 10.9496 13.5 10.653C13.5 10.2551 13.342 9.8736 13.0607 9.5923C12.7794 9.31099 12.3978 9.15296 12 9.15296Z" fill="black"/>
</svg>
