<svg width="17" height="14" viewBox="0 0 17 14" fill="none" xmlns="http://www.w3.org/2000/svg">
<path d="M2.68421 0H14.3158C15.0277 0 15.7104 0.294999 16.2138 0.820101C16.7172 1.3452 17 2.05739 17 2.8V11.2C17 11.9426 16.7172 12.6548 16.2138 13.1799C15.7104 13.705 15.0277 14 14.3158 14H2.68421C1.97231 14 1.28957 13.705 0.786187 13.1799C0.2828 12.6548 0 11.9426 0 11.2V2.8C0 2.05739 0.2828 1.3452 0.786187 0.820101C1.28957 0.294999 1.97231 0 2.68421 0ZM2.68421 0.933333C2.23684 0.933333 1.84316 1.092 1.53895 1.372L8.5 6.06667L15.4611 1.372C15.1568 1.092 14.7632 0.933333 14.3158 0.933333H2.68421ZM8.5 7.196L1.01105 2.128C0.939474 2.33333 0.894737 2.56667 0.894737 2.8V11.2C0.894737 11.6951 1.08327 12.1699 1.41886 12.5199C1.75445 12.87 2.20961 13.0667 2.68421 13.0667H14.3158C14.7904 13.0667 15.2455 12.87 15.5811 12.5199C15.9167 12.1699 16.1053 11.6951 16.1053 11.2V2.8C16.1053 2.56667 16.0605 2.33333 15.9889 2.128L8.5 7.196Z" fill="black"/>
</svg>
