<svg width="42" height="42" viewBox="0 0 42 42" fill="none" xmlns="http://www.w3.org/2000/svg">
<rect width="42" height="42" rx="21" fill="white"/>
<path d="M12 27V18C12 17.4696 12.2107 16.9609 12.5858 16.5858C12.9609 16.2107 13.4696 16 14 16H14.93C15.2592 16 15.5833 15.9188 15.8736 15.7636C16.1638 15.6083 16.4113 15.3838 16.594 15.11L17.406 13.89C17.5887 13.6162 17.8362 13.3917 18.1264 13.2364C18.4167 13.0812 18.7408 13 19.07 13H22.93C23.2592 13 23.5833 13.0812 23.8736 13.2364C24.1638 13.3917 24.4113 13.6162 24.594 13.89L25.406 15.11C25.5887 15.3838 25.8362 15.6083 26.1264 15.7636C26.4167 15.9188 26.7408 16 27.07 16H28C28.5304 16 29.0391 16.2107 29.4142 16.5858C29.7893 16.9609 30 17.4696 30 18V27C30 27.5304 29.7893 28.0391 29.4142 28.4142C29.0391 28.7893 28.5304 29 28 29H14C13.4696 29 12.9609 28.7893 12.5858 28.4142C12.2107 28.0391 12 27.5304 12 27Z" stroke="#F15B6A" stroke-width="3" stroke-linecap="round" stroke-linejoin="round"/>
<path d="M21 25C22.6569 25 24 23.6569 24 22C24 20.3431 22.6569 19 21 19C19.3431 19 18 20.3431 18 22C18 23.6569 19.3431 25 21 25Z" stroke="#F15B6A" stroke-width="3" stroke-linecap="round" stroke-linejoin="round"/>
</svg>
