<svg width="29" height="29" viewBox="0 0 29 29" fill="none" xmlns="http://www.w3.org/2000/svg">
<path d="M18.0001 8.67542H9.83344L9.05566 11.7865V20.3421L12.5557 23.0643L16.8334 21.1199L20.3334 19.1754L21.889 15.2865V11.7865L18.0001 8.67542Z" fill="#0C0C0C"/>
<path fill-rule="evenodd" clip-rule="evenodd" d="M14.5 28.8976C18.213 28.8976 21.774 27.4226 24.3995 24.7971C27.025 22.1716 28.5 18.6106 28.5 14.8976C28.5 11.1846 27.025 7.6236 24.3995 4.99809C21.774 2.37258 18.213 0.897583 14.5 0.897583C10.787 0.897583 7.22601 2.37258 4.60051 4.99809C1.975 7.6236 0.5 11.1846 0.5 14.8976C0.5 18.6106 1.975 22.1716 4.60051 24.7971C7.22601 27.4226 10.787 28.8976 14.5 28.8976ZM13.7213 9.94158C13.4577 9.76575 13.1514 9.66475 12.8349 9.64938C12.5185 9.63401 12.2038 9.70484 11.9244 9.8543C11.6451 10.0038 11.4115 10.2263 11.2487 10.4981C11.0859 10.7699 11 11.0808 11 11.3976V18.3976C11 18.7144 11.0859 19.0253 11.2487 19.2971C11.4115 19.5689 11.6451 19.7914 11.9244 19.9409C12.2038 20.0903 12.5185 20.1612 12.8349 20.1458C13.1514 20.1304 13.4577 20.0294 13.7213 19.8536L18.9713 16.3536C19.2109 16.1938 19.4074 15.9773 19.5434 15.7233C19.6793 15.4693 19.7504 15.1857 19.7504 14.8976C19.7504 14.6095 19.6793 14.3259 19.5434 14.0719C19.4074 13.8179 19.2109 13.6014 18.9713 13.4416L13.7213 9.94158Z" fill="white"/>
</svg>
