<svg width="26" height="26" viewBox="0 0 26 26" fill="none" xmlns="http://www.w3.org/2000/svg">
<path fill-rule="evenodd" clip-rule="evenodd" d="M13.7319 1.56H12.2681L11.4296 4.9114L10.5885 5.1714C10.0984 5.32243 9.62353 5.51916 9.1702 5.759L8.3915 6.1711L5.4275 4.3927L4.3927 5.4288L6.1711 8.3928L5.759 9.1702C5.51871 9.62348 5.32155 10.0983 5.1701 10.5885L4.9114 11.4296L1.56 12.2681V13.7319L4.9114 14.5704L5.1714 15.4115C5.32133 15.9038 5.5172 16.3765 5.759 16.8298L6.1711 17.6085L4.3927 20.5725L5.4288 21.6073L8.3928 19.8289L9.1702 20.241C9.62347 20.4819 10.0962 20.6782 10.5885 20.8299L11.4296 21.0886L12.2681 24.44H13.7319L14.5704 21.0886L15.4115 20.8286C15.9016 20.6776 16.3765 20.4808 16.8298 20.241L17.6085 19.8289L20.5725 21.6073L21.6073 20.5712L19.8289 17.6072L20.241 16.8298C20.4819 16.3765 20.6782 15.9038 20.8299 15.4115L21.0886 14.5704L24.44 13.7319V12.2681L21.0886 11.4296L20.8286 10.5885C20.6776 10.0984 20.4808 9.62353 20.241 9.1702L19.8289 8.3915L21.6073 5.4275L20.5712 4.3927L17.6072 6.1711L16.8298 5.759C16.3765 5.51871 15.9017 5.32155 15.4115 5.1701L14.5704 4.9114L13.7319 1.56ZM17.5604 4.381L19.9433 2.951C20.1918 2.80197 20.4829 2.74022 20.7705 2.77555C21.0581 2.81087 21.3256 2.94126 21.5306 3.146L22.854 4.4694C23.0587 4.67441 23.1891 4.94194 23.2245 5.22952C23.2598 5.51709 23.198 5.80823 23.049 6.0567L21.619 8.4396C21.905 8.97693 22.139 9.54027 22.321 10.1296L25.0159 10.8043C25.297 10.8747 25.5465 11.0371 25.7248 11.2655C25.9031 11.494 26 11.7755 26 12.0653V13.9347C26 14.2245 25.9031 14.506 25.7248 14.7345C25.5465 14.9629 25.297 15.1253 25.0159 15.1957L22.321 15.8704C22.139 16.4597 21.905 17.0231 21.619 17.5604L23.049 19.9433C23.198 20.1918 23.2598 20.4829 23.2245 20.7705C23.1891 21.0581 23.0587 21.3256 22.854 21.5306L21.5306 22.854C21.3256 23.0587 21.0581 23.1891 20.7705 23.2245C20.4829 23.2598 20.1918 23.198 19.9433 23.049L17.5604 21.619C17.0231 21.905 16.4597 22.139 15.8704 22.321L15.1957 25.0159C15.1253 25.297 14.9629 25.5465 14.7345 25.7248C14.506 25.9031 14.2245 26 13.9347 26H12.0653C11.7755 26 11.494 25.9031 11.2655 25.7248C11.0371 25.5465 10.8747 25.297 10.8043 25.0159L10.1296 22.321C9.5455 22.1405 8.97968 21.9055 8.4396 21.619L6.0567 23.049C5.80823 23.198 5.51709 23.2598 5.22952 23.2245C4.94194 23.1891 4.67441 23.0587 4.4694 22.854L3.146 21.5306C2.94126 21.3256 2.81087 21.0581 2.77555 20.7705C2.74022 20.4829 2.80197 20.1918 2.951 19.9433L4.381 17.5604C4.09453 17.0203 3.8595 16.4545 3.679 15.8704L0.9841 15.1957C0.703195 15.1253 0.453828 14.9632 0.275551 14.735C0.0972751 14.5068 0.000297235 14.2256 0 13.936V12.0666C7.61856e-06 11.7768 0.0968528 11.4953 0.275152 11.2668C0.453451 11.0384 0.702979 10.876 0.9841 10.8056L3.679 10.1309C3.861 9.54157 4.095 8.97823 4.381 8.4409L2.951 6.058C2.80197 5.80953 2.74022 5.51839 2.77555 5.23082C2.81087 4.94324 2.94126 4.67571 3.146 4.4707L4.4694 3.146C4.67441 2.94126 4.94194 2.81087 5.22952 2.77555C5.51709 2.74022 5.80823 2.80197 6.0567 2.951L8.4396 4.381C8.97693 4.095 9.54027 3.861 10.1296 3.679L10.8043 0.9841C10.8747 0.703195 11.0368 0.453828 11.265 0.275551C11.4932 0.0972751 11.7744 0.000297235 12.064 0H13.9334C14.2232 7.61856e-06 14.5047 0.0968528 14.7332 0.275152C14.9616 0.453451 15.124 0.702979 15.1944 0.9841L15.8691 3.679C16.4584 3.861 17.0218 4.095 17.5591 4.381H17.5604ZM13 16.64C13.9654 16.64 14.8912 16.2565 15.5739 15.5739C16.2565 14.8912 16.64 13.9654 16.64 13C16.64 12.0346 16.2565 11.1088 15.5739 10.4261C14.8912 9.7435 13.9654 9.36 13 9.36C12.0346 9.36 11.1088 9.7435 10.4261 10.4261C9.7435 11.1088 9.36 12.0346 9.36 13C9.36 13.9654 9.7435 14.8912 10.4261 15.5739C11.1088 16.2565 12.0346 16.64 13 16.64ZM13 18.2C11.6209 18.2 10.2982 17.6521 9.32304 16.677C8.34785 15.7018 7.8 14.3791 7.8 13C7.8 11.6209 8.34785 10.2982 9.32304 9.32304C10.2982 8.34785 11.6209 7.8 13 7.8C14.3791 7.8 15.7018 8.34785 16.677 9.32304C17.6521 10.2982 18.2 11.6209 18.2 13C18.2 14.3791 17.6521 15.7018 16.677 16.677C15.7018 17.6521 14.3791 18.2 13 18.2Z" fill="white"/>
</svg>
