<svg width="12" height="12" viewBox="0 0 12 12" fill="none" xmlns="http://www.w3.org/2000/svg">
<path opacity="0.5" fill-rule="evenodd" clip-rule="evenodd" d="M6 0C4.4087 0 2.88258 0.632141 1.75736 1.75736C0.632141 2.88258 0 4.4087 0 6C0 7.5913 0.632141 9.11742 1.75736 10.2426C2.88258 11.3679 4.4087 12 6 12C7.5913 12 9.11742 11.3679 10.2426 10.2426C11.3679 9.11742 12 7.5913 12 6C12 4.4087 11.3679 2.88258 10.2426 1.75736C9.11742 0.632141 7.5913 0 6 0ZM6 2.57143C5.8295 2.57143 5.66599 2.63916 5.54543 2.75972C5.42487 2.88028 5.35714 3.04379 5.35714 3.21429C5.35714 3.38478 5.42487 3.5483 5.54543 3.66885C5.66599 3.78941 5.8295 3.85714 6 3.85714C6.1705 3.85714 6.33401 3.78941 6.45457 3.66885C6.57513 3.5483 6.64286 3.38478 6.64286 3.21429C6.64286 3.04379 6.57513 2.88028 6.45457 2.75972C6.33401 2.63916 6.1705 2.57143 6 2.57143ZM5.14286 5.57143H5.57143V8.57143H4.71429V9.42857H7.28571V8.57143H6.42857V4.71429H5.14286V5.57143Z" fill="#BABABA"/>
</svg>
