<svg width="1737" height="594" viewBox="0 0 1737 594" fill="none" xmlns="http://www.w3.org/2000/svg">
<path d="M950.041 98.8303H986.601V493.21H950.041V432.28C924.561 472.91 887.261 493.21 838.151 493.21C798.631 493.21 764.941 479.18 737.061 451.11C709.171 423.05 695.241 388.71 695.241 348.08C695.241 307.45 709.171 273.12 737.061 245.05C764.941 216.99 798.631 202.95 838.151 202.95C887.261 202.95 924.561 223.26 950.041 263.88V98.8203V98.8303ZM763.371 425.91C784.421 447.15 810.261 457.76 840.921 457.76C871.581 457.76 897.421 447.15 918.471 425.91C939.521 404.68 950.041 378.74 950.041 348.09C950.041 317.44 939.521 291.51 918.471 270.27C897.421 249.04 871.571 238.42 840.921 238.42C810.271 238.42 784.421 249.04 763.371 270.27C742.321 291.51 731.801 317.45 731.801 348.09C731.801 378.73 742.321 404.68 763.371 425.91Z" fill="#F15E6A"/>
<path d="M1189.97 205.03C1224.24 205.03 1251.26 215.48 1271.04 236.38C1290.82 257.28 1300.7 285.44 1300.7 320.84V494.27H1263.41V320.84C1263.41 295.61 1256.72 276.03 1243.35 262.09C1229.98 248.16 1211.05 241.19 1186.57 241.19C1159.45 241.19 1137.42 249.76 1120.47 266.9C1103.52 284.04 1095.05 310.5 1095.05 346.27V494.28H1057.76V98.8301H1095.05V255.88C1116.14 221.98 1147.77 205.04 1189.96 205.04L1189.97 205.03Z" fill="#F15E6A"/>
<path d="M1599.67 452.601C1571.52 480.391 1537.2 494.28 1496.72 494.28C1456.24 494.28 1421.93 480.391 1393.77 452.601C1365.62 424.821 1351.54 390.5 1351.54 349.65C1351.54 308.8 1365.62 274.491 1393.77 246.701C1421.92 218.92 1456.23 205.021 1496.72 205.021C1537.21 205.021 1571.51 218.92 1599.67 246.701C1627.82 274.491 1641.9 308.8 1641.9 349.65C1641.9 390.5 1627.82 424.821 1599.67 452.601ZM1419.45 427.211C1440.43 448.381 1466.18 458.951 1496.73 458.951C1527.28 458.951 1553.03 448.381 1574.01 427.211C1594.99 406.051 1605.47 380.2 1605.47 349.65C1605.47 319.1 1594.98 293.261 1574.01 272.091C1553.03 250.931 1527.27 240.351 1496.73 240.351C1466.19 240.351 1440.43 250.931 1419.45 272.091C1398.47 293.261 1387.99 319.1 1387.99 349.65C1387.99 380.2 1398.48 406.051 1419.45 427.211Z" fill="#F15E6A"/>
<path d="M1699.54 494.28V98.8301H1736.83V494.28H1699.54Z" fill="#F15E6A"/>
<path d="M376.581 15.9003C329.081 21.0303 281.551 36.4303 236.021 48.1603C227.971 50.5003 220.231 52.9403 212.581 55.3103C144.321 75.0603 74.3415 115.38 36.5215 175.81C49.7615 139.63 67.9015 104.66 87.6415 72.5803C117.441 23.3903 173.251 -2.62971 229.071 0.210288C263.601 2.10029 297.652 3.99028 332.661 6.83028C348.081 8.07028 362.731 11.1903 376.581 15.9003Z" fill="#F37E90"/>
<path d="M568.221 479.85C544.571 539.45 489.701 581.54 425.841 591.01C386.761 596.94 349.761 589.87 314.271 577.56C349.811 573.6 384.621 561.03 417.211 536.83C485.811 485.59 521.251 411.5 556.201 337.87C560.221 329.52 564.162 321.1 567.922 312.59C582.142 368.08 589.931 424.8 568.221 479.85Z" fill="#F37E90"/>
<path d="M567.921 312.59C564.161 321.1 560.221 329.52 556.201 337.87C521.251 411.5 485.811 485.59 417.211 536.83C384.621 561.03 349.811 573.6 314.271 577.56C296.061 571.24 278.251 563.55 260.761 555.53C186.501 521.94 111.761 487.89 59.2514 420.25C1.54141 345.49 6.57141 257.56 36.5214 175.81C74.3414 115.38 144.321 75.0604 212.581 55.3104C220.231 52.9404 227.971 50.5004 236.021 48.1604C281.551 36.4304 329.081 21.0304 376.581 15.9004C457.881 43.5304 511.931 126.06 536.901 206.72C539.411 214.32 541.991 222.02 544.481 230.02C551.961 256.99 560.761 284.63 567.921 312.59Z" fill="#F0596E"/>
<path d="M314.271 577.561C230.511 586.921 142.671 548.521 70.1311 502.001C21.4911 471.291 -3.47894 415.011 0.391058 359.251C2.92106 324.761 5.45107 290.751 8.93107 255.801C11.8711 226.091 21.7411 199.411 36.5211 175.811C6.57106 257.561 1.54106 345.491 59.2511 420.251C111.761 487.891 186.501 521.941 260.761 555.531C278.251 563.551 296.061 571.241 314.271 577.561Z" fill="#F37E90"/>
<path d="M567.921 312.59C560.761 284.63 551.961 256.99 544.481 230.02C541.991 222.02 539.411 214.32 536.901 206.72C511.931 126.06 457.881 43.5302 376.581 15.9002C413.461 11.9202 450.331 14.1302 486.241 29.0602C545.391 53.8102 586.461 109.45 594.741 173.47C601.341 223.08 587.141 268.98 567.921 312.59Z" fill="#F37E90"/>
<path d="M463.321 346.64C441.851 375.34 411.572 394.65 379.542 405.14C362.472 410.73 344.712 414.01 328.442 422.07C316.532 427.98 305.232 437.1 298.192 449.11C291.152 437.09 279.852 427.97 267.942 422.07C251.682 414 233.902 410.73 216.842 405.14C184.812 394.65 154.522 375.34 133.062 346.64C111.592 317.95 99.6615 279.4 104.522 242.31C109.882 201.46 136.302 164.97 170.782 150.77C205.282 136.56 246.412 145.24 273.972 172.54C284.162 182.63 292.342 195.11 298.192 208.86C304.042 195.11 312.212 182.63 322.412 172.54C349.972 145.24 391.111 136.56 425.602 150.77C460.102 164.97 486.512 201.46 491.872 242.31C496.732 279.4 484.801 317.95 463.331 346.64H463.321Z" fill="white"/>
<path d="M491.862 242.31C486.502 201.46 460.082 164.97 425.592 150.77C391.102 136.56 349.972 145.24 322.402 172.54C318.422 176.48 314.742 180.8 311.392 185.4C312.712 183.92 314.062 182.48 315.452 181.1C342.132 154.68 381.942 146.27 415.322 160.03C448.712 173.77 474.272 209.09 479.472 248.63C484.172 284.53 472.632 321.85 451.842 349.61C431.062 377.39 401.752 396.08 370.752 406.23C365.622 407.91 358.472 410.61 351.392 413.36C360.742 410.54 370.242 408.18 379.532 405.14C402.392 397.65 424.362 385.67 442.882 368.98C450.332 362.14 457.232 354.58 463.402 346.32C474.122 332 482.462 315.22 487.522 297.4C492.532 279.61 494.272 260.78 491.862 242.31Z" fill="#E2E2E2"/>
<path d="M297.981 208.37C297.191 206.59 296.371 204.81 295.521 203.01C289.951 191.57 282.701 181.17 273.971 172.53C246.411 145.23 205.271 136.55 170.781 150.76C136.291 164.96 109.881 201.45 104.521 242.3C103.811 247.74 103.471 253.21 103.451 258.68C103.621 256.22 103.851 253.77 104.171 251.32C109.401 210.83 135.171 174.65 168.811 160.57C202.461 146.48 242.591 156.48 269.481 183.54C279.421 193.54 287.401 205.91 293.101 219.54C294.631 215.87 296.341 212.3 298.191 208.84C298.121 208.68 298.051 208.52 297.981 208.35V208.37Z" fill="#E2E2E2"/>
</svg>
