<svg width="67" height="66" viewBox="0 0 67 66" fill="none" xmlns="http://www.w3.org/2000/svg">
<rect x="0.519531" width="66" height="66" rx="33" fill="#BABABA"/>
<path fill-rule="evenodd" clip-rule="evenodd" d="M23.3508 22.8313C23.5695 22.6129 23.8659 22.4902 24.1749 22.4902C24.484 22.4902 24.7804 22.6129 24.999 22.8313L43.6582 41.4904C43.7728 41.5972 43.8647 41.726 43.9284 41.869C43.9922 42.0121 44.0264 42.1665 44.0292 42.3231C44.032 42.4797 44.0032 42.6352 43.9445 42.7804C43.8858 42.9256 43.7985 43.0575 43.6878 43.1683C43.5771 43.279 43.4452 43.3663 43.2999 43.425C43.1547 43.4836 42.9992 43.5124 42.8426 43.5097C42.686 43.5069 42.5316 43.4726 42.3885 43.4089C42.2455 43.3451 42.1167 43.2532 42.01 43.1387L23.3508 24.4795C23.1324 24.2609 23.0098 23.9644 23.0098 23.6554C23.0098 23.3464 23.1324 23.05 23.3508 22.8313Z" fill="white"/>
<path fill-rule="evenodd" clip-rule="evenodd" d="M43.6582 22.8313C43.8766 23.05 43.9993 23.3464 43.9993 23.6554C43.9993 23.9644 43.8766 24.2609 43.6582 24.4795L24.9991 43.1387C24.778 43.3447 24.4856 43.4568 24.1835 43.4515C23.8813 43.4461 23.5931 43.3238 23.3794 43.1101C23.1657 42.8964 23.0434 42.6082 23.038 42.306C23.0327 42.0039 23.1448 41.7115 23.3508 41.4904L42.01 22.8313C42.2286 22.6129 42.5251 22.4902 42.8341 22.4902C43.1431 22.4902 43.4395 22.6129 43.6582 22.8313Z" fill="white"/>
</svg>
