<svg width="67" height="66" viewBox="0 0 67 66" fill="none" xmlns="http://www.w3.org/2000/svg">
<rect x="0.519531" width="66" height="66" rx="33" fill="#F85F5F"/>
<path d="M30.668 36.9631V42.247C30.668 43.298 31.0855 44.306 31.8287 45.0492C32.5719 45.7923 33.5799 46.2099 34.6309 46.2099L39.9147 34.3212V19.7906H25.0143C24.3772 19.7834 23.7589 20.0067 23.2734 20.4194C22.7879 20.8321 22.4679 21.4063 22.3724 22.0363L20.5494 33.9249C20.492 34.3036 20.5175 34.6902 20.6243 35.058C20.7311 35.4258 20.9165 35.7659 21.1678 36.0549C21.4191 36.3439 21.7303 36.5749 22.0797 36.7317C22.4291 36.8885 22.8084 36.9675 23.1914 36.9631H30.668ZM39.9147 19.7906H43.4417C44.1893 19.7774 44.9158 20.0392 45.4831 20.5262C46.0505 21.0132 46.4193 21.6916 46.5195 22.4326V31.6793C46.4193 32.4203 46.0505 33.0987 45.4831 33.5857C44.9158 34.0727 44.1893 34.3344 43.4417 34.3212H39.9147" fill="white"/>
<path d="M39.9147 34.3212L34.6309 46.2099C33.5799 46.2099 32.5719 45.7923 31.8287 45.0491C31.0855 44.306 30.668 43.298 30.668 42.247V36.9631H23.1914C22.8084 36.9675 22.4291 36.8885 22.0797 36.7317C21.7303 36.5749 21.4191 36.3439 21.1678 36.0549C20.9165 35.7659 20.7311 35.4258 20.6243 35.058C20.5175 34.6902 20.492 34.3036 20.5494 33.9249L22.3724 22.0363C22.4679 21.4063 22.7879 20.8321 23.2734 20.4194C23.7589 20.0067 24.3772 19.7834 25.0143 19.7906H39.9147M39.9147 34.3212V19.7906M39.9147 34.3212H43.4417C44.1893 34.3344 44.9158 34.0727 45.4831 33.5857C46.0505 33.0987 46.4193 32.4203 46.5195 31.6793V22.4326C46.4193 21.6916 46.0505 21.0132 45.4831 20.5262C44.9158 20.0392 44.1893 19.7774 43.4417 19.7906H39.9147" stroke="#F85F5F" stroke-linecap="round" stroke-linejoin="round"/>
</svg>
