<svg width="67" height="66" viewBox="0 0 67 66" fill="none" xmlns="http://www.w3.org/2000/svg">
<rect x="0.519531" width="66" height="66" rx="33" fill="#61A770"/>
<path d="M36.3711 29.037V23.7532C36.3711 22.7022 35.9535 21.6942 35.2104 20.951C34.4672 20.2078 33.4592 19.7903 32.4082 19.7903L27.1243 31.679V46.2095H42.0248C42.6619 46.2167 43.2802 45.9934 43.7657 45.5808C44.2512 45.1681 44.5712 44.5939 44.6667 43.9639L46.4896 32.0752C46.5471 31.6966 46.5215 31.31 46.4148 30.9422C46.308 30.5744 46.1225 30.2342 45.8712 29.9452C45.6199 29.6562 45.3088 29.4253 44.9594 29.2685C44.61 29.1117 44.2306 29.0327 43.8477 29.037H36.3711ZM27.1243 46.2095H23.1615C22.4608 46.2095 21.7888 45.9312 21.2933 45.4357C20.7979 44.9403 20.5195 44.2683 20.5195 43.5676V34.3209C20.5195 33.6202 20.7979 32.9482 21.2933 32.4528C21.7888 31.9573 22.4608 31.679 23.1615 31.679H27.1243" fill="white"/>
<path d="M27.1243 31.679L32.4082 19.7903C33.4592 19.7903 34.4672 20.2078 35.2104 20.951C35.9535 21.6942 36.3711 22.7022 36.3711 23.7532V29.037H43.8477C44.2307 29.0327 44.61 29.1117 44.9594 29.2685C45.3088 29.4253 45.6199 29.6562 45.8712 29.9452C46.1225 30.2342 46.308 30.5744 46.4148 30.9422C46.5215 31.31 46.5471 31.6966 46.4896 32.0752L44.6667 43.9639C44.5712 44.5939 44.2512 45.1681 43.7657 45.5808C43.2802 45.9934 42.6619 46.2167 42.0248 46.2095H27.1243M27.1243 31.679V46.2095M27.1243 31.679H23.1615C22.4608 31.679 21.7888 31.9573 21.2933 32.4528C20.7979 32.9482 20.5195 33.6202 20.5195 34.3209V43.5676C20.5195 44.2683 20.7979 44.9403 21.2933 45.4357C21.7888 45.9312 22.4608 46.2095 23.1615 46.2095H27.1243" stroke="#61A770" stroke-linecap="round" stroke-linejoin="round"/>
</svg>
