<svg width="24" height="30" viewBox="0 0 24 30" fill="none" xmlns="http://www.w3.org/2000/svg">
<path d="M12.3785 30C11.6395 30 11.0088 29.7416 10.4866 29.2249C9.96445 28.7093 9.70335 28.0892 9.70335 27.3647H15.0636C15.0636 28.0936 14.8008 28.7153 14.2753 29.2298C13.7487 29.7433 13.1164 30 12.3785 30ZM1.59662 25.7313C1.36096 25.7313 1.16403 25.653 1.00583 25.4963C0.84762 25.3397 0.767963 25.1455 0.766857 24.9138C0.765751 24.6821 0.845408 24.4884 1.00583 24.3329C1.16625 24.1773 1.36318 24.0995 1.59662 24.0995H3.44864V11.1711C3.44864 9.03889 4.13457 7.16399 5.50644 5.54637C6.8783 3.92875 8.61748 2.92086 10.724 2.52271V1.63177C10.724 1.17813 10.8849 0.793038 11.2069 0.476475C11.5288 0.158825 11.9199 0 12.3802 0C12.8404 0 13.2326 0.158825 13.5568 0.476475C13.8809 0.794126 14.043 1.17922 14.043 1.63177V1.75415C13.8029 2.12293 13.5927 2.49442 13.4124 2.86864C13.232 3.24286 13.091 3.64101 12.9892 4.06309L12.6938 4.03046C12.5976 4.02176 12.4941 4.01741 12.3835 4.01741C10.3666 4.01741 8.64956 4.71363 7.23233 6.10606C5.81511 7.4985 5.10705 9.18684 5.10815 11.1711V24.0995H19.6605V14.1817C19.9238 14.2306 20.1954 14.2692 20.4753 14.2975C20.7552 14.3258 21.0362 14.3296 21.3183 14.3089V24.0995H23.1703C23.406 24.0995 23.6029 24.1779 23.7611 24.3345C23.9204 24.4912 24.0001 24.6853 24.0001 24.9171C24.0001 25.1488 23.9204 25.3424 23.7611 25.498C23.6018 25.6535 23.4049 25.7313 23.1703 25.7313H1.59662Z" fill="white"/>
</svg>
