<svg width="29" height="29" viewBox="0 0 29 29" fill="none" xmlns="http://www.w3.org/2000/svg">
<path fill-rule="evenodd" clip-rule="evenodd" d="M14.5 28.5906C18.213 28.5906 21.774 27.1156 24.3995 24.4901C27.025 21.8646 28.5 18.3036 28.5 14.5906C28.5 10.8775 27.025 7.31659 24.3995 4.69108C21.774 2.06557 18.213 0.590576 14.5 0.590576C10.787 0.590576 7.22601 2.06557 4.60051 4.69108C1.975 7.31659 0.5 10.8775 0.5 14.5906C0.5 18.3036 1.975 21.8646 4.60051 24.4901C7.22601 27.1156 10.787 28.5906 14.5 28.5906ZM13.7213 9.63458C13.4577 9.45874 13.1514 9.35775 12.8349 9.34237C12.5185 9.327 12.2038 9.39783 11.9244 9.5473C11.6451 9.69676 11.4115 9.91926 11.2487 10.1911C11.0859 10.4629 11 10.7738 11 11.0906V18.0906C11 18.4074 11.0859 18.7183 11.2487 18.9901C11.4115 19.2619 11.6451 19.4844 11.9244 19.6339C12.2038 19.7833 12.5185 19.8541 12.8349 19.8388C13.1514 19.8234 13.4577 19.7224 13.7213 19.5466L18.9713 16.0466C19.2109 15.8868 19.4074 15.6702 19.5434 15.4163C19.6793 15.1623 19.7504 14.8786 19.7504 14.5906C19.7504 14.3025 19.6793 14.0189 19.5434 13.7649C19.4074 13.5109 19.2109 13.2944 18.9713 13.1346L13.7213 9.63458Z" fill="white"/>
</svg>
