<svg width="21" height="22" viewBox="0 0 21 22" fill="none" xmlns="http://www.w3.org/2000/svg">
<path d="M11.8999 8.1999C12.2849 8.1999 12.5999 7.8849 12.5999 7.4999C12.5999 7.1149 12.9149 6.7999 13.2999 6.7999C13.6849 6.7999 13.9999 7.1149 13.9999 7.4999C13.9999 7.8849 14.3149 8.1999 14.6999 8.1999C15.0849 8.1999 15.3999 7.8849 15.3999 7.4999C15.3999 6.3449 14.4549 5.3999 13.2999 5.3999C12.1449 5.3999 11.1999 6.3449 11.1999 7.4999C11.1999 7.8849 11.5149 8.1999 11.8999 8.1999ZM6.29985 8.1999C6.68485 8.1999 6.99985 7.8849 6.99985 7.4999C6.99985 7.1149 7.31485 6.7999 7.69985 6.7999C8.08485 6.7999 8.39985 7.1149 8.39985 7.4999C8.39985 7.8849 8.71485 8.1999 9.09985 8.1999C9.48485 8.1999 9.79985 7.8849 9.79985 7.4999C9.79985 6.3449 8.85485 5.3999 7.69985 5.3999C6.54485 5.3999 5.59985 6.3449 5.59985 7.4999C5.59985 7.8849 5.91485 8.1999 6.29985 8.1999Z" fill="#B69A9B"/>
<path d="M10.5 0.5C4.725 0.5 0 5.225 0 11C0 16.775 4.725 21.5 10.5 21.5C16.275 21.5 21 16.775 21 11C21 5.225 16.275 0.5 10.5 0.5ZM10.5 20.1C5.495 20.1 1.4 16.005 1.4 11C1.4 5.995 5.495 1.9 10.5 1.9C15.505 1.9 19.6 5.995 19.6 11C19.6 16.005 15.505 20.1 10.5 20.1Z" fill="#B69A9B"/>
<path d="M16.1002 10.2998C15.7152 10.2998 15.4002 10.6148 15.4002 10.9998C15.4002 13.6948 13.1952 15.8998 10.5002 15.8998C7.8052 15.8998 5.6002 13.6948 5.6002 10.9998C5.6002 10.6148 5.2852 10.2998 4.9002 10.2998C4.5152 10.2998 4.2002 10.6148 4.2002 10.9998C4.2002 14.4648 7.0352 17.2998 10.5002 17.2998C13.9652 17.2998 16.8002 14.4648 16.8002 10.9998C16.8002 10.6148 16.4852 10.2998 16.1002 10.2998Z" fill="#B69A9B"/>
</svg>
