<svg width="31" height="30" viewBox="0 0 31 30" fill="none" xmlns="http://www.w3.org/2000/svg">
<path d="M15.5043 0C17.7702 0.00130914 20.0063 0.515632 22.045 1.50437C24.0836 2.49311 25.8717 3.93059 27.2752 5.70894C28.6787 7.48729 29.661 9.56031 30.1486 11.7724C30.6361 13.9846 30.6161 16.2784 30.0902 18.4817C29.5642 20.685 28.5459 22.7407 27.1117 24.4943C25.6775 26.248 23.8646 27.6542 21.8091 28.6073C19.7536 29.5604 17.5089 30.0358 15.2433 29.9977C12.9778 29.9596 10.7503 29.409 8.728 28.3873L8.50106 28.2655L1.66471 29.9717C1.53314 30.0048 1.39597 30.0089 1.26264 29.9838C1.12932 29.9588 1.00302 29.9051 0.892473 29.8265C0.781923 29.7478 0.68975 29.6462 0.622315 29.5285C0.55488 29.4108 0.513788 29.2799 0.501875 29.1448V28.9911L0.528133 28.8355L2.23488 22.003L2.11672 21.778C1.26057 20.0881 0.73236 18.2513 0.560017 16.3649L0.513129 15.6487L0.5 14.9999C0.5 11.0217 2.08081 7.2064 4.89467 4.39337C7.70853 1.58034 11.5249 0 15.5043 0ZM16.4421 16.8749H10.8155L10.6467 16.8899C10.4305 16.929 10.2349 17.0428 10.094 17.2114C9.95315 17.38 9.87599 17.5927 9.87599 17.8124C9.87599 18.0321 9.95315 18.2448 10.094 18.4134C10.2349 18.582 10.4305 18.6957 10.6467 18.7349L10.8155 18.7499H16.4421L16.6109 18.7349C16.8271 18.6957 17.0227 18.582 17.1636 18.4134C17.3044 18.2448 17.3816 18.0321 17.3816 17.8124C17.3816 17.5927 17.3044 17.38 17.1636 17.2114C17.0227 17.0428 16.8271 16.929 16.6109 16.8899L16.4421 16.8749ZM20.1932 11.2499H10.8155L10.6467 11.2649C10.4305 11.3041 10.2349 11.4179 10.094 11.5865C9.95315 11.7551 9.87599 11.9678 9.87599 12.1874C9.87599 12.4071 9.95315 12.6198 10.094 12.7884C10.2349 12.957 10.4305 13.0708 10.6467 13.1099L10.8155 13.1249H20.1932L20.362 13.1099C20.5782 13.0708 20.7738 12.957 20.9147 12.7884C21.0555 12.6198 21.1327 12.4071 21.1327 12.1874C21.1327 11.9678 21.0555 11.7551 20.9147 11.5865C20.7738 11.4179 20.5782 11.3041 20.362 11.2649L20.1932 11.2499Z" fill="white"/>
</svg>
