<svg width="26" height="26" viewBox="0 0 26 26" fill="none" xmlns="http://www.w3.org/2000/svg">
<path d="M20.0273 15.7273C19.9063 16.0015 19.8702 16.3056 19.9237 16.6005C19.9772 16.8954 20.1177 17.1676 20.3273 17.3818L20.3819 17.4364C20.5509 17.6052 20.685 17.8057 20.7765 18.0265C20.868 18.2472 20.9151 18.4838 20.9151 18.7227C20.9151 18.9617 20.868 19.1983 20.7765 19.419C20.685 19.6397 20.5509 19.8402 20.3819 20.0091C20.213 20.1781 20.0125 20.3122 19.7918 20.4037C19.571 20.4952 19.3344 20.5423 19.0955 20.5423C18.8566 20.5423 18.62 20.4952 18.3992 20.4037C18.1785 20.3122 17.978 20.1781 17.8091 20.0091L17.7546 19.9545C17.5403 19.745 17.2682 19.6044 16.9733 19.5509C16.6784 19.4974 16.3742 19.5335 16.1 19.6545C15.8312 19.7698 15.6019 19.9611 15.4403 20.205C15.2788 20.4489 15.1921 20.7347 15.191 21.0273V21.1818C15.191 21.664 14.9994 22.1265 14.6584 22.4675C14.3174 22.8084 13.855 23 13.3728 23C12.8906 23 12.4281 22.8084 12.0871 22.4675C11.7462 22.1265 11.5546 21.664 11.5546 21.1818V21.1C11.5476 20.7991 11.4502 20.5073 11.2751 20.2625C11.1 20.0176 10.8553 19.8312 10.5728 19.7273C10.2986 19.6063 9.99442 19.5702 9.69951 19.6236C9.40461 19.6771 9.13248 19.8177 8.91823 20.0273L8.86369 20.0818C8.69483 20.2509 8.4943 20.385 8.27358 20.4765C8.05285 20.568 7.81626 20.6151 7.57732 20.6151C7.33838 20.6151 7.10179 20.568 6.88107 20.4765C6.66034 20.385 6.45982 20.2509 6.29096 20.0818C6.12191 19.913 5.9878 19.7124 5.8963 19.4917C5.80481 19.271 5.75771 19.0344 5.75771 18.7955C5.75771 18.5565 5.80481 18.3199 5.8963 18.0992C5.9878 17.8785 6.12191 17.678 6.29096 17.5091L6.3455 17.4545C6.55508 17.2403 6.69567 16.9682 6.74914 16.6733C6.80262 16.3784 6.76652 16.0742 6.6455 15.8C6.53026 15.5311 6.33892 15.3018 6.09502 15.1403C5.85112 14.9788 5.56531 14.8921 5.27278 14.8909H5.11823C4.63602 14.8909 4.17356 14.6994 3.83258 14.3584C3.49161 14.0174 3.30005 13.5549 3.30005 13.0727C3.30005 12.5905 3.49161 12.1281 3.83258 11.7871C4.17356 11.4461 4.63602 11.2545 5.11823 11.2545H5.20005C5.50095 11.2475 5.79278 11.1501 6.03759 10.975C6.28241 10.7999 6.46888 10.5552 6.57278 10.2727C6.69379 9.99853 6.72989 9.69437 6.67642 9.39947C6.62294 9.10456 6.48236 8.83244 6.27278 8.61818L6.21823 8.56364C6.04918 8.39478 5.91508 8.19425 5.82358 7.97353C5.73208 7.7528 5.68498 7.51621 5.68498 7.27727C5.68498 7.03834 5.73208 6.80174 5.82358 6.58102C5.91508 6.36029 6.04918 6.15977 6.21823 5.99091C6.38709 5.82186 6.58762 5.68775 6.80834 5.59626C7.02906 5.50476 7.26566 5.45766 7.50459 5.45766C7.74353 5.45766 7.98013 5.50476 8.20085 5.59626C8.42157 5.68775 8.6221 5.82186 8.79096 5.99091L8.8455 6.04545C9.05976 6.25503 9.33188 6.39562 9.62679 6.4491C9.92169 6.50257 10.2259 6.46647 10.5 6.34545H10.5728C10.8417 6.23022 11.071 6.03887 11.2325 5.79497C11.394 5.55107 11.4807 5.26526 11.4819 4.97273V4.81818C11.4819 4.33597 11.6734 3.87351 12.0144 3.53253C12.3554 3.19156 12.8178 3 13.3 3C13.7823 3 14.2447 3.19156 14.5857 3.53253C14.9267 3.87351 15.1182 4.33597 15.1182 4.81818V4.9C15.1194 5.19253 15.2061 5.47834 15.3676 5.72224C15.5291 5.96614 15.7584 6.15749 16.0273 6.27273C16.3015 6.39374 16.6057 6.42984 16.9006 6.37637C17.1955 6.3229 17.4676 6.18231 17.6819 5.97273L17.7364 5.91818C17.9053 5.74913 18.1058 5.61503 18.3265 5.52353C18.5472 5.43203 18.7838 5.38493 19.0228 5.38493C19.2617 5.38493 19.4983 5.43203 19.719 5.52353C19.9398 5.61503 20.1403 5.74913 20.3091 5.91818C20.4782 6.08704 20.6123 6.28757 20.7038 6.50829C20.7953 6.72901 20.8424 6.96561 20.8424 7.20455C20.8424 7.44348 20.7953 7.68008 20.7038 7.9008C20.6123 8.12152 20.4782 8.32205 20.3091 8.49091L20.2546 8.54545C20.045 8.75971 19.9044 9.03183 19.851 9.32674C19.7975 9.62164 19.8336 9.9258 19.9546 10.2V10.2727C20.0698 10.5416 20.2612 10.7709 20.5051 10.9324C20.749 11.094 21.0348 11.1807 21.3273 11.1818H21.4819C21.9641 11.1818 22.4265 11.3734 22.7675 11.7144C23.1085 12.0553 23.3 12.5178 23.3 13C23.3 13.4822 23.1085 13.9447 22.7675 14.2856C22.4265 14.6266 21.9641 14.8182 21.4819 14.8182H21.4C21.1075 14.8193 20.8217 14.906 20.5778 15.0676C20.3339 15.2291 20.1426 15.4584 20.0273 15.7273Z" stroke="currentColor" stroke-linecap="round" stroke-linejoin="round"/>
<path d="M13.3 15.7273C14.8063 15.7273 16.0273 14.5062 16.0273 13C16.0273 11.4937 14.8063 10.2727 13.3 10.2727C11.7938 10.2727 10.5728 11.4937 10.5728 13C10.5728 14.5062 11.7938 15.7273 13.3 15.7273Z" stroke="currentColor" stroke-linecap="round" stroke-linejoin="round"/>
</svg>
