<svg width="35" height="34" viewBox="0 0 35 34" fill="none" xmlns="http://www.w3.org/2000/svg">
<path d="M19.3326 0C19.8324 0 20.2794 0.311097 20.4477 0.776893L21.6479 4.10376C22.0774 4.21029 22.448 4.31909 22.7597 4.43016C23.0996 4.55142 23.5416 4.73842 24.0856 4.99115L26.8803 3.51217C27.1083 3.39076 27.3696 3.34682 27.6247 3.38699C27.8799 3.42717 28.115 3.54927 28.2947 3.73486L30.7528 6.27634C31.0792 6.61464 31.171 7.10933 30.9874 7.54113L29.6767 10.613C29.8932 11.0119 30.0677 11.3542 30.2003 11.6398C30.3431 11.9492 30.5199 12.3798 30.7307 12.9318L33.7855 14.2408C34.2445 14.4363 34.5284 14.8953 34.4978 15.3866L34.2734 18.914C34.258 19.1432 34.1757 19.3628 34.0367 19.5456C33.8977 19.7285 33.7081 19.8665 33.4914 19.9425L30.5981 20.971C30.5154 21.3699 30.4281 21.7133 30.3363 22.0012C30.1877 22.4473 30.0187 22.8864 29.8297 23.317L31.2832 26.5299C31.3866 26.7555 31.4146 27.0084 31.3632 27.2512C31.3118 27.494 31.1836 27.7138 30.9976 27.878L28.2335 30.3464C28.0518 30.5089 27.8246 30.6118 27.5826 30.6409C27.3406 30.6701 27.0954 30.6243 26.8803 30.5096L24.0312 29C23.5859 29.237 23.126 29.4454 22.6543 29.6239L21.4099 30.0897L20.3049 33.1497C20.2223 33.3733 20.0743 33.5668 19.8804 33.7054C19.6864 33.8439 19.4553 33.9209 19.217 33.9266L15.9871 33.9997C15.7424 34.0054 15.5019 33.9354 15.2984 33.7995C15.0949 33.6635 14.9382 33.468 14.8498 33.2398L13.5477 29.7939C13.1035 29.6418 12.6636 29.4774 12.2285 29.3009C11.8728 29.1469 11.5224 28.9808 11.178 28.8028L7.94807 30.1832C7.73533 30.2744 7.5006 30.3016 7.27264 30.2615C7.04467 30.2213 6.83337 30.1156 6.66461 29.9571L4.27449 27.7148C4.09588 27.5491 3.97423 27.3311 3.9269 27.092C3.87958 26.853 3.90902 26.6051 4.011 26.3838L5.39986 23.3578C5.2158 22.9991 5.04456 22.6339 4.88647 22.263C4.70232 21.8088 4.53225 21.349 4.37649 20.8843L1.3336 19.9578C1.08626 19.8831 0.870522 19.7287 0.7199 19.5188C0.569277 19.3088 0.492195 19.055 0.500625 18.7967L0.619621 15.5311C0.62846 15.3181 0.695169 15.1115 0.812578 14.9336C0.929986 14.7557 1.09366 14.6131 1.286 14.5213L4.47849 12.9879C4.62582 12.4461 4.75614 12.0223 4.86947 11.7163C5.02987 11.3053 5.20796 10.9015 5.40326 10.5059L4.0195 7.58193C3.91369 7.36005 3.88137 7.11021 3.92722 6.8687C3.97308 6.6272 4.09472 6.4066 4.27449 6.23894L6.66121 3.98476C6.8283 3.82658 7.03766 3.72024 7.26394 3.6786C7.49022 3.63696 7.72372 3.66182 7.93617 3.75016L11.1627 5.08295C11.5185 4.84609 11.8426 4.65116 12.135 4.49816C12.4829 4.31456 12.9499 4.11849 13.5358 3.90996L14.6577 0.780293C14.7415 0.551801 14.8933 0.354493 15.0927 0.214971C15.2921 0.0754479 15.5295 0.000419232 15.7729 0L19.3326 0ZM17.5408 11.9322C14.707 11.9322 12.4104 14.2017 12.4104 17.0032C12.4104 19.8048 14.707 22.076 17.5408 22.076C20.3746 22.076 22.6696 19.8048 22.6696 17.0032C22.6696 14.2017 20.3746 11.9322 17.5408 11.9322Z" fill="white"/>
</svg>
