<svg width="56" height="46" viewBox="0 0 56 46" fill="none" xmlns="http://www.w3.org/2000/svg">
<path opacity="0.9" fill-rule="evenodd" clip-rule="evenodd" d="M18.1257 45.6088C15.8746 45.1852 14.3648 44.6795 12.3268 43.6668C6.62648 40.8342 2.35191 35.4731 0.661412 29.0366L0.101026 26.9027L0.0302777 15.1394C-0.0483548 2.09415 -0.0763637 2.39718 1.30437 1.37697L1.95314 0.897705H12.4306H22.908L23.5567 1.37697C24.8925 2.36408 24.879 2.23836 24.879 13.6853C24.879 25.1322 24.8925 25.0064 23.5567 25.9936C22.9159 26.467 22.81 26.4735 14.7646 26.5336C7.93108 26.5848 6.6213 26.6433 6.6213 26.8971C6.6213 27.487 7.69891 30.282 8.43109 31.5915C8.83981 32.3224 9.98195 33.7529 10.9693 34.7708C13.742 37.6283 16.7894 39.0367 21.0897 39.4478C22.4712 39.5798 23.1291 39.7476 23.5856 40.0842C25.4396 41.4519 25.1869 44.5678 23.1401 45.574C22.2889 45.9922 20.2396 46.0066 18.1257 45.6088ZM49.2467 45.6088C46.9956 45.1852 45.4859 44.6795 43.4478 43.6668C37.7475 40.8342 33.4729 35.4731 31.7824 29.0366L31.2221 26.9027L31.1513 15.1394C31.0727 2.09415 31.0447 2.39718 32.4254 1.37697L33.0742 0.897705H43.5516H54.029L54.6778 1.37697C56.0135 2.36408 56 2.23836 56 13.6853C56 25.1322 56.0135 25.0064 54.6778 25.9936C54.0369 26.467 53.9311 26.4735 45.8857 26.5336C39.0521 26.5848 37.7423 26.6433 37.7423 26.8971C37.7423 27.487 38.8199 30.282 39.5521 31.5915C39.9608 32.3224 41.103 33.7529 42.0903 34.7708C44.863 37.6283 47.9104 39.0367 52.2107 39.4478C53.5923 39.5798 54.2502 39.7476 54.7066 40.0842C56.5606 41.4519 56.3079 44.5678 54.2612 45.574C53.4099 45.9922 51.3607 46.0066 49.2467 45.6088Z" fill="#BABABA"/>
</svg>
