<svg width="25" height="35" viewBox="0 0 25 35" fill="none" xmlns="http://www.w3.org/2000/svg">
<path fill-rule="evenodd" clip-rule="evenodd" d="M17.5828 0.775512C17.4442 0.848434 17.2834 1.01792 17.1892 1.19059C16.9197 1.68451 17.0739 2.18108 17.5893 2.47867C17.7997 2.60021 17.9764 2.61435 19.6658 2.6447L21.5123 2.67791L18.7365 5.39832L15.9608 8.11879L15.74 7.95874C14.58 7.11788 13.2179 6.51007 11.7902 6.196C11.044 6.0319 9.16069 5.99271 8.32441 6.12388C3.7969 6.83417 0.435377 10.3647 0.0370509 14.8279C-0.311959 18.7384 1.82911 22.4799 5.42869 24.2499C6.39402 24.7246 7.28334 24.9952 8.52161 25.191L8.77564 25.2311V27.3142V29.3973L7.40386 29.4198C6.17656 29.4399 6.00836 29.4563 5.80723 29.5751C5.15622 29.9597 5.15839 30.8788 5.8113 31.269C6.01229 31.3892 6.15448 31.401 7.39762 31.4012L8.76318 31.4015L8.78635 32.6918C8.81209 34.1258 8.8276 34.1784 9.32382 34.5122C9.76448 34.8088 10.4305 34.6173 10.6892 34.1197C10.7896 33.9269 10.8077 33.701 10.8078 32.6467L10.8079 31.4015H12.1695C13.6825 31.4015 13.8662 31.3622 14.1456 30.9783C14.3507 30.6963 14.355 30.1596 14.1541 29.8955C13.8394 29.4816 13.6856 29.4445 12.1797 29.4198L10.8079 29.3973V27.3112C10.8079 26.1638 10.8344 25.2251 10.8668 25.2251C11.1129 25.2251 12.2148 24.9879 12.7561 24.8183C16.0424 23.7891 18.5018 21.2223 19.3346 17.9529C19.5734 17.0149 19.6355 16.3717 19.5936 15.2698C19.5153 13.2091 18.8944 11.4655 17.6738 9.87853L17.3889 9.50808L20.1953 6.75739L23.0016 4.00677L23.0017 5.83286C23.0018 7.43879 23.0161 7.68671 23.1203 7.89C23.4578 8.54875 24.4019 8.61377 24.8422 8.00855L25 7.79171V4.90274C25 2.62551 24.9804 1.95919 24.9071 1.75603C24.7772 1.39541 24.3835 0.991421 23.9839 0.808586C23.6456 0.653844 23.6413 0.653645 20.7311 0.652981C18.0216 0.652383 17.8007 0.66095 17.5828 0.775512ZM9.1821 8.00303C7.20693 8.20353 5.6353 8.91887 4.30003 10.2251C3.11053 11.3888 2.37173 12.7951 2.10598 14.4016C1.314 19.1893 5.18271 23.4862 10.0966 23.2768C11.1627 23.2314 11.7794 23.1077 12.6638 22.762C14.5241 22.0349 15.9402 20.7546 16.8078 19.0155C18.1024 16.4201 17.8265 13.3816 16.0864 11.0734C15.6516 10.4965 14.7549 9.66017 14.1484 9.26581C12.7068 8.32839 10.7867 7.84019 9.1821 8.00303ZM8.4515 10.5145C6.57245 10.9906 5.06904 12.4652 4.56266 14.3289C4.37075 15.0352 4.37305 16.2261 4.56768 16.9567C5.06281 18.8151 6.57306 20.2937 8.4708 20.7782C9.21787 20.9689 10.3637 20.9704 11.1128 20.7816C12.3571 20.4681 13.5184 19.6766 14.2667 18.632C15.5774 16.8021 15.5108 14.2132 14.1069 12.4245C12.7758 10.7288 10.5599 9.98035 8.4515 10.5145ZM9.34482 12.3415C7.48027 12.6056 6.16931 14.3237 6.45451 16.1297C6.88623 18.8643 10.3066 19.9128 12.2796 17.9154C12.8682 17.3194 13.1797 16.5305 13.1824 15.6284C13.1853 14.6831 12.8833 13.9649 12.2023 13.2973C11.4438 12.5536 10.3741 12.1958 9.34482 12.3415Z" fill="currentColor"/>
</svg>
