<svg width="21" height="20" viewBox="0 0 21 20" fill="none" xmlns="http://www.w3.org/2000/svg">
<path d="M18.5879 7.73875C18.2852 7.56275 18.0131 7.33857 17.7825 7.07503C17.8058 6.70814 17.8932 6.34816 18.0407 6.0114C18.312 5.24607 18.6187 4.37914 18.1265 3.70516C17.6343 3.03119 16.7049 3.05263 15.8892 3.07127C15.5288 3.10835 15.1647 3.08377 14.8125 2.99856C14.6249 2.69327 14.4909 2.35813 14.4163 2.00764C14.1852 1.21994 13.9214 0.329695 13.1113 0.0630878C12.3301 -0.188604 11.6067 0.365118 10.9672 0.851722C10.6913 1.10371 10.3716 1.30307 10.0239 1.43993C9.67251 1.30418 9.34922 1.10477 9.07023 0.851722C8.43261 0.367914 7.71202 -0.1914 6.92712 0.0640201C6.11891 0.326898 5.8551 1.21994 5.62205 2.00764C5.5476 2.35699 5.41493 2.69134 5.2296 2.9967C4.87678 3.08167 4.51221 3.10688 4.15105 3.07127C3.33259 3.0489 2.41065 3.02466 1.91379 3.70516C1.41693 4.38566 1.72735 5.24607 1.99955 6.01047C2.14911 6.34672 2.2378 6.70685 2.2615 7.0741C2.03132 7.33798 1.75958 7.56249 1.45702 7.73875C0.774651 8.20485 0 8.73527 0 9.59661C0 10.458 0.774651 10.9865 1.45702 11.4545C1.75951 11.6305 2.03125 11.8546 2.2615 12.1182C2.2403 12.4853 2.15413 12.8457 2.00701 13.1828C1.73667 13.9472 1.43091 14.8141 1.92218 15.4881C2.41344 16.162 3.34004 16.1406 4.15944 16.122C4.52017 16.0848 4.88458 16.1094 5.23705 16.1947C5.42385 16.5003 5.55749 16.8353 5.6323 17.1856C5.86349 17.9733 6.1273 18.8635 6.93737 19.1301C7.06724 19.1718 7.20276 19.1932 7.33915 19.1935C7.99467 19.0995 8.60393 18.8014 9.08048 18.3415C9.35642 18.0895 9.67614 17.8902 10.0239 17.7533C10.3752 17.889 10.6985 18.0885 10.9775 18.3415C11.616 18.829 12.3394 19.3856 13.1215 19.1292C13.9297 18.8663 14.1936 17.9733 14.4266 17.1865C14.5013 16.8365 14.635 16.5017 14.8218 16.1965C15.1733 16.111 15.5368 16.0857 15.8967 16.122C16.7151 16.1415 17.6371 16.1686 18.1339 15.4881C18.6308 14.8076 18.3204 13.9472 18.0482 13.1818C17.8996 12.8459 17.811 12.4865 17.7862 12.1201C18.0165 11.8559 18.2886 11.6314 18.5916 11.4554C19.274 10.9893 20.0486 10.458 20.0486 9.59661C20.0486 8.73527 19.2712 8.20578 18.5879 7.73875Z" fill="#F85F5F"/>
<path d="M9.09174 12.1602C8.99992 12.1604 8.90898 12.1423 8.82417 12.1071C8.73937 12.0719 8.66239 12.0203 8.59768 11.9551L6.7333 10.0907C6.6098 9.9582 6.54257 9.7829 6.54576 9.60178C6.54896 9.42065 6.62233 9.24784 6.75043 9.11974C6.87852 8.99165 7.05134 8.91827 7.23247 8.91507C7.41359 8.91188 7.58889 8.97911 7.72142 9.10261L9.157 10.5382L12.401 8.10516C12.5494 7.99391 12.7358 7.94614 12.9194 7.97236C13.1029 7.99858 13.2686 8.09665 13.3798 8.24499C13.4911 8.39333 13.5388 8.57979 13.5126 8.76335C13.4864 8.94691 13.3883 9.11254 13.24 9.22379L9.51123 12.0204C9.39018 12.1111 9.24301 12.1601 9.09174 12.1602Z" fill="white"/>
</svg>
